<?xml version="1.0" encoding="UTF-8" standalone="no"?>
<svg width="31px" height="56px" viewBox="0 0 31 56" version="1.1" xmlns="http://www.w3.org/2000/svg" xmlns:xlink="http://www.w3.org/1999/xlink">
    <!-- Generator: Sketch 40.3 (33839) - http://www.bohemiancoding.com/sketch -->
    <title>facebook-logo</title>
    <desc>Created with Sketch.</desc>
    <defs></defs>
    <g id="Page-1" stroke="none" stroke-width="1" fill="none" fill-rule="evenodd">
        <g id="Desktop" transform="translate(-879.000000, -2522.000000)" fill="#F2F2F2">
            <g id="Footer" transform="translate(68.000000, 2400.000000)">
                <g id="Social-Icons" transform="translate(559.000000, 122.000000)">
                    <path d="M281.600963,0.0109235611 L274.350026,0 C266.204809,0 260.939464,5.41007568 260.939464,13.7818929 L260.939464,20.1372207 L253.648538,20.1372207 C253.021088,20.1372207 252.509968,20.6462587 252.509968,21.2776405 L252.509968,30.4862025 C252.509968,31.1146714 253.021088,31.6266223 253.648538,31.6266223 L260.939464,31.6266223 L260.939464,54.8595802 C260.939464,55.4880491 261.450585,56 262.080943,56 L271.589391,56 C272.219749,56 272.73087,55.4880491 272.73087,54.8595802 L272.73087,31.6266223 L281.254157,31.6266223 C281.884515,31.6266223 282.393455,31.1146714 282.393455,30.4862025 L282.398544,21.2776405 C282.398544,20.9761502 282.276399,20.6863117 282.063371,20.4700252 C281.850343,20.2566517 281.560975,20.1372207 281.257065,20.1372207 L272.73087,20.1372207 L272.73087,14.7497204 C272.73087,12.1608364 273.347414,10.8463679 276.71296,10.8463679 L281.598055,10.843455 C282.228413,10.843455 282.736626,10.3315041 282.736626,9.70303519 L282.736626,1.15498452 C282.736626,0.522874457 282.228413,0.0138365107 281.600963,0.0109235611 L281.600963,0.0109235611 Z" id="facebook-logo"></path>
                </g>
            </g>
        </g>
    </g>
</svg>