<?xml version="1.0" encoding="utf-8"?>
<!-- Generator: Adobe Illustrator 19.0.0, SVG Export Plug-In . SVG Version: 6.00 Build 0)  -->
<svg version="1.1" id="Layer_1" xmlns="http://www.w3.org/2000/svg" xmlns:xlink="http://www.w3.org/1999/xlink" x="0px" y="0px"
	 viewBox="0 0 5000 5000" style="enable-background:new 0 0 5000 5000;" xml:space="preserve">
<style type="text/css">
	.st0{fill:#231F20;}
</style>
<path id="XMLID_28_" class="st0" d="M1256.2,2055.3h78.2c1.3,38.8,33.4,58.1,68.2,58.1c36.1,0,68.2-23.4,68.2-60.2
	c0-39.4-36.8-63.5-68.2-64.8c-4,0-36.1,0-70.2-15.4c-48.8-22.7-76.2-64.1-76.2-119.6c0-88.9,70.8-143,146.3-143
	c80.9,0,143,54.8,144.3,134.3h-77.5c-1.3-38.8-31.4-56.1-66.8-56.1c-36.8,0-68.2,21.4-68.2,64.8c0,38.8,33.4,59.5,68.2,59.5
	c3.3,0,36.1,0,69.5,15.4c49.4,22.7,76.2,69.5,76.2,125c0,89.5-70.2,138.3-145.7,138.3C1321.7,2189.6,1257.5,2142.8,1256.2,2055.3"/>
<path id="XMLID_27_" class="st0" d="M1964.5,2068l54.8,55.5c-42.1,42.1-100.2,68.2-165.1,68.2c-129,0-234.5-93.6-234.5-240.6
	c0-141,97.5-240.6,234.5-240.6c64.8,0,123,26.1,165.1,68.8l-54.8,54.8c-28.1-28.1-67.5-45.4-110.3-45.4c-96.2,0-155,68.2-155,162.4
	c0,100.2,68.8,162.4,155,162.4C1897,2113.5,1936.4,2096.1,1964.5,2068"/>
<path class="st0" d="M2265.7,1911.6c20.7-2,68.2-12,68.2-58.1c0-58.2-78.2-58.2-78.2-58.2h-62.8L2265.7,1911.6z M2344.6,2184.9
	L2223,1989.8h-44.8v195.1H2100v-272.6h74.2l-74.2-117v-78.2h155.7c0,0,156.4,0,156.4,136.3c0,82.9-57.5,115.6-102.9,128.3l127,203.1
	H2344.6z"/>
<polygon id="XMLID_24_" class="st0" points="2586.4,1795.3 2586.4,1912.3 2780.8,1912.3 2780.8,1989.8 2586.4,1989.8 2586.4,2106.8 
	2820.3,2106.8 2820.3,2185 2508.2,2185 2508.2,1717.2 2820.3,1717.2 2820.3,1795.3 "/>
<path class="st0" d="M2977.9,2063.3h113.6l-56.8-162.4L2977.9,2063.3z M3116.9,2130.8h-164.4l-20,54.1h-84.2l186.4-481.1
	l187.1,481.1h-84.2L3116.9,2130.8z"/>
<polygon id="XMLID_21_" class="st0" points="3781,2184.9 3702.8,2184.9 3702.8,1897.6 3568.5,2184.9 3495,2184.9 3352,1891.6 
	3352,2184.9 3273.8,2184.9 3273.8,1716.5 3353.3,1716.5 3531.1,2080.7 3701.5,1716.5 3781,1716.5 "/>
<polygon id="XMLID_20_" class="st0" points="1283.3,2455.4 1185.1,2455.4 1185.1,2851.7 1107.6,2851.7 1107.6,2455.4 1009.3,2455.4 
	1009.3,2383.9 1283.3,2383.9 "/>
<polygon id="XMLID_19_" class="st0" points="1700.2,2383.9 1700.2,2851.7 1622.1,2851.7 1622.1,2656.6 1427.6,2656.6 1427.6,2851.7 
	1349.4,2851.7 1349.4,2383.9 1427.6,2383.9 1427.6,2577.7 1622.1,2577.7 1622.1,2383.9 "/>
<path class="st0" d="M2285.2,2551c0,53.5,42.8,96.2,96.2,96.2c53.5,0,96.2-42.8,96.2-96.2c0-53.5-42.8-96.2-96.2-96.2
	C2327.9,2454.7,2285.2,2497.5,2285.2,2551 M2533.8,2851.7H2225v-77.5h308.7V2851.7z M2207.7,2551c0-95.6,78.2-173.8,173.7-173.8
	c95.6,0,173.8,78.2,173.8,173.8c0,95.6-78.2,173.7-173.8,173.7C2285.8,2724.7,2207.7,2646.5,2207.7,2551"/>
<path class="st0" d="M2960,2663.2v-201.1h-233.9v201.8c0,0,0.7,32.1,16.7,62.1c19.4,36.8,52.1,54.1,100.2,54.1
	c48.8,0,81.5-17.4,100.2-54.1C2959.3,2696,2960,2663.9,2960,2663.2 M3037.5,2383.9v280c0,4.7-0.7,49.4-23.4,94.9
	c-32.1,64.1-92.9,99.5-171.1,99.5c-78.2,0-139-35.4-171.1-99.5c-22.7-45.5-23.4-90.2-23.4-94.9v-280H3037.5z"/>
<path class="st0" d="M1984.3,2578.4c20.7-2,68.2-12,68.2-58.1c0-58.1-78.2-58.1-78.2-58.1h-62.8L1984.3,2578.4z M2063.2,2851.7
	l-121.6-195.1h-44.8v195.1h-78.2V2579h74.2l-74.2-117v-78.2h155.7c0,0,156.4,0,156.4,136.3c0,82.9-57.5,115.6-102.9,128.3l127,203.1
	H2063.2z"/>
<path id="XMLID_11_" class="st0" d="M3550.8,2585.7v268h-68.2l-4-44.1c-38.1,35.4-77.5,48.8-133,48.8
	c-125.6,0-223.9-87.5-223.9-240.6c0-139,104.9-240.6,233.9-240.6c64.8,0,123,26.1,165,68.8l-54.8,54.8
	c-28.1-28.1-67.5-45.4-110.2-45.4c-86.2,0-155.7,60.1-155.7,162.4c0,114.3,69.5,162.4,155.7,162.4c46.8,0,88.2-20.1,116.9-52.8
	v-67.5h-78.2v-74.2H3550.8z"/>
<polygon id="XMLID_10_" class="st0" points="4004.4,2383.9 4004.4,2851.7 3926.2,2851.7 3926.2,2656.6 3731.8,2656.6 3731.8,2851.7 
	3653.6,2851.7 3653.6,2383.9 3731.8,2383.9 3731.8,2577.7 3926.2,2577.7 3926.2,2383.9 "/>
<polygon id="XMLID_9_" class="st0" points="1691.5,3128.8 1691.5,3245.8 1885.9,3245.8 1885.9,3323.3 1691.5,3323.3 1691.5,3440.2 
	1925.4,3440.2 1925.4,3518.5 1613.3,3518.5 1613.3,3050.6 1925.4,3050.6 1925.4,3128.8 "/>
<path class="st0" d="M2083,3396.8h113.6l-56.8-162.4L2083,3396.8z M2222,3464.3h-164.4l-20,54.1h-84.2l186.4-481.1l187.1,481.1
	h-84.2L2222,3464.3z"/>
<path class="st0" d="M2546,3245.1c20.7-2,68.2-12,68.2-58.2c0-58.1-78.2-58.1-78.2-58.1h-62.8L2546,3245.1z M2624.8,3518.4
	l-121.6-195.1h-44.8v195.1h-78.2v-272.6h74.2l-74.2-117v-78.2H2536c0,0,156.4,0,156.4,136.3c0,82.9-57.5,115.6-102.9,128.3
	l127,203.2H2624.8z"/>
<polygon id="XMLID_4_" class="st0" points="3023,3122.1 2924.8,3122.1 2924.8,3518.4 2847.3,3518.4 2847.3,3122.1 2749,3122.1 
	2749,3050.7 3023,3050.7 "/>
<polygon id="XMLID_3_" class="st0" points="3439.9,3050.7 3439.9,3518.4 3361.7,3518.4 3361.7,3323.3 3167.3,3323.3 3167.3,3518.4 
	3089.1,3518.4 3089.1,3050.7 3167.3,3050.7 3167.3,3244.4 3361.7,3244.4 3361.7,3050.7 "/>
<g>
	<path class="st0" d="M2490.7,4787.7c-569.2,0-1138.4-210.1-1579.8-630.4l-584.2,584.2l-67.7-67.7L843,4089.9
		c-415.7-429.6-644.2-993.8-644.2-1593c0-612.2,238.4-1187.7,671.3-1620.6C1303,443.4,1878.5,205,2490.7,205
		c606.9,0,1177.9,234.4,1609.5,660.3L4733.4,232l67.7,67.7L4167,933.8c397.6,425.7,615.6,977.6,615.6,1563
		c0,612.2-238.4,1187.7-671.3,1620.6C3664.5,4564.3,3077.6,4787.7,2490.7,4787.7z M2490.7,300.7c-586.6,0-1138.1,228.4-1552.9,643.3
		C523,1358.8,294.5,1910.3,294.5,2496.9S523,3635,937.8,4049.8c856.3,856.3,2249.6,856.3,3105.9,0
		c414.8-414.8,643.2-966.3,643.2-1552.9S4458.5,1358.8,4043.7,944C3628.9,529.1,3077.3,300.7,2490.7,300.7z"/>
</g>
</svg>
