<?xml version="1.0" encoding="UTF-8" standalone="no"?>
<svg width="56px" height="55px" viewBox="0 0 56 55" version="1.1" xmlns="http://www.w3.org/2000/svg" xmlns:xlink="http://www.w3.org/1999/xlink">
    <!-- Generator: Sketch 40.3 (33839) - http://www.bohemiancoding.com/sketch -->
    <title>instagram-symbol</title>
    <desc>Created with Sketch.</desc>
    <defs></defs>
    <g id="Page-1" stroke="none" stroke-width="1" fill="none" fill-rule="evenodd">
        <g id="Desktop" transform="translate(-754.000000, -2523.000000)" fill="#F2F2F2">
            <g id="Footer" transform="translate(68.000000, 2400.000000)">
                <g id="Social-Icons" transform="translate(559.000000, 122.000000)">
                    <path d="M180.210911,3.11184314 C178.818178,1.72831373 177.152306,1.036 175.209984,1.036 L134.138157,1.036 C132.195836,1.036 130.529964,1.72831373 129.139438,3.11184314 C127.749464,4.49482353 127.053097,6.15286275 127.053097,8.08486275 L127.053097,48.9505882 C127.053097,50.8831373 127.749464,52.5406275 129.139438,53.9241569 C130.529964,55.3093333 132.195836,56 134.138157,56 L175.209984,56 C177.152306,56 178.818178,55.3093333 180.208704,53.9241569 C181.600885,52.5406275 182.295044,50.8831373 182.295044,48.9505882 L182.295044,8.08486275 C182.295044,6.15286275 181.600885,4.49482353 180.210911,3.11184314 L180.210911,3.11184314 Z M146.887402,20.8413333 C149.058168,18.7545098 151.665955,17.7102745 154.711869,17.7102745 C157.779302,17.7102745 160.400333,18.7545098 162.568339,20.8413333 C164.739105,22.9303529 165.823384,25.452 165.823384,28.4117647 C165.823384,31.3693333 164.739105,33.8909804 162.568339,35.9778039 C160.400333,38.0668235 157.78151,39.1088627 154.711869,39.1088627 C151.665955,39.1088627 149.058168,38.0646275 146.887402,35.9778039 C144.719396,33.8909804 143.63291,31.3693333 143.63291,28.4117647 C143.63291,25.452 144.719396,22.9303529 146.887402,20.8413333 L146.887402,20.8413333 Z M176.037678,47.4836078 C176.037678,48.103451 175.822478,48.6222745 175.391525,49.0406275 C174.957814,49.4589804 174.442988,49.6670588 173.843738,49.6670588 L135.396804,49.6670588 C134.773826,49.6670588 134.252379,49.4589804 133.834118,49.0406275 C133.413649,48.6222745 133.202863,48.103451 133.202863,47.4836078 L133.202863,24.2963137 L138.27442,24.2963137 C137.796012,25.7973333 137.554326,27.3609412 137.554326,28.9821961 C137.554326,33.5632157 139.233441,37.4705882 142.589464,40.7026667 C145.947694,43.9341961 149.98684,45.5516078 154.711869,45.5516078 C157.828412,45.5516078 160.706028,44.8115294 163.342509,43.3341176 C165.980645,41.8539608 168.064779,39.844549 169.60153,37.3031373 C171.136627,34.7617255 171.903623,31.9891765 171.903623,28.9821961 C171.903623,27.3609412 171.662488,25.7995294 171.184081,24.2963137 L176.037678,24.2963137 L176.037678,47.4836078 Z M176.037678,15.5290196 C176.037678,16.2196863 175.798751,16.8049412 175.318136,17.2809412 C174.839729,17.7596863 174.250963,17.9974118 173.556804,17.9974118 L167.297782,17.9974118 C166.603623,17.9974118 166.014857,17.7596863 165.53645,17.2809412 C165.055836,16.8049412 164.816908,16.2196863 164.816908,15.5290196 L164.816908,9.62486275 C164.816908,8.95560784 165.055836,8.37694118 165.53645,7.88776471 C166.014857,7.39858824 166.603623,7.15427451 167.297782,7.15427451 L173.556804,7.15427451 C174.250963,7.15427451 174.839729,7.39858824 175.318136,7.88776471 C175.798751,8.37694118 176.037678,8.95560784 176.037678,9.62486275 L176.037678,15.5290196 Z" id="instagram-symbol"></path>
                </g>
            </g>
        </g>
    </g>
</svg>