<?xml version="1.0" encoding="utf-8"?>
<!-- Generator: Adobe Illustrator 19.0.0, SVG Export Plug-In . SVG Version: 6.00 Build 0)  -->
<svg version="1.1" id="Calque_1" xmlns="http://www.w3.org/2000/svg" xmlns:xlink="http://www.w3.org/1999/xlink" x="0px" y="0px"
	 viewBox="12 157 689 248" style="enable-background:new 12 157 689 248;" xml:space="preserve">
<style type="text/css">
	.st0{fill:#2B2B2B;}
</style>
<g>
	<g>
		<g>
			<g>
				<g>
					<path id="SVGID_1_" class="st0" d="M406.5,272.4"/>
				</g>
			</g>
			<g>
				<path class="st0" d="M406.5,291.8v-18.9h6c3.2,0,4.5,0.3,5.8,1.4c1.5,1.2,2.3,3.1,2.3,5.2c0,3.1-1.8,5.4-4.7,5.9l5.1,6.4h-5.5
					l-4.4-6.1v6.1H406.5 M411.1,282.4h1.7c2,0,3.2-1,3.2-2.7s-1.1-2.6-3.1-2.6h-1.8L411.1,282.4L411.1,282.4z"/>
				<polyline class="st0" points="421.6,291.8 421.6,272.9 432.1,272.9 432.1,277.1 426.2,277.1 426.2,280.1 431.9,280.1 
					431.9,284.3 426.2,284.3 426.2,287.6 432.1,287.6 432.1,291.8 421.6,291.8 				"/>
				<polyline class="st0" points="453.7,291.8 453.7,277.1 450,277.1 450,272.9 462.3,272.9 462.3,277.1 458.5,277.1 458.5,291.8 
					453.7,291.8 				"/>
				<polyline class="st0" points="463,291.8 463,272.9 473.5,272.9 473.5,277.1 467.7,277.1 467.7,280.1 473.4,280.1 473.4,284.3 
					467.7,284.3 467.7,287.6 473.5,287.6 473.5,291.8 463,291.8 				"/>
				<polyline class="st0" points="474.6,291.8 474.6,272.9 479.4,272.9 479.4,287.6 485,287.6 485,291.8 474.6,291.8 				"/>
				<path class="st0" d="M486.1,272.8c0.3,0.3,0.4,0.7,0.4,1.1s-0.2,0.8-0.4,1.1c-0.3,0.3-0.7,0.4-1.1,0.4s-0.8-0.2-1.1-0.5
					c-0.3-0.3-0.4-0.7-0.4-1.1s0.2-0.8,0.5-1.1c0.3-0.3,0.6-0.4,1.1-0.4C485.4,272.4,485.8,272.5,486.1,272.8 M484.1,273
					c-0.3,0.3-0.4,0.6-0.4,0.9s0.1,0.7,0.4,0.9c0.2,0.2,0.6,0.4,0.9,0.4c0.4,0,0.7-0.1,0.9-0.4c0.2-0.2,0.4-0.6,0.4-0.9
					c0-0.4-0.1-0.7-0.4-0.9c-0.3-0.3-0.6-0.4-0.9-0.4S484.4,272.7,484.1,273z M485.1,273c0.5,0,0.7,0.2,0.7,0.5
					c0,0.2-0.1,0.4-0.4,0.5l0.4,0.8h-0.4l-0.3-0.7h-0.3v0.7h-0.4v-1.7L485.1,273L485.1,273z M484.8,273.8h0.2c0.3,0,0.4-0.1,0.4-0.3
					c0-0.2-0.1-0.3-0.4-0.3h-0.2V273.8z"/>
			</g>
		</g>
		<path class="st0" d="M446.3,278.9c0-3.6-2.9-6.4-6.4-6.4c-3.6,0-6.4,2.9-6.4,6.4v12.9h12.8c3.6,0,6.4-2.9,6.4-6.4
			C452.7,281.8,449.8,278.9,446.3,278.9"/>
	</g>
</g>
<g>
	<g>
		<path class="st0" d="M226,196.6c-1.4-1.6-2.9-3.2-4.3-4.8c-1.5-1.7-3.1-3.4-4.6-5.1c-1.7-1.9-2.7-4.1-2.9-6.7
			c-0.4-5.1,1.7-9,6.1-11.5c6.5-3.6,14.7-0.2,16.8,7c1.2,4.2,0.3,8-2.5,11.3c-2.8,3.2-5.6,6.3-8.4,9.4
			C226.2,196.4,226.1,196.5,226,196.6z M218.3,179.7c0,0.9,0,1.8,0,2.6c0,0.3,0.1,0.4,0.4,0.4c1.5-0.1,3.3-1.4,3.5-2.9
			c0.2-0.9,0.1-1.9,0.2-2.9c0-0.3-0.2-0.2-0.4-0.2c-1.1,0-2.2,0-3.4,0c-0.3,0-0.4,0.1-0.4,0.4C218.3,178,218.3,178.9,218.3,179.7z
			 M224,176.8c0,0.1,0,0.2,0,0.2c0,1.8,0,3.6,0,5.4c0,0.4,0.2,0.3,0.4,0.3c1.6-0.1,3.2-1.4,3.5-3c0.2-1,0.1-1.9,0.2-3
			C226.7,176.8,225.3,176.8,224,176.8z M229.8,182.7c0.7,0,1.3-0.1,1.8-0.4c0.8-0.4,1.5-1.1,1.8-1.9c0.5-1.1,0.3-2.3,0.3-3.5
			c-1.4,0-2.7,0-4,0C229.8,178.8,229.8,180.7,229.8,182.7z"/>
	</g>
	<g>
		<path class="st0" d="M250.9,187.6l2.4-7.6h1.1l-2.9,9h-1.2l-2-7.6l0,0l-2,7.6H245l-2.7-9h1l2.3,7.7l2.1-7.7h1.2L250.9,187.6z"/>
		<path class="st0" d="M255.8,189v-12.5h1v4.8c0.4-0.4,0.8-0.8,1.3-1.1c0.4-0.3,1-0.4,1.6-0.4s1.1,0.1,1.5,0.3
			c0.5,0.2,0.9,0.5,1.2,1c0.2,0.3,0.3,0.7,0.4,1c0,0.3,0.1,0.7,0.1,1.1v5.9h-1v-5.9c0-0.8-0.2-1.4-0.5-1.8c-0.4-0.4-1-0.6-1.8-0.6
			c-0.3,0-0.6,0-0.9,0.1c-0.3,0.1-0.5,0.2-0.7,0.4c-0.2,0.2-0.4,0.3-0.5,0.6c-0.2,0.2-0.3,0.4-0.3,0.7c-0.1,0.3-0.2,0.6-0.2,0.8
			c0,0.3,0,0.6,0,0.9v4.8L255.8,189L255.8,189L255.8,189z"/>
		<path class="st0" d="M269.6,183.8c0.2,0,0.4-0.1,0.7-0.1c0.3,0,0.5-0.1,0.7-0.2c0.2-0.1,0.3-0.2,0.3-0.4c0-0.2,0.1-0.4,0.1-0.5
			c0-0.5-0.2-1-0.5-1.3c-0.3-0.3-0.9-0.5-1.7-0.5c-0.4,0-0.7,0-1,0.1s-0.6,0.2-0.8,0.3c-0.2,0.2-0.4,0.4-0.6,0.6
			c-0.1,0.3-0.2,0.6-0.3,1h-1.1c0-0.5,0.2-1,0.4-1.4c0.2-0.4,0.5-0.7,0.8-0.9c0.3-0.2,0.7-0.4,1.1-0.5s0.9-0.2,1.4-0.2
			s0.9,0,1.3,0.1c0.4,0.1,0.7,0.3,1,0.5c0.3,0.2,0.5,0.5,0.7,0.9c0.2,0.4,0.3,0.8,0.3,1.3v4.9c0,0.4,0.1,0.7,0.2,0.8
			s0.4,0.1,0.9-0.1v0.8c-0.1,0-0.2,0.1-0.4,0.1c-0.2,0-0.3,0.1-0.5,0.1c-0.2,0-0.3,0-0.5-0.1c-0.2,0-0.3-0.1-0.4-0.2
			s-0.2-0.2-0.3-0.3c-0.1-0.1-0.1-0.3-0.1-0.4s0-0.3,0-0.5c-0.4,0.5-0.9,0.9-1.5,1.1c-0.6,0.3-1.2,0.4-1.8,0.4
			c-0.4,0-0.8-0.1-1.1-0.2c-0.4-0.1-0.7-0.3-1-0.5c-0.3-0.2-0.5-0.5-0.7-0.8s-0.2-0.7-0.2-1.1c0-1.5,1-2.4,3.1-2.7L269.6,183.8z
			 M271.4,184.3c-0.4,0.2-0.9,0.3-1.3,0.4c-0.5,0.1-0.9,0.1-1.4,0.1c-0.8,0.1-1.4,0.2-1.9,0.5c-0.4,0.3-0.7,0.8-0.7,1.4
			c0,0.3,0.1,0.5,0.2,0.7c0.1,0.2,0.3,0.4,0.4,0.5c0.2,0.1,0.4,0.2,0.6,0.3c0.2,0.1,0.5,0.1,0.7,0.1c0.4,0,0.8-0.1,1.2-0.2
			c0.4-0.1,0.7-0.3,1.1-0.5c0.3-0.2,0.6-0.5,0.7-0.8c0.2-0.3,0.3-0.7,0.3-1.2L271.4,184.3L271.4,184.3z"/>
		<path class="st0" d="M278.3,189.1c-0.1,0-0.3,0.1-0.5,0.1c-0.2,0.1-0.4,0.1-0.7,0.1c-0.5,0-0.9-0.1-1.2-0.4s-0.4-0.7-0.4-1.4v-6.6
			h-1.3V180h1.3v-2.5h1v2.5h1.7v0.9h-1.7v6.2c0,0.2,0,0.4,0,0.6s0,0.3,0.1,0.4s0.1,0.2,0.3,0.2c0.1,0,0.3,0.1,0.5,0.1
			c0.1,0,0.3,0,0.4,0s0.3-0.1,0.4-0.1v0.8C278.2,189.1,278.3,189.1,278.3,189.1z"/>
		<path class="st0" d="M282.6,182.2c0.5,0,1,0,1.4-0.1s0.8-0.2,1.1-0.4c0.3-0.2,0.5-0.4,0.7-0.7c0.2-0.3,0.3-0.7,0.3-1.2
			c0-0.4-0.1-0.7-0.2-1c-0.1-0.3-0.3-0.5-0.6-0.7c-0.2-0.2-0.5-0.3-0.8-0.4s-0.7-0.1-1-0.1c-0.4,0-0.7,0.1-1.1,0.2
			c-0.3,0.1-0.6,0.3-0.8,0.5c-0.2,0.2-0.4,0.5-0.5,0.8c-0.1,0.3-0.2,0.7-0.2,1.1h-1.1c0-0.6,0.1-1.1,0.3-1.5
			c0.2-0.4,0.5-0.9,0.9-1.2c0.4-0.3,0.8-0.6,1.3-0.7s1-0.1,1.5-0.1s0.9,0.1,1.4,0.2c0.4,0.1,0.8,0.3,1.1,0.6
			c0.3,0.2,0.6,0.6,0.7,0.9c0.2,0.4,0.3,0.8,0.3,1.3c0,0.6-0.1,1.2-0.4,1.6c-0.3,0.5-0.7,0.8-1.3,1.1c0.4,0.1,0.8,0.3,1.1,0.5
			s0.5,0.5,0.7,0.7c0.2,0.3,0.3,0.6,0.3,0.9c0.1,0.3,0.1,0.6,0.1,0.9c0,0.5-0.1,1-0.3,1.4c-0.2,0.4-0.4,0.8-0.8,1.2
			c-0.3,0.3-0.7,0.6-1.2,0.8c-0.5,0.2-1.1,0.3-1.7,0.3c-0.7,0-1.3-0.1-1.8-0.2s-1-0.3-1.3-0.6c-0.3-0.3-0.6-0.7-0.8-1.2
			c-0.2-0.5-0.3-1.1-0.4-1.8h1.1c0,0.9,0.3,1.6,0.8,2.1c0.6,0.5,1.3,0.7,2.2,0.7c0.4,0,0.9-0.1,1.2-0.2c0.4-0.2,0.7-0.4,1-0.6
			c0.3-0.3,0.5-0.5,0.6-0.9c0.1-0.3,0.2-0.7,0.2-1c0-0.5-0.1-0.9-0.3-1.2c-0.2-0.3-0.5-0.6-0.8-0.8c-0.4-0.2-0.8-0.3-1.2-0.4
			c-0.5-0.1-1-0.1-1.5,0v-0.8L282.6,182.2L282.6,182.2z"/>
		<path class="st0" d="M297.2,187.6l2.4-7.6h1.1l-2.9,9h-1.1l-2-7.6l0,0l-2,7.6h-1.3l-2.7-9h1l2.3,7.7l2.1-7.7h1.2L297.2,187.6z"/>
		<path class="st0" d="M305.7,189.3c-0.6,0-1.1-0.1-1.6-0.3c-0.5-0.2-0.9-0.5-1.3-0.9c-0.4-0.4-0.7-0.9-0.9-1.5
			c-0.2-0.6-0.3-1.3-0.3-2.1c0-0.7,0.1-1.3,0.3-1.8c0.2-0.6,0.4-1.1,0.8-1.5c0.3-0.4,0.8-0.8,1.3-1s1.1-0.4,1.8-0.4s1.3,0.1,1.8,0.4
			c0.5,0.2,1,0.6,1.3,1s0.6,0.9,0.8,1.5c0.2,0.6,0.3,1.2,0.3,1.9s-0.1,1.4-0.3,1.9c-0.2,0.6-0.5,1.1-0.8,1.5c-0.4,0.4-0.8,0.7-1.3,1
			C306.9,189.1,306.4,189.3,305.7,189.3z M308.8,184.5c0-0.5-0.1-1-0.2-1.5c-0.1-0.5-0.3-0.9-0.5-1.2c-0.2-0.3-0.6-0.6-0.9-0.8
			c-0.4-0.2-0.9-0.3-1.4-0.3s-1,0.1-1.4,0.3c-0.4,0.2-0.7,0.5-0.9,0.9c-0.2,0.4-0.4,0.8-0.5,1.2c-0.1,0.5-0.2,0.9-0.2,1.4
			c0,0.6,0.1,1.1,0.2,1.5c0.1,0.5,0.3,0.9,0.6,1.2c0.3,0.3,0.6,0.6,1,0.8c0.4,0.2,0.8,0.3,1.3,0.3s1-0.1,1.4-0.3s0.7-0.5,0.9-0.9
			s0.4-0.8,0.5-1.2C308.7,185.5,308.8,185,308.8,184.5z"/>
		<path class="st0" d="M312.9,189h-1v-9h1v1.7l0,0c0.3-0.7,0.7-1.2,1.1-1.5c0.5-0.3,1.1-0.4,1.8-0.4v1.1c-0.6,0-1.1,0.1-1.5,0.3
			c-0.4,0.2-0.7,0.5-0.9,0.8s-0.4,0.7-0.5,1.2s-0.1,0.9-0.1,1.4L312.9,189L312.9,189z"/>
		<path class="st0" d="M324.5,176.5h1V189h-1v-1.6l0,0c-0.2,0.3-0.3,0.6-0.6,0.8c-0.2,0.2-0.5,0.4-0.8,0.6s-0.6,0.3-0.9,0.3
			c-0.3,0.1-0.6,0.1-0.9,0.1c-0.7,0-1.3-0.1-1.9-0.4c-0.5-0.2-0.9-0.6-1.3-1c-0.3-0.4-0.6-0.9-0.7-1.5c-0.2-0.6-0.2-1.2-0.2-1.9
			c0-0.6,0.1-1.2,0.2-1.8c0.2-0.6,0.4-1.1,0.7-1.5c0.3-0.4,0.7-0.8,1.3-1c0.5-0.3,1.1-0.4,1.8-0.4c0.6,0,1.2,0.1,1.8,0.4
			s1,0.7,1.4,1.3L324.5,176.5L324.5,176.5L324.5,176.5z M324.5,184.5c0-0.5-0.1-1-0.2-1.4c-0.1-0.5-0.3-0.9-0.6-1.2s-0.6-0.6-1-0.8
			c-0.4-0.2-0.8-0.3-1.3-0.3s-1,0.1-1.4,0.3c-0.4,0.2-0.7,0.5-1,0.9c-0.3,0.4-0.4,0.8-0.6,1.3c-0.1,0.5-0.2,1-0.1,1.6
			c0,0.6,0.1,1.1,0.2,1.5c0.2,0.4,0.4,0.8,0.7,1.1c0.3,0.3,0.6,0.5,1,0.7c0.4,0.2,0.8,0.2,1.2,0.2c0.5,0,0.9-0.1,1.3-0.3
			c0.4-0.2,0.7-0.5,1-0.8c0.3-0.3,0.4-0.7,0.6-1.2C324.5,185.5,324.5,185,324.5,184.5z"/>
		<path class="st0" d="M328.8,186.2c0.2,0.8,0.5,1.3,0.9,1.6c0.4,0.3,1,0.5,1.8,0.5c0.4,0,0.7,0,1-0.1c0.3-0.1,0.5-0.2,0.7-0.4
			c0.2-0.2,0.3-0.3,0.4-0.5s0.1-0.4,0.1-0.6c0-0.4-0.1-0.8-0.4-1c-0.3-0.2-0.6-0.4-1.1-0.5c-0.4-0.1-0.9-0.2-1.4-0.3s-1-0.2-1.4-0.4
			s-0.8-0.4-1.1-0.7c-0.3-0.3-0.4-0.8-0.4-1.4c0-0.8,0.3-1.4,0.8-1.8c0.5-0.5,1.3-0.7,2.3-0.7s1.8,0.2,2.4,0.7
			c0.6,0.4,1,1.2,1.1,2.2h-1.1c-0.1-0.7-0.4-1.2-0.8-1.5c-0.4-0.3-1-0.4-1.6-0.4c-0.7,0-1.2,0.1-1.5,0.4c-0.3,0.3-0.5,0.7-0.5,1.1
			s0.1,0.7,0.4,0.9c0.3,0.2,0.6,0.4,1.1,0.5c0.4,0.1,0.9,0.3,1.4,0.4s1,0.3,1.4,0.4c0.4,0.2,0.8,0.4,1.1,0.8
			c0.3,0.3,0.4,0.8,0.4,1.4c0,0.4-0.1,0.8-0.3,1.1s-0.4,0.6-0.8,0.8c-0.3,0.2-0.7,0.4-1.2,0.5c-0.4,0.1-0.9,0.2-1.5,0.2
			c-0.5,0-1-0.1-1.4-0.2c-0.4-0.2-0.8-0.4-1.1-0.7s-0.5-0.6-0.7-1c-0.2-0.4-0.3-0.8-0.3-1.2L328.8,186.2L328.8,186.2L328.8,186.2z"
			/>
	</g>
</g>
<g id="JO8MZU_1_">
	<g>
		<path class="st0" d="M254.1,304.7c0.5,0,0.9,0,1.4,0c0-0.3,0-0.5,0-0.7c0-3.6,0-7.2,0-10.8c0-0.5-0.1-0.8-0.7-0.7
			c-0.3,0-0.5,0-0.8,0c0-0.1,0-0.1,0-0.2c0.1,0,0.2-0.1,0.3-0.1c2,0,4-0.1,6,0c2.3,0.2,4.3,1.1,5.4,3.4c1.1,2.3,1,6.4-2.2,8.2
			c-1.3,0.7-2.7,1-4.1,1.1c-1.7,0-3.4,0-5,0C254.3,304.9,254.2,304.9,254.1,304.7C254.1,304.9,254.1,304.8,254.1,304.7z M258,292.6
			c0,4,0,8.1,0,12.1c2.5,0.5,4.6-0.8,5.2-3.3c0.4-2,0.4-3.9,0-5.9c-0.2-1.1-0.9-2.1-2-2.6C260.2,292.5,259.1,292.6,258,292.6z"/>
		<path class="st0" d="M272.8,265c0,1.2,0,2.4,0,3.5h-0.1c-0.1-0.2-0.2-0.4-0.3-0.6c-0.3-0.9-0.6-1.7-1.3-2.4
			c-1.2-1-3.3-0.8-4.3,0.3c-0.8,0.9-0.7,2.2,0.3,2.9c0.5,0.4,1.1,0.6,1.7,0.9c0.8,0.3,1.6,0.6,2.4,0.9c3.7,1.4,3,5.4,1,7
			c-1.3,1-2.7,1.3-4.3,1.1c-0.5-0.1-1-0.2-1.5-0.4c-0.6-0.1-1.2-0.6-1.6,0.3c0-0.1-0.1-0.1-0.1-0.2c0-1.4,0-2.8,0-4.2h0.1
			c0.1,0.2,0.1,0.3,0.2,0.5c0.3,1.2,0.8,2.3,1.8,3.1c1.8,1.4,4.7,0.6,5.2-1.5c0.3-1.2-0.1-2.2-1.2-2.7c-0.8-0.3-1.6-0.6-2.3-0.8
			c-1-0.4-2.1-0.7-2.8-1.6c-1.8-2.2-0.7-5.4,2.1-6.2c1.1-0.3,2.1-0.2,3.2,0.1C271.6,265.2,272.2,265.7,272.8,265
			C272.7,264.9,272.8,265,272.8,265z"/>
		<path class="st0" d="M273.5,252c-0.5,0-1-0.1-1.5-0.1c0-0.1,0-0.1,0-0.2c1.2,0,2.3,0,3.5,0c0,0.1,0,0.1,0,0.2
			c-0.2,0-0.5,0.1-0.7,0.1c-0.3,0-0.5,0-0.9,0c0,4.2,0,8.4,0,12.5c-0.5,0.2-0.6-0.1-0.8-0.3c-2.4-3.5-4.8-7-7.2-10.5
			c-0.1-0.1-0.2-0.3-0.4-0.5c0,3.8,0,7.4,0,11.2c0.5,0,1,0,1.5,0c0,0.1,0,0.2,0,0.2c-1.2,0.1-2.3,0-3.5,0c0-0.1,0-0.1,0-0.2
			c0.5,0,1,0,1.5,0c0-4.1,0-8.2,0-12.3c-0.5,0-1-0.1-1.6-0.1c0-0.1,0-0.1,0-0.2c0.2,0,0.4-0.1,0.5-0.1c1,0,2.1,0,3.1,0
			c0.4,0,0.6,0.1,0.8,0.5c1.7,2.5,3.4,5,5.1,7.5c0.1,0.2,0.2,0.3,0.4,0.6C273.5,257.3,273.5,254.7,273.5,252z"/>
		<path class="st0" d="M308.1,275.6c0.7-1.6,1.3-3,1.9-4.5c-0.5,0-0.8-0.1-1.2-0.1c0-0.1,0-0.1,0-0.2c0.7,0,1.5,0,2.2,0
			c0,0.1,0,0.1,0,0.1c-0.7-0.1-0.9,0.4-1.1,0.9c-1.2,2.9-2.4,5.9-3.6,8.8c-0.1,0.3-0.3,0.7-0.5,1c-0.6,0.8-1.8,1-2.6,0.4
			c-0.4-0.3-0.6-1-0.3-1.4c0.2-0.4,0.7-0.5,1.1-0.4c0.5,0.1,0.7,0.4,0.6,0.9c0,0.2-0.1,0.3-0.1,0.5c0,0.4,0.2,0.6,0.5,0.4
			c0.2-0.1,0.5-0.3,0.6-0.6c0.5-1,0.9-2,1.3-3c0-0.1,0-0.3-0.1-0.4c-0.9-2.2-1.8-4.4-2.7-6.6c-0.1-0.3-0.3-0.4-0.6-0.4
			c-0.5,0-1,0-1.5,0c-0.3,0-0.5,0.1-0.5,0.4c0,1.7,0,3.4,0,5.2c0,0.4,0.1,0.8,0.5,0.9c0.5,0.2,0.9,0,1.2-0.4c0.2-0.3,0.3-0.6,0.5-1
			c0.1,0.2,0.1,0.2,0.1,0.3s-0.1,0.2-0.1,0.4c-0.4,0.9-1.4,1.3-2.7,1.1c-1-0.2-1.4-0.7-1.4-1.8c0-1.5,0-2.9,0-4.4c0-0.2,0-0.4,0-0.6
			c-0.4,0-0.7-0.1-1-0.1c0-0.1,0-0.1,0-0.2c0.3,0,0.6-0.1,1-0.1c0-0.6,0-1.3,0-1.9c0.7,0,1.3,0,2,0c0,0.6,0,1.2,0,1.9
			c1.9,0,3.7,0,5.5,0c0,0.1,0,0.1,0,0.2c-0.3,0-0.6,0.1-1,0.1C306.9,272.6,307.5,274.1,308.1,275.6z"/>
		<path class="st0" d="M294.5,264.2c0.4,0,0.7,0.1,1,0.1v0.1c-0.9,0-1.9,0-2.9,0c0-0.3,0-0.5,0-0.8h-0.1c-0.8,1.6-3.1,1.2-4.2,0
			c-1.5-1.7-1.3-4.4,0.5-5.7c0.6-0.5,1.3-0.7,2.1-0.6c0.7,0,1.3,0.4,1.7,1.1c0-0.9,0-1.7,0-2.6s0-1.8,0-2.7c-0.4,0-0.7-0.1-1-0.1
			v-0.1c1,0,1.9,0,3,0C294.5,256.6,294.5,260.4,294.5,264.2z M289.4,260.9c0.1,0.9,0.1,1.6,0.2,2.4c0.1,0.5,0.3,1,0.9,1.1
			c0.6,0.1,1.2-0.1,1.5-0.7c0.2-0.6,0.4-1.2,0.5-1.8c0.1-1.2,0.1-2.5-0.5-3.6c-0.3-0.6-0.8-0.8-1.4-0.7c-0.6,0.1-0.9,0.5-1,1
			C289.5,259.4,289.4,260.2,289.4,260.9z"/>
		<path class="st0" d="M274.2,275.9c0.1-1.3,0.3-2.6,0.9-3.8c0.6-1.1,1.6-1.6,2.8-1.6c1.3,0,2.4,0.6,2.9,1.8c1,2.3,0.9,4.6-0.2,6.9
			c-0.6,1.2-1.7,1.8-3,1.7c-1.4-0.1-2.4-0.9-2.9-2.2C274.5,277.7,274.4,276.8,274.2,275.9z M276.3,275.5c0.1,1.2,0.1,2.3,0.2,3.5
			c0.1,1.2,0.6,1.6,1.4,1.6c0.8,0,1.3-0.5,1.4-1.7c0.1-2,0.1-4,0.1-6c0-0.4-0.1-0.9-0.2-1.3c-0.2-0.6-0.6-0.9-1.2-0.9
			c-0.8,0-1.3,0.4-1.4,1.4C276.4,273.2,276.3,274.4,276.3,275.5z"/>
		<path class="st0" d="M256.2,291.1c0.4,0,0.9-0.1,1.4-0.1c0-4,0-8,0-12c-0.5,0-0.9-0.1-1.4-0.1c0-0.1,0-0.1,0-0.2
			c1.7,0,3.4,0,5.1,0v0.1c-0.2,0-0.4,0-0.7,0.1c-0.2,0-0.5,0-0.7,0c0,4,0,8,0,12.1c0.5,0,0.9,0.1,1.4,0.1c0,0.1,0,0.1,0,0.2
			c-1.7,0.1-3.4,0-5.1,0C256.2,291.3,256.2,291.2,256.2,291.1z"/>
		<path class="st0" d="M269.4,291c0.4,0,0.7,0.1,1,0.1c0,0.1,0,0.1,0,0.2c-1.3,0-2.6,0-3.9,0v-0.1c0.3,0,0.6-0.1,0.9-0.1
			c0-0.1,0-0.3,0-0.5c0-1.5,0-3,0-4.6c0-0.5,0-1-0.6-1.2s-1.1,0-1.5,0.4c-0.3,0.5-0.7,1-0.7,1.6c-0.1,1.4,0,2.8,0,4.3
			c0.3,0,0.6,0.1,0.9,0.1c0,0.1,0,0.1,0,0.2c-1.3,0-2.6,0-3.9,0v-0.1c0.3,0,0.6-0.1,1-0.1c0-2.1,0-4.2,0-6.3c-0.3,0-0.7-0.1-1-0.1
			c0-0.1,0-0.1,0-0.2c0.9,0,1.9,0,2.9,0c0,0.4,0,0.8,0,1.3c0.6-0.8,1.2-1.3,2.2-1.5c1.5-0.3,2.7,0.6,2.7,2.2c0,1.3,0,2.6,0,4
			C269.4,290.6,269.4,290.8,269.4,291z"/>
		<path class="st0" d="M317.1,290.7c0.4,0,0.7,0.1,1,0.1c0,0.1,0,0.1,0,0.2c-1.3,0-2.6,0-3.9,0c0-0.1,0-0.1,0-0.2
			c0.3,0,0.6-0.1,0.9-0.1c0-0.3,0-0.7,0-1c0-1.3,0-2.7,0-4c0-0.5-0.1-1-0.6-1.2s-1.1-0.1-1.5,0.4c-0.3,0.5-0.6,1-0.7,1.6
			c-0.1,0.4-0.1,0.9-0.1,1.3c0,1,0,1.9,0,2.9c0.3,0,0.6,0.1,0.9,0.1v0.1c-1.3,0-2.6,0-3.9,0v-0.1c0.3,0,0.6-0.1,1-0.1
			c0-2.1,0-4.2,0-6.3c-0.3,0-0.7-0.1-1-0.1c0-0.1,0-0.1,0-0.2c0.1,0,0.3-0.1,0.4-0.1c0.7,0,1.4,0,2.1,0c0.4,0,0.5,0.1,0.5,0.5
			c0,0.3,0,0.6,0,1c0.1-0.2,0.2-0.2,0.3-0.3c0.7-1.1,2-1.5,3.2-1.1c0.9,0.3,1.4,1.1,1.4,2.2c0,1.3,0,2.6,0,3.9
			C317.1,290.3,317.1,290.5,317.1,290.7z"/>
		<path class="st0" d="M292.5,291.3c-1.3,0-2.6,0-3.9,0v-0.1c0.1,0,0.2-0.1,0.2-0.1c0.6,0.1,0.7-0.2,0.7-0.8c0-1.4,0-2.9,0-4.3
			c0-0.5,0-1-0.6-1.2c-0.5-0.2-1.2,0-1.5,0.5c-0.3,0.5-0.6,1.1-0.7,1.7c-0.1,1.3,0,2.6,0,4c0.3,0,0.6,0.1,0.9,0.1v0.1
			c-1.3,0-2.6,0-3.9,0v-0.1c0.3,0,0.6-0.1,0.9-0.1c0-2.1,0-4.2,0-6.3c-0.3,0-0.6-0.1-0.9-0.1v-0.1c0.9,0,1.9,0,2.9,0
			c0,0.4,0,0.8,0,1.3c0.2-0.2,0.2-0.3,0.3-0.4c0.7-0.9,1.6-1.3,2.7-1.2c1.2,0.1,1.8,0.9,1.9,2.1c0,1.3,0,2.6,0,4
			c0,0.7,0,0.7,0.7,0.8C292.3,291.1,292.4,291.1,292.5,291.3L292.5,291.3L292.5,291.3z"/>
		<path class="st0" d="M276.4,266.4c1.2,0,2.3,0,3.4,0c0.5,0,0.9-0.4,1-0.9c0-0.2,0.1-0.3,0.3-0.5c0,0.9,0,1.8,0,2.7
			c-2.2,0-4.4,0-6.6,0l-0.1-0.1c0.3-0.3,0.6-0.6,0.9-0.9c0.7-0.7,1.4-1.3,2.1-2c1-1.1,1.5-2.4,1.5-4c0-0.8,0-1.5-0.1-2.3
			c-0.1-0.7-0.5-1-1.3-0.9c-0.8,0-1.1,0.3-1.2,1.1c-0.1,0.8,0,1.5-0.1,2.3c0,0.1,0,0.3-0.1,0.4c-0.2,0.2-0.5,0.6-0.7,0.6
			c-0.3,0-0.7-0.3-0.8-0.5c-0.5-0.9-0.1-2.8,0.7-3.4c1-0.8,3-1,4.2-0.4c1.2,0.7,1.7,2,1.2,3.4c-0.3,0.8-0.9,1.6-1.5,2.2
			c-0.9,1-1.9,2-2.9,2.9C276.5,266.3,276.5,266.3,276.4,266.4z"/>
		<path class="st0" d="M287.7,304.9c-2.2,0-3.9-1.7-3.9-3.7c0-2.1,1.8-3.8,3.9-3.8c2.1,0,3.9,1.7,3.9,3.8
			C291.6,303.3,289.9,304.9,287.7,304.9z M285.9,301.3c0.1,0.7,0.1,1.4,0.2,2c0.2,0.9,0.7,1.3,1.5,1.3c0.9,0,1.4-0.4,1.6-1.3
			c0.3-1.5,0.3-3,0-4.4c-0.2-0.9-0.7-1.3-1.6-1.3c-0.8,0-1.3,0.4-1.5,1.3C286,299.8,286,300.6,285.9,301.3z"/>
		<path class="st0" d="M309.3,287.8c0,2.1-1.8,3.7-3.9,3.7c-2.1,0-3.8-1.7-3.8-3.7c0-2.1,1.7-3.7,3.9-3.7
			C307.7,284.1,309.3,285.7,309.3,287.8z M307.2,287.8c-0.1-0.7-0.1-1.4-0.2-2c-0.2-0.9-0.7-1.4-1.5-1.4c-0.8,0-1.3,0.4-1.5,1.3
			c-0.3,1.4-0.3,2.8,0,4.3c0.2,0.9,0.7,1.3,1.5,1.3c0.8,0,1.4-0.5,1.5-1.4C307.1,289.1,307.1,288.4,307.2,287.8z"/>
		<path class="st0" d="M301.3,302.2c0.4,0.2,0.9,0.3,1.4,0.5c2.5,1.1,2,3.8,0.5,4.9c-1.1,0.9-2.4,1-3.8,0.7c-1-0.2-1.5-0.9-1.8-1.8
			c0-0.1,0-0.3,0-0.4h0.1c0.1,0.2,0.1,0.3,0.2,0.5c0.5,1.3,1.8,1.9,3.1,1.5c0.8-0.3,1.2-0.9,1.3-1.7c0.1-0.7,0.1-1.4,0.1-2.2
			c-0.1-1.7-1.3-2.4-2.9-1.7c-0.2,0.1-0.5,0.2-0.7,0.3c0-0.1-0.1-0.1-0.1-0.2c0.3-0.1,0.5-0.3,0.8-0.4c0.4-0.1,0.7-0.2,1.1-0.3
			c0.9-0.2,1.4-0.8,1.5-1.7c0.1-0.6,0.1-1.1,0-1.7c-0.1-0.9-1-1.3-1.8-0.9c-0.2,0.1-0.3,0.4-0.4,0.6c-0.1,0.2,0,0.4,0.1,0.6
			c0,0.4,0.1,0.8-0.3,0.9s-0.9,0.1-1.2-0.1c-0.2-0.1-0.3-0.7-0.2-1c0.2-0.4,0.4-0.8,0.8-1c1.3-0.7,2.7-0.7,4,0.1
			c1.3,0.8,1.4,2.5,0.1,3.3C302.7,301.6,302,301.8,301.3,302.2z"/>
		<path class="st0" d="M310.7,297.9c1.3,0,2.6,0,3.9,0c0,0.1,0,0.1,0,0.2c-0.3,0-0.6,0.1-1,0.1c0.6,1.5,1.2,3,1.9,4.6
			c0.7-1.6,1.3-3.1,1.9-4.6c-0.5,0-0.8-0.1-1.2-0.1c0-0.1,0-0.1,0-0.2c0.7,0,1.5,0,2.2,0c0,0.1,0,0.1,0,0.1c-0.6,0-0.8,0.4-1,0.9
			c-1.2,3-2.4,6-3.6,8.9c-0.1,0.3-0.3,0.6-0.5,0.9c-0.5,0.8-1.9,0.9-2.6,0.3c-0.4-0.4-0.5-1-0.3-1.4c0.3-0.4,0.7-0.5,1.1-0.4
			c0.5,0.1,0.7,0.5,0.6,0.9c0,0.1-0.1,0.3-0.1,0.4s0,0.4,0.1,0.4c0.1,0.1,0.3,0.1,0.4,0c0.2-0.2,0.5-0.3,0.6-0.6
			c0.5-1,0.9-1.9,1.3-2.9c0.1-0.1,0-0.4-0.1-0.5c-0.9-2.2-1.8-4.4-2.6-6.5c-0.1-0.3-0.3-0.4-0.6-0.4C311,298,310.8,298,310.7,297.9
			C310.7,298,310.7,298,310.7,297.9z"/>
		<path class="st0" d="M298.5,286.4c-0.4,0-0.7-0.1-1-0.1c0-0.1,0-0.1,0-0.2c1.3-0.1,2.4-0.5,3.1-1.7c0,3.2,0,6.5,0,9.7
			c0.4,0,0.8,0.1,1.1,0.1c0,0.1,0,0.1,0,0.2c-1.4,0-2.8,0-4.2,0c0-0.1,0-0.1,0-0.2c0.3,0,0.6-0.1,1-0.1
			C298.5,291.6,298.5,289,298.5,286.4z"/>
		<path class="st0" d="M283.7,287.3c-1.3,0-2.6,0-3.9,0c-0.7,0-0.7,0-0.7,0.7c0,0.5,0,1.1,0.1,1.6c0.1,0.8,0.5,1.5,1.4,1.7
			c1,0.2,1.8-0.1,2.4-0.9c0.2-0.3,0.3-0.6,0.5-0.9h0.1c0,0.2,0,0.3-0.1,0.5c-0.5,1-1.3,1.6-2.4,1.6c-2,0.1-3.7-0.9-4.1-3
			c-0.4-2,0.8-3.9,2.7-4.4c2-0.6,4,0.7,4,2.7C283.7,287,283.7,287.1,283.7,287.3z M279,287c0.5,0,0.8,0,1.1,0c1.5,0,1.5,0,1.4-1.5
			c-0.1-0.5-0.2-1-0.8-1.1s-1.2,0.2-1.4,0.8C279.2,285.7,279.1,286.3,279,287z"/>
		<path class="st0" d="M305.2,298.1c-0.4,0-0.7-0.1-1-0.1c0-0.1,0-0.1,0-0.2c0.1,0,0.3-0.1,0.4-0.1c0.6,0,1.2,0,1.8,0
			c0.5,0,0.7,0.1,0.7,0.7c0,0.1,0,0.2,0,0.5c0.2-0.3,0.3-0.4,0.4-0.6c0.5-0.6,1.2-0.9,2-0.7c0.8,0.2,1.2,0.8,1,1.6
			c-0.1,0.6-0.5,0.8-1.2,0.7c-0.6-0.1-0.8-0.4-0.7-1c0-0.3-0.1-0.6-0.1-0.8c-0.3,0.1-0.7,0.2-0.8,0.4c-0.3,0.4-0.4,0.9-0.6,1.3
			c-0.1,0.2,0,0.4,0,0.5c0,1.3,0,2.6,0,4c0.4,0,0.8,0.1,1.2,0.1c0,0.1,0,0.1,0,0.2c-1.2,0.1-2.3,0-3.6,0c0.6-0.2,0.4-0.6,0.4-1
			c0-1.7,0-3.3,0-5C305.2,298.5,305.2,298.3,305.2,298.1z"/>
		<path class="st0" d="M283.9,264.1c0.4,0,0.8,0.1,1.2,0.1c0,0.1,0,0.1,0,0.2c-1.4,0-2.7,0-4.1,0v-0.1c0.3,0,0.6-0.1,0.9-0.1
			c0-2.1,0-4.2,0-6.3c-0.3,0-0.6-0.1-0.9-0.1c0-0.1,0-0.1,0-0.2c0.9,0,1.9,0,2.8,0c0,0.3,0,0.6,0.1,1.1c0.2-0.3,0.3-0.4,0.4-0.6
			c0.5-0.7,1.3-0.9,2.1-0.7c0.6,0.2,0.9,0.6,1,1.2c0,0.9-0.7,1.4-1.6,1c-0.4-0.2-0.4-0.5-0.4-0.9c0-0.3-0.1-0.6-0.1-0.9
			c-0.3,0.2-0.7,0.3-0.9,0.5c-0.3,0.4-0.5,0.8-0.5,1.3C283.9,261.1,283.9,262.6,283.9,264.1z"/>
		<path class="st0" d="M298.8,273.7c-1.5,0-2.9,0-4.5,0c0,1.1-0.2,2.2,0.4,3.2c0.5,0.9,1.9,1.2,2.8,0.4c0.5-0.4,0.8-0.9,1.2-1.4
			c0,0.1,0,0.2,0,0.3c-0.3,0.8-0.9,1.4-1.7,1.6c-2.3,0.6-5-0.7-4.9-3.7c0.1-2.7,3.2-4.4,5.5-3C298.5,271.6,299,272.7,298.8,273.7z
			 M294.2,273.4c0.5,0,0.8,0,1.2,0c1.5,0,1.5,0,1.3-1.5c-0.1-0.7-0.3-1.1-0.9-1.1c-0.6-0.1-1.1,0.2-1.3,0.9
			C294.4,272.2,294.3,272.8,294.2,273.4z"/>
		<path class="st0" d="M293.7,284.6c-0.4,0-0.7-0.1-1-0.1c0-0.1,0-0.1,0-0.2c0.3,0,0.6-0.1,1-0.1c0-0.3,0-0.6,0-1c0-0.3,0-0.6,0-0.9
			c0.7,0,1.2,0,2,0c0,0.3,0,0.6,0,0.9c0,1,0,1,1,1c0.2,0,0.5,0,0.7,0c0,0.1,0,0.2,0,0.2c-0.3,0-0.6,0-0.8,0c-0.3,0-0.6,0-0.9,0
			c0,0.2,0,0.3,0,0.5c0,1.6,0,3.3,0,4.9c0,0.5,0,1,0.6,1.2c0.5,0.1,1-0.2,1.3-0.8c0.1-0.2,0.2-0.4,0.4-0.5c0,0.1,0.1,0.2,0,0.3
			c-0.2,0.7-0.6,1.2-1.3,1.3c-0.6,0.1-1.2,0.1-1.8,0c-0.8-0.1-1.2-0.7-1.2-1.5c0-1.6,0-3.1,0-4.7C293.7,285,293.7,284.8,293.7,284.6
			z"/>
		<path class="st0" d="M306.2,262.7c0,0.1,0,0.2,0,0.3c-0.2,0.6-0.6,1.1-1.2,1.4c-1.5,0.8-4,0.1-4.8-1.3c-0.8-1.3-0.8-2.7,0-4
			s2.1-1.9,3.7-1.8c0.5,0,1,0.2,1.4,0.4c0.5,0.2,0.8,0.7,0.9,1.3c0.1,0.7-0.3,1.1-1,1.1c-0.8,0-1.1-0.3-0.9-1.1v-0.1
			c0.1-0.4,0.3-0.9-0.3-1.2c-0.5-0.3-1.3-0.1-1.6,0.4c-0.2,0.2-0.4,0.5-0.4,0.8c-0.1,1.3-0.2,2.6,0,3.8c0.1,1.1,0.7,1.6,1.4,1.7
			c1.1,0.1,2-0.3,2.5-1.3C306,262.9,306.1,262.7,306.2,262.7C306.1,262.6,306.2,262.6,306.2,262.7z"/>
		<path class="st0" d="M288.6,275.9c0,0.1,0,0.3,0,0.4c-0.2,0.6-0.6,1.1-1.2,1.4c-1.5,0.8-3.9,0.1-4.8-1.3c-0.8-1.3-0.8-2.6,0-3.9
			s2.1-1.9,3.6-1.8c0.5,0,1,0.2,1.4,0.4c0.5,0.2,0.8,0.6,0.9,1.1c0.2,0.8-0.2,1.3-1.1,1.3c-0.8,0-1-0.3-0.9-1.1c0-0.1,0-0.1,0-0.2
			c0.1-0.4,0.3-0.9-0.3-1.1c-0.5-0.2-1.2-0.1-1.5,0.3c-0.3,0.4-0.5,0.8-0.5,1.2c-0.1,1.1-0.1,2.3,0,3.4c0.1,1.1,0.7,1.7,1.5,1.8
			c1.1,0.1,2-0.3,2.5-1.3c0.1-0.2,0.2-0.3,0.2-0.5C288.5,275.9,288.5,275.9,288.6,275.9z"/>
		<path class="st0" d="M283.6,302.8c0,0.2-0.1,0.3-0.1,0.5c-0.4,1.1-1.5,1.6-2.8,1.6c-2-0.1-3.5-1.4-3.7-3.2c-0.2-2,1.1-3.8,3.1-4.1
			c0.8-0.2,1.7-0.1,2.4,0.3c0.7,0.3,1.1,1,1,1.7c-0.1,0.6-0.5,0.9-1.3,0.8c-0.6-0.1-0.8-0.4-0.7-1c0-0.1,0-0.1,0.1-0.2
			c0.1-0.4,0.3-0.9-0.3-1.2c-0.5-0.3-1.2-0.1-1.6,0.3c-0.2,0.3-0.4,0.6-0.4,0.9c-0.1,1.3-0.1,2.5,0,3.8c0.1,1.1,0.7,1.6,1.5,1.8
			c1,0.1,1.9-0.4,2.4-1.3c0.1-0.2,0.2-0.4,0.3-0.5C283.4,302.8,283.5,302.8,283.6,302.8z"/>
		<path class="st0" d="M271.1,304.6c0-0.7,0-1.5,0-2.3c0.1,0,0.1,0,0.2,0c0.1,0.3,0.3,0.6,0.4,0.9c0.4,0.9,1.1,1.5,2.1,1.4
			c0.7,0,1.1-0.3,1.2-0.8c0.2-0.7,0-1.1-0.7-1.4c-0.5-0.3-1.1-0.4-1.6-0.7c-1.2-0.5-1.8-1.2-1.6-2.2c0.2-1.2,1.1-2,2.4-2.1
			c0.5,0,0.9,0.1,1.4,0.2c0.3,0,0.6,0.1,1,0.1c0,0.5,0,1.2,0,1.8h-0.1c-0.1-0.3-0.3-0.5-0.4-0.8c-0.5-1-1.4-1.4-2.3-1
			c-0.4,0.1-0.7,0.4-0.7,0.9c0,0.4,0.1,0.8,0.5,1c0.5,0.2,1,0.4,1.5,0.6c0.3,0.1,0.6,0.2,1,0.4c0.7,0.4,1.2,0.9,1.2,1.8
			s-0.4,1.5-1.1,2c-0.8,0.5-1.7,0.5-2.6,0.3c-0.2-0.1-0.4-0.2-0.6-0.2C271.9,304.5,271.5,304.6,271.1,304.6z"/>
		<path class="st0" d="M295.6,302.3c0.6-1.5,1.1-2.9,1.7-4.3c-0.4,0-0.8-0.1-1.1-0.1c0-0.1,0-0.1,0-0.2c0.7,0,1.4,0,2.2,0
			c0,0.1-0.1,0.2-0.1,0.2c-0.7-0.1-0.8,0.5-1,1c-0.7,1.9-1.5,3.7-2.2,5.6c-0.1,0.2-0.2,0.4-0.3,0.7c-0.1-0.3-0.2-0.4-0.3-0.6
			c-0.9-2-1.7-4-2.6-6c-0.2-0.4-0.4-0.8-0.9-0.7c-0.1,0-0.1-0.1-0.2-0.2c1.4,0,2.7,0,4.1,0c0,0.1,0,0.1,0,0.2
			c-0.3,0-0.7,0.1-1.1,0.1C294.4,299.4,295,300.8,295.6,302.3z"/>
		<path class="st0" d="M269.6,284.4c1.4,0,2.7,0,4.1,0v0.1c-0.3,0-0.7,0.1-1.1,0.1c0.6,1.4,1.2,2.8,1.9,4.4c0.6-1.5,1.1-2.9,1.7-4.4
			c-0.4,0-0.8,0-1.1-0.1c0-0.1,0-0.1,0-0.2c0.7-0.1,1.4-0.1,2.2,0c0,0.1,0,0.1,0,0.1c-0.7,0-0.9,0.6-1.1,1.1
			c-0.7,1.9-1.5,3.7-2.2,5.6c-0.1,0.2-0.2,0.4-0.3,0.7c-0.1-0.3-0.2-0.4-0.3-0.6c-0.9-2-1.8-4-2.6-6c-0.2-0.4-0.4-0.8-0.9-0.7
			c0,0-0.1,0-0.1-0.1C269.7,284.5,269.7,284.5,269.6,284.4z"/>
		<path class="st0" d="M291.3,277.4c0.4,0,0.7,0,1,0.1v0.1c-1.3,0-2.6,0-4,0v-0.1c0.3,0,0.6-0.1,1-0.1c0-0.3,0-0.6,0-1
			c0-1.6,0-3.1,0-4.7c0-0.6-0.1-0.9-0.7-0.8c-0.1,0-0.2,0-0.3-0.2c1,0,1.9,0,2.9,0C291.3,273,291.3,275.2,291.3,277.4z"/>
		<path class="st0" d="M298.8,264.2c0.4,0,0.7,0.1,1,0.1c0,0.1,0,0.1,0,0.2c-1.3,0-2.6,0-4,0v-0.1c0.3,0,0.6-0.1,1-0.1
			c0-2.1,0-4.2,0-6.3c-0.3,0-0.7-0.1-1-0.1c0-0.1,0-0.1,0-0.2c0.2,0,0.3-0.1,0.5-0.1c0.7,0,1.3,0,2,0c0.4,0,0.5,0.2,0.5,0.6
			c0,1.8,0,3.6,0,5.4C298.8,263.7,298.8,263.9,298.8,264.2z"/>
		<path class="st0" d="M269.7,304.4c0.4,0,0.7,0,1,0.1v0.1c-1.2,0-2.5,0-3.7,0v-0.1c0.2,0,0.4-0.1,0.6-0.1c0.3,0,0.4-0.1,0.4-0.4
			c0-1.8,0-3.6,0-5.4c0-0.3-0.1-0.4-0.4-0.4c-0.2,0-0.3,0-0.5,0v-0.1c0.9,0,1.8,0,2.7,0C269.7,300.1,269.7,302.2,269.7,304.4z"/>
		<path class="st0" d="M288.4,266.4c-1.8,0-3.6,0-5.4,0c-0.2,0-0.4-0.2-0.5-0.2c0.2-0.1,0.3-0.2,0.5-0.2c3.6,0,7.2,0,10.9,0
			c0.2,0,0.3,0.2,0.5,0.2c-0.2,0.1-0.3,0.2-0.5,0.2C292,266.4,290.2,266.4,288.4,266.4z"/>
		<path class="st0" d="M277,294.1c1.7,0,3.5,0,5.2,0c0.1,0,0.3,0.1,0.4,0.2c-0.1,0.1-0.3,0.2-0.4,0.2c-3.5,0-7,0-10.5,0
			c-0.1,0-0.3-0.1-0.4-0.2c0.1-0.1,0.3-0.2,0.4-0.2C273.5,294.1,275.3,294.1,277,294.1z"/>
		<path class="st0" d="M296.6,280.8c-1.5,0-3,0-4.6,0c-0.1,0-0.3-0.1-0.4-0.2c0.1-0.1,0.3-0.2,0.4-0.2c3.1,0,6.2,0,9.2,0
			c0.1,0,0.3,0.1,0.4,0.2c-0.1,0.1-0.3,0.2-0.4,0.2C299.7,280.8,298.1,280.8,296.6,280.8z"/>
		<path class="st0" d="M268.9,297c-0.6,0-1.1-0.5-1.1-1.1s0.5-1.1,1.1-1.1c0.6,0,1.1,0.5,1.1,1.1C269.9,296.5,269.4,297,268.9,297z"
			/>
		<path class="st0" d="M298.8,254.6c0,0.6-0.5,1.1-1,1.1c-0.6,0-1.1-0.5-1.1-1.1s0.5-1.1,1.1-1.1C298.4,253.6,298.8,254,298.8,254.6
			z"/>
		<path class="st0" d="M291.4,268.7c0,0.6-0.5,1.1-1.1,1.1c-0.6,0-1-0.5-1-1.1s0.5-1.1,1.1-1.1C290.9,267.6,291.4,268.1,291.4,268.7
			z"/>
		<path class="st0" d="M270.4,280.8c-1,0-2.1,0-3.1,0c-0.1,0-0.3-0.1-0.4-0.2c0.1-0.1,0.3-0.2,0.4-0.2c2.1,0,4.1,0,6.2,0
			c0.1,0,0.3,0.1,0.4,0.2c-0.1,0.1-0.3,0.2-0.4,0.2C272.5,280.8,271.4,280.8,270.4,280.8z"/>
		<path class="st0" d="M284.6,295.5c-0.2,0-0.4,0.2-0.6,0.1c-0.2,0-0.4-0.2-0.4-0.3s0.1-0.3,0.2-0.5c0-0.1,0.1-0.1,0.2-0.1
			c0.6-0.1,0.8-0.4,0.6-1c0.5,0,0.6,0.2,0.7,0.6c0,0.3,0,0.7,0,1c0,0.1,0.1,0.2,0.2,0.3c0.1-0.1,0.2-0.1,0.2-0.2c0-0.5,0-1,0-1.6
			c0.6-0.1,0.6,0,0.6,0.7c0,0.4,0,0.8,0,1.3C285.7,295.6,285.2,295.5,284.6,295.5c0-0.3,0-0.6,0-0.8c-0.1,0-0.1,0-0.2-0.1
			c-0.1,0.2-0.2,0.4-0.3,0.6C284.1,295.3,284.4,295.4,284.6,295.5z"/>
		<path class="st0" d="M286.3,280.2c0.6,0,1.1,0.5,1.1,1c0,0.6-0.5,1-1.1,1s-1.1-0.5-1.1-1.1C285.2,280.6,285.7,280.2,286.3,280.2z
			 M285.8,281.1c0,0.3,0,0.4,0,0.5c0.1,0.2,0.3,0.3,0.4,0.5c0.1-0.2,0.3-0.3,0.4-0.5c0.1-0.1,0-0.3,0-0.5c0-0.3,0.1-0.9-0.4-0.9
			C285.7,280.3,285.9,280.9,285.8,281.1z"/>
		<path class="st0" d="M285.6,255.6c0-1.1,0-2.1,0-3.2c0.2,0,0.3,0,0.6,0c0,1.1,0,2.1,0,3.2C286,255.6,285.9,255.6,285.6,255.6z"/>
		<path class="st0" d="M289,293.9c0.1-0.2,0.2-0.4,0.2-0.6c0-0.3,0-0.5,0-0.8c0.2,0,0.3,0,0.5,0c0,1.1,0,2.1,0,3.2
			c-0.2,0-0.5,0-0.8,0C289.3,295,289.3,294.4,289,293.9z"/>
		<path class="st0" d="M284.9,279c0,1.1,0,2.1,0,3.2c-0.2,0-0.4,0-0.6,0c0-0.8,0-1.6,0-2.3C284.4,279.5,284.5,279.1,284.9,279
			L284.9,279z"/>
		<path class="st0" d="M289.5,254.4c-0.3,0.4-1.1-0.4-1.2,0.4c-0.1,0.4,0.1,0.7,0.7,0.7c-0.8,0.1-1.2-0.2-1.3-0.8s0.4-1.1,0.9-1.2
			C289.1,253.6,289.5,253.9,289.5,254.4z M288.3,254.2c0.1,0.1,0.1,0.2,0.2,0.2c0.2-0.1,0.3-0.2,0.5-0.3c-0.1-0.1-0.2-0.3-0.3-0.4
			C288.5,253.9,288.4,254,288.3,254.2z"/>
		<path class="st0" d="M285.1,255.6c-0.7,0.1-0.8-0.1-0.8-0.7s0-1.2,0-1.8c0.2,0,0.3,0,0.5,0c0,0.2,0.1,0.5,0.1,0.6
			C284.8,254.1,284.9,255.4,285.1,255.6z"/>
		<path class="st0" d="M286.7,253.7c0.5-0.1,0.8,0,0.8,0.6c0,0.2,0,0.4,0,0.6s0,0.4,0,0.6c-0.2,0-0.4,0-0.6,0
			C286.9,255,287.2,254.3,286.7,253.7z"/>
		<path class="st0" d="M288.2,282.2c-0.2,0-0.4,0-0.6,0c0-0.6,0-1.2,0-1.9c0.6-0.1,0.6,0,0.6,0.5
			C288.1,281.3,288.2,281.7,288.2,282.2z"/>
		<path class="st0" d="M286.9,293.7c0.5,0,0.5,0,0.7,1.9c-0.1,0-0.2,0-0.3,0c-0.1,0-0.2,0-0.3,0C287,295,287,294.3,286.9,293.7z"/>
		<path class="st0" d="M289,293.8c-0.3-0.2-0.5,0-0.6,0.3c0,0.4,0,0.7,0,1.1c0,0.3,0.2,0.5,0.5,0.4c-0.5,0.2-0.8,0-1-0.4
			c-0.3-0.4-0.2-1,0.1-1.3C288.3,293.7,288.6,293.5,289,293.8z"/>
		<path class="st0" d="M288.5,280.2c0.2,0.1,0.4,0.1,0.6,0.2c0,0,0,0.4-0.1,0.4C288.5,281,288.7,280.4,288.5,280.2
			C288.4,280.3,288.4,280.3,288.5,280.2z"/>
		<path class="st0" d="M284.3,293.7c-0.1,0.2-0.2,0.4-0.3,0.6c-0.1-0.1-0.2-0.1-0.3-0.2c0.1-0.2,0.3-0.4,0.4-0.6
			C284.2,293.6,284.2,293.7,284.3,293.7z"/>
		<path class="st0" d="M284.9,279c0.2,0,0.5,0,0.7,0.1c0.1,0,0.1,0.2,0.1,0.4c0,0.1-0.2,0.2-0.2,0.1c-0.1-0.1-0.1-0.2-0.2-0.3
			S285,279.1,284.9,279L284.9,279z"/>
	</g>
</g>
<path class="st0" d="M685.1,177.9v12.7h-2.5v-5.2h-5.5v5.2h-2.5v-12.7h2.5v5.1h5.5v-5.1H685.1z"/>
<path class="st0" d="M569,179.9h-4.6v-2.4h11.1v2.4h-4"/>
<path class="st0" d="M587,190.3l-2.5-4.3c-0.1,0-0.1,0-0.1,0h-1.9v4.3H580v-12.7h4.4c3.1,0,5,1.7,5,4.2c0,1.7-0.9,3-2.4,3.6l2.9,4.8
	L587,190.3L587,190.3z M582.4,183.7h2.3c1.4,0,2.1-0.9,2.1-1.9s-0.7-1.9-2.1-1.9h-2.3V183.7z"/>
<path class="st0" d="M604.8,177.6l-4.9,6.9v5.8h-2.5v-5.8l-4.9-6.9h2.8l2.6,3.6c0.3,0.5,0.7,0.9,0.7,0.9l0,0c0,0,0.3-0.4,0.7-0.9
	l2.6-3.6H604.8z"/>
<path class="st0" d="M624.7,181.3c-0.7-0.9-1.9-1.5-3.2-1.5c-2.4,0-4,1.7-4,4.1c0,2.5,1.7,4.1,4,4.1c1.5,0,2.8-0.8,3.4-1.9l2.5,0.7
	c-1.1,2.3-3.3,3.7-6,3.7c-3.6,0-6.6-2.8-6.6-6.6s2.9-6.6,6.6-6.6c2.5,0,4.6,1.3,5.8,3.4L624.7,181.3z"/>
<path class="st0" d="M639.1,187.8h-5.5l-0.9,2.4H630l5.2-12.7h2.4l5.2,12.7h-2.7L639.1,187.8z M638.3,185.6l-1.3-3.2
	c-0.3-0.7-0.6-1.8-0.6-1.8l0,0c0,0-0.3,1.1-0.6,1.8l-1.3,3.2H638.3z"/>
<path class="st0" d="M667.7,181.3c-0.7-0.9-1.9-1.5-3.2-1.5c-2.4,0-4,1.7-4,4.1c0,2.5,1.7,4.1,4,4.1c1.5,0,2.8-0.8,3.4-1.9l2.5,0.7
	c-1.1,2.3-3.3,3.7-6,3.7c-3.6,0-6.6-2.8-6.6-6.6s2.9-6.6,6.6-6.6c2.5,0,4.6,1.3,5.8,3.4L667.7,181.3z"/>
<path class="st0" d="M571.6,181.6v8.7h-2.5v-8.7"/>
<path class="st0" d="M648.2,179.9h-4.6v-2.4h11.1v2.4h-4"/>
<path class="st0" d="M650.7,181.6v8.7h-2.5v-8.7"/>
<g>
	<path class="st0" d="M68.3,181.9c0,0-3.2-15.1-3.3-15.5c-0.1-0.4,0.1-0.5,0.1-0.5l0,0h-5.3l0,0c0.2,0.1,0.1,0.5,0.1,0.5
		s-3.4,14.9-3.5,15.4s-0.4,0.6-0.4,0.6s2.4,0,5,0c-0.1-0.1-0.1-0.5-0.1-0.5l0,0l0.3-2.2h2.5l0,0c0,0,0.3,1.8,0.3,2.2
		s-0.1,0.5-0.1,0.5s3,0,4.8,0C68.4,182.3,68.3,181.9,68.3,181.9L68.3,181.9L68.3,181.9L68.3,181.9z M61.6,176.7l0.8-5.3l0.8,5.3
		H61.6L61.6,176.7L61.6,176.7z"/>
	<path class="st0" d="M76.5,173.9c0,0,2.9-0.3,2.8-4.1c-0.1-4.1-5.2-3.9-5.2-3.9l0,0h-5.5l0,0c0.1,0.1,0.2,0.6,0.2,0.6
		s0,14.9,0,15.2c0,0.3-0.2,0.6-0.2,0.6s4.5,0,6.1,0s5.2-0.7,5.1-4.5C79.8,174,76.5,173.9,76.5,173.9L76.5,173.9L76.5,173.9
		L76.5,173.9z M75,170.8c0.1,1.8-1.6,1.7-1.7,1.7c0-1.6,0-3.2,0-3.2S74.9,169,75,170.8L75,170.8L75,170.8L75,170.8z M73.3,178.8
		v-3.4l0,0c0,0,1.9-0.3,1.9,1.7C75.2,179.2,73.3,178.8,73.3,178.8L73.3,178.8L73.3,178.8L73.3,178.8z"/>
	<path class="st0" d="M86,171.5c-0.9-0.7-1.3-2,0.3-2.1c1.7,0,2.8,1.1,2.8,1.1l0,0v-4.4l0,0c-0.1,0.1-0.3,0.1-0.6,0
		c-0.3-0.1-0.9-0.3-1.5-0.5c-2.1-0.4-3.7,0.1-4.7,0.8s-1.6,1.4-1.7,3.8c-0.1,2.3,0.9,3.3,2.2,4.6c1.6,1.2,2,1.6,2.4,2.1
		c0.5,0.5,0.5,1.6-1.1,1.7s-3.5-1.6-3.5-1.6s0,2.4,0,4.7c0.2-0.1,0.5,0,1.1,0.3c1.6,0.9,4.5,0.9,6.3-0.4c1.8-1.2,2.4-4.3,1.9-6.1
		C89.3,173.9,87.4,172.7,86,171.5L86,171.5L86,171.5L86,171.5z"/>
	<path class="st0" d="M96.5,165.6c0,0-6.1-0.9-6.1,8.6c0,9.4,6.1,8.6,6.1,8.6s6.1,0.5,6.1-8.6C102.6,164.9,96.5,165.6,96.5,165.6
		L96.5,165.6L96.5,165.6L96.5,165.6z M96.5,178.9c0,0-1.5,0.6-1.5-4.8c0-5.3,1.5-4.9,1.5-4.9s1.4-0.4,1.4,4.9
		C97.9,179.5,96.5,178.9,96.5,178.9L96.5,178.9L96.5,178.9L96.5,178.9z"/>
	<path class="st0" d="M108.2,178.5c0,0,0-11.6,0-12s0.1-0.6,0.1-0.6l0,0h-4.9l0,0c0.2,0.3,0.2,0.6,0.2,0.6s0,14.6,0,15.2
		s-0.2,0.7-0.2,0.7l0,0h8.1l0,0c0,0,0-3,0-4c-0.1,0.1-0.6,0.2-0.6,0.2l0,0L108.2,178.5L108.2,178.5L108.2,178.5z"/>
	<path class="st0" d="M118.9,166.6v11.2l0,0c0,0,0,1.2-1.2,1.2s-1.3-1.2-1.3-1.2s0-10.9,0-11.3c0-0.5,0.2-0.6,0.2-0.6l0,0h-4.8l0,0
		c0.1,0.1,0.2,0.6,0.2,0.6l0,0v11.3l0,0c0,0,0.1,4.9,5.6,4.9s5.6-5,5.6-5s0-11,0-11.3s0.1-0.5,0.1-0.5s-3.1,0-4.7,0
		C118.8,166.1,118.9,166.6,118.9,166.6L118.9,166.6L118.9,166.6L118.9,166.6z"/>
	<path class="st0" d="M123.9,169.9c0.2-0.2,0.6-0.1,0.6-0.1l0,0h2.1l0,0c0,0,0,11.5,0,12s-0.1,0.6-0.1,0.6s3.4,0,4.9,0
		c-0.2-0.2-0.2-0.6-0.2-0.6l0,0v-12l0,0c0,0,1.8,0,2.1,0c0.3,0,0.5,0.1,0.5,0.1l0,0v-4h-10L123.9,169.9L123.9,169.9L123.9,169.9z"/>
	<path class="st0" d="M136.2,165.6c-0.9,0-1.6,0.7-1.6,1.6s0.7,1.6,1.6,1.6s1.6-0.7,1.6-1.6C137.8,166.3,137.1,165.6,136.2,165.6
		L136.2,165.6L136.2,165.6L136.2,165.6z M136.2,168.5c-0.7,0-1.3-0.6-1.3-1.3c0-0.8,0.6-1.3,1.3-1.3s1.3,0.6,1.3,1.3
		C137.5,168,136.9,168.5,136.2,168.5L136.2,168.5L136.2,168.5L136.2,168.5z"/>
	<path class="st0" d="M136.9,166.8c0-0.4-0.2-0.5-0.6-0.5l0,0h-0.7v1.8h0.3v-0.8h0.3l0.5,0.8h0.3l-0.5-0.8l0,0
		C136.7,167.3,136.9,167.2,136.9,166.8L136.9,166.8L136.9,166.8L136.9,166.8z M135.9,167.1v-0.6h0.4l0,0c0.2,0,0.4,0,0.4,0.3
		s-0.2,0.3-0.4,0.3l0,0L135.9,167.1L135.9,167.1L135.9,167.1z"/>
	<path class="st0" d="M121.6,208c0,0,3,0,4.8,0c-0.2-0.1-0.3-0.5-0.3-0.5s-3.2-15.1-3.3-15.5c-0.1-0.4,0.1-0.5,0.1-0.5l0,0h-5.3l0,0
		c0.2,0.1,0.1,0.5,0.1,0.5s-3.4,14.9-3.5,15.4s-0.4,0.6-0.4,0.6s2.4,0,5,0c-0.1-0.1-0.1-0.5-0.1-0.5l0,0l0.3-2.2h2.5l0,0
		c0,0,0.3,1.8,0.3,2.2C121.7,208,121.6,208,121.6,208L121.6,208L121.6,208L121.6,208z M119.4,202.4l0.8-5.3l0.8,5.3H119.4
		L119.4,202.4L119.4,202.4z"/>
	<path class="st0" d="M82.3,191.2c0,0-6.1-0.9-6.1,8.6c0,9.4,6.1,8.6,6.1,8.6s6.1,0.5,6.1-8.6C88.4,190.6,82.3,191.2,82.3,191.2
		L82.3,191.2L82.3,191.2L82.3,191.2z M82.3,204.6c0,0-1.5,0.6-1.5-4.8c0-5.3,1.5-4.9,1.5-4.9s1.4-0.4,1.4,4.9S82.3,204.6,82.3,204.6
		L82.3,204.6L82.3,204.6L82.3,204.6z"/>
	<path class="st0" d="M94.2,191.6h-4.9l0,0c0.2,0.2,0.2,0.5,0.2,0.5s0,15.1,0,15.4s-0.1,0.6-0.1,0.6s0.5,0,5,0s5.8-4,5.8-4
		s1.5-3.6,0.1-8.2S94.2,191.6,94.2,191.6L94.2,191.6L94.2,191.6L94.2,191.6z M93.8,204.7v-9.8l0,0c0,0,2.3-0.3,2.3,4.9
		C96.1,204.9,93.8,204.7,93.8,204.7L93.8,204.7L93.8,204.7L93.8,204.7z"/>
	<path class="st0" d="M113.4,207.7l-3.2-8.4l0,0c0,0,3.1-6.8,3.3-7.1c0.2-0.3,0.4-0.6,0.4-0.6s-3,0-5.2,0c0.1,0.1,0.1,0.4,0.1,0.4
		l0,0l-2.4,6.3l0,0c0,0,0-5.9,0-6.3s0.2-0.5,0.2-0.5l0,0h-4.9l0,0c0.1,0.1,0.2,0.5,0.2,0.5s0,15,0,15.4s-0.2,0.6-0.2,0.6s3,0,4.9,0
		c-0.2-0.2-0.2-0.7-0.2-0.7l0,0v-6.9l0,0c0,0,2.1,6.6,2.2,6.9c0.1,0.3-0.1,0.6-0.1,0.6s3.8,0,5.2,0
		C113.5,208,113.4,207.7,113.4,207.7L113.4,207.7L113.4,207.7L113.4,207.7z"/>
	<path class="st0" d="M73.2,207.5c0.1-0.4,3.3-15.5,3.3-15.5s0.1-0.4,0.3-0.5c-1.8,0-4.8,0-4.8,0s0.1,0.1,0.1,0.5s-0.3,2.2-0.3,2.2
		l0,0l-1.2,8.3l-1.3-8.3L69,192l0,0c0,0,0-0.3,0.1-0.5c-2.6,0-5,0-5,0s0.3,0.1,0.4,0.6s3.5,15.4,3.5,15.4s0.1,0.4-0.1,0.5l0,0h5.3
		l0,0C73.3,208,73.1,207.9,73.2,207.5L73.2,207.5L73.2,207.5L73.2,207.5z"/>
	<path class="st0" d="M89.5,187.2c-2.1,1.6-3,2.3-3,2.3l0,0l2.5-4.7l0,0c0,0-0.1,0-1,0c-1.1,2-1.6,2.7-1.9,3.2
		c-0.3,0.4-0.5,0.9-1.2,1.2c-0.6,0.3-0.6-0.1-0.6-0.2s0.2-0.5,0.7-1.2c0.4-0.6,0.7-0.9,1-1.7s0-1.3-0.3-1.4s-0.8,0-1.3,0.5
		s-2.6,3.2-2.9,3.5s-0.4,0.3-0.8,0.5s-0.4-0.1-0.4-0.3c0-0.2,0.4-1,0.9-1.7c0.5-0.6,1.1-1.2,1.4-1.8c0.3-0.7-0.1-1-0.7-0.9
		s-0.7,0-0.7,0s0.4-0.6,0.6-0.9s0.3-0.7,0.1-0.8c-0.2-0.1-0.5,0.1-0.8,0.5s-0.3,0.9-0.4,1.2c-0.7,1.1-2,2.7-2.7,3.6
		c-0.7,0.8-1.2,1-1.5,1c-0.3-0.1-0.2-0.9,0.1-1.4c0.2-0.5,1.9-3.1,1.9-3.1l0,0h1l0.1-0.3h-1l1.4-2.4h-1l-1.5,2.5h-1.1l-0.1,0.3l0,0
		c0,0,0.5,0,1,0c-1.8,3.3-2.7,4-3,4.3c-0.4,0.3-0.6,0.4-0.9,0.3c-0.2-0.1-0.1-0.4,0.1-0.7s1.2-1.8,1.4-2.8c0.2-1-0.1-1.1-0.8-1.1
		c-0.6,0-1.5,1-1.8,1.2c0.1-1.7-0.9-1.4-1.7-0.6c-0.8,0.8-2.2,2.8-2.6,3.2c-0.4,0.4-0.8,0.7-1,0.6c-0.1,0-0.1-0.2,0.1-0.7
		s1.9-3.6,1.9-3.6s-0.1,0-0.9,0c-1.5,2.5-2.5,3.6-2.9,4c-0.4,0.3-0.7,0.5-0.9,0.4c-0.2-0.1,0-0.4,0.2-0.6s1.1-1.7,1.4-2.1
		s0.6-1.4,0.2-1.6c-0.5-0.2-1,0.1-1.6,0.5s-1.2,1.2-1.5,1.2c0.7-1.4,0.3-2,0-2c-0.3-0.1-0.8,0-1.7,0.6c-0.8,0.6-3,2.8-3.5,3.3
		c-0.6,0.4-3.3,2.1-4.7,0.8c-1.4-1.3,0.1-4.3,0.5-5.1c4.5-0.7,6.8-3.4,7.1-4.4c0.2-1-0.5-1.3-1-1.3c-4.2,0.6-6.7,4.3-7.4,5.3
		c-1.1,0-4.1-0.8-3.3-3.7c0.7-2.9,4.1-2.9,4.1-2.9s0,0,0-0.1c-2.8-0.5-5.2,1.8-4.8,4.1c0.4,2.3,2.5,2.7,3.8,3
		c-1.4,3.8-0.3,5.8,2,5.9s4.2-1.4,5-1.9c-0.1,0.2-0.2,1.7,0.8,1.7s2.5-2.2,2.8-2.6c0.3,0,0.3-0.1,0.6-0.3c0.3-0.2,1.4-1.2,1.7-1.3
		c0.2-0.2,0.6-0.4,0.8-0.3s0.1,0.3-0.4,1c-0.6,0.7-1.1,1.5-1.4,2c-0.2,0.5-0.3,1.3,0.4,1.5c0.7,0.2,2-1.4,2-1.4s-0.1,1.2,0.4,1.3
		c0.6,0.1,1.1-0.2,2.2-1.6s1.9-2.4,2.2-2.7c0.3-0.3,0.8-0.2,0.4,0.5s-2.1,3.8-2.1,3.8c0.1,0,0.3,0,1.1,0c1.4-2.4,2.5-3.9,3.2-4.3
		s0.5,0.1,0.2,0.5c-0.9,1.4-1.1,1.9-1.2,2.3s-0.3,1.4,0.6,1.5s1.5-0.8,2.2-1.5c0.3,2,1.4,1.4,2.1,0.9s2.7-3.3,3.4-4.3
		c1,0,0.8,0.3,0.5,0.7c-0.2,0.4-1.1,1.4-1.4,1.8c-0.3,0.3-1,1.5-0.1,2.2c0.9,0.6,2.1-1,2.9-2s1.4-2.1,2-2.3s0.5,0.1,0.4,0.4
		s-1.2,1.7-1.6,2.3c-0.4,0.6-0.5,1.5,0.1,1.7s1.6-0.3,1.6-0.3s0,0.1-0.5,0.9c-4.6,2.6-4.7,4.3-4.7,4.3s-0.3,1.5,1.4,0.9
		c2.6-1.2,4-4.3,4.5-5.3c1.5-1.1,3.4-2.7,3.4-2.7S89.6,187.3,89.5,187.2L89.5,187.2L89.5,187.2L89.5,187.2z M58.9,179
		c0.4-0.1,1.1-0.3,1.4,0c0.3,0.4,0,1-0.2,1.3s-2.7,3.1-6.2,3.3C53.9,183.6,55.7,180.4,58.9,179L58.9,179L58.9,179L58.9,179z
		 M62.6,186.6c-0.3-0.1-0.5-0.3-0.7-0.2c-0.2,0.2-0.1,0.5,0.3,0.7c-0.4,0.7-1.4,2.3-2.2,2.2c0,0-0.5-0.1-0.2-0.6
		c0.2-0.5,1.3-2.5,2.7-3.9c0.2-0.1,0.6-0.4,0.7,0.2C63.2,185.7,62.7,186.4,62.6,186.6L62.6,186.6L62.6,186.6L62.6,186.6z M81,195.2
		c-1.1-0.1,0.1-1.7,0.1-1.7s1.4-1.7,3.6-2.7C84.7,190.8,82.4,195.3,81,195.2L81,195.2L81,195.2L81,195.2z"/>
	<path class="st0" d="M102.3,181.1c-1.8,0.9-2.9,2.7-4,4.5c-0.4,0.3-1.2,0.7-1.5,0.9c-0.4,0.2-0.4,0.1-0.5,0c0.7-1.4,0.8-2,0.3-2.2
		s-1.2,0.2-2,0.6c-0.8,0.5-3.1,3.2-3.4,3.5s-1.1,1-1.1,1l0,0l0.1,0.2l0,0c0.8-0.6,2-1.6,2-1.6s-0.2,1.5,0.7,1.7
		c1.2,0.3,2.7-2,3.2-2.8c0.3,0.1,0.9-0.2,1.8-0.7c-0.5,1-1.5,3-2.2,4.5c-0.7,1.6-1,2.4-1.1,3.5c0,1.1,1.3,1.7,2.6-0.4
		c1.4-2.2,1.6-4.6,1.7-5.1c1.6-0.5,2-1.6,2-1.6s-0.1,0-0.2,0c-0.6,0.7-1.5,1.1-1.7,1.1c0-0.3,0-0.5-0.3-0.9
		c-0.1-0.1-0.2-0.2-0.2-0.2s0.2-0.5,0.4-1c0.4-0.8,0.4-0.5,2.1-1.8s2.1-2.8,2.1-2.8S103.4,180.6,102.3,181.1L102.3,181.1
		L102.3,181.1L102.3,181.1z M95.9,186.3c-0.3-0.2-0.5-0.3-0.7-0.1s0.1,0.5,0.4,0.7c-0.4,0.6-1.6,2.8-2.6,2.4c0,0-0.3-0.1-0.1-0.5
		c0.2-0.5,1.2-3.1,2.9-4.1C96,184.5,97.1,184.2,95.9,186.3L95.9,186.3L95.9,186.3L95.9,186.3z M96.5,194.1c-1.1,1.3-1.2,0.6-1.2,0.3
		c0-0.2,0.1-0.9,0.7-2.3c0.6-1.4,1.3-2.9,1.6-3.5l0,0l0.8,0.1l0,0C98.4,188.8,98.1,191.9,96.5,194.1L96.5,194.1L96.5,194.1
		L96.5,194.1z M98.5,188.3c-0.3,0-0.6-0.1-0.7-0.1l0,0l0.3-0.7l0,0C98.2,187.6,98.6,187.8,98.5,188.3L98.5,188.3L98.5,188.3
		L98.5,188.3z M102.6,181.7c-0.2,0.5-1.2,2.4-3.1,3.2c0,0,1-2.2,2.7-3.3C102.4,181.4,102.8,181.2,102.6,181.7L102.6,181.7
		L102.6,181.7L102.6,181.7z"/>
	<path class="st0" d="M111.1,182.9c0-0.3,1-1.3,1.3-1.6c0.3-0.3,0.7-1.2,0.1-1.3c-1.1-0.1-1.7,2.5-1.7,2.5l0,0l-2.2,2.4l0,0
		c0,0-0.9-1.3-2.7-1.1c-2.6,0.3-3.5,2-3.8,3.7c-0.2,1.7,1.3,3,1.3,3l0,0l-1.6,1.9h0.4l1.5-1.8l0,0c0,0,1.8,1.2,4.3,0
		c2.8-1.3,3-4,3.1-5C111.2,184.5,111.1,183.2,111.1,182.9L111.1,182.9L111.1,182.9L111.1,182.9z M112.3,180.4c0.5,0.1-0.7,1.4-1,1.6
		C111.3,182,111.8,180.3,112.3,180.4L112.3,180.4L112.3,180.4L112.3,180.4z M103.7,190.1c0,0-2.1-1.5-0.7-4.2
		c1.4-2.7,5.1-2.1,5.4-0.9C107,186.4,103.9,189.9,103.7,190.1L103.7,190.1L103.7,190.1L103.7,190.1z M109.5,187.6
		c-0.8,1.5-2.3,4.3-5.6,2.8c0,0,3.3-3.8,4.6-5c0.1,0.3,0.3,0.7-0.2,1.7c-0.1,0.2,0.1,0.4,0.3,0.1c0.2-0.3,0.5-0.9,0.2-2.1
		c1.3-1.5,1.6-1.7,1.9-2C110.5,184.4,110.3,186,109.5,187.6L109.5,187.6L109.5,187.6L109.5,187.6z"/>
	<path class="st0" d="M135.6,189.3c-0.4,0.2-0.4,0-0.4-0.2s1.2-1.9,1.4-2.2c0.2-0.3,0.8-1.4,0.5-2c-0.4-1-2.3,0.7-2.7,1.1
		c0.5-2.1-1-1.4-1.6-0.6c-0.6,0.7-2.7,3-2.7,3s-1,1.1-1.5,1c-0.8-0.3,0-1.7,0.3-2.1c1.7-0.4,2.9-1.4,2.8-2.1
		c-0.1-0.8-1.1-0.4-1.5-0.2c-2.2,1.3-2.6,2.8-2.8,3.6c-0.2,0.3-0.8,0.9-1.2,0.9c-0.5,0-0.3-0.7-0.2-1c0.2-0.3,4.1-7.6,4.1-7.6l0,0
		h-0.9l0,0c0,0-1.8,3.2-2.4,4.2c0-0.1-0.2-0.4-0.5-0.4c-1.3,0.1-2.2,1.1-3,2.1c-0.8,1-1.2,1.4-1.5,1.7c-0.3,0.3-1.4,1.4-2,1
		c-0.5-0.4,0.4-2,0.4-2s0.9-0.2,1.9-0.9c1.2-0.8,1-1.9,0.3-1.8c-1.7,0.3-2.4,1.5-3,2.3c-0.5-0.2-0.8-0.4-1-0.5
		c0.1-0.2,1.1-2.3,0.4-2.2c-0.8,0.2-0.9,1.6-0.9,2.4c-0.9,2.1-1.8,2.6-2.2,2.9c-0.4,0.2-0.6-0.1-0.6-0.3c0.2-1.1,2.1-4.3,2.1-4.3
		c-0.2,0-0.5,0-1,0c-1.7,3.5-3.2,4.5-3.4,4.6c-0.1,0.1-0.6,0.2-0.4-0.4c0.3-0.6,1.4-2.4,1.7-3c0-0.1,0.5-1.5-0.7-1.2
		c-1.2,0.3-2.1,1.9-2.1,1.9l0,0h0.2l0,0c0.8-1.1,1.1-1.2,1.5-1.5s0.5-0.1,0.5,0.2s-0.9,1.4-1.4,2.2c-0.5,0.8-0.6,2.1,0.2,2.1
		c0.8,0.1,1.4-0.7,2-1.2c0.1,0.7,0.5,1.6,1.5,1.1s2-2.4,2.4-3c0.3,0.2,0.4,0.3,1,0.6c-0.7,1.3-0.4,2.4,0.6,2.5s2.1-1.1,2.7-1.6
		c0,0.1,0,1.6,0.9,1.6c0.8,0,1.3-0.8,1.8-1.4c0.2,2.2,1.9,1,2.3,0.5c1,2.1,3.2-0.7,3.7-1.2s1.7-1.9,1.9-2.1c0.3-0.3,0.5-0.5,0.8-0.4
		s-0.1,0.7-0.6,1.4c-0.5,0.7-1.9,3-1.9,3s0.6,0,1.1,0c0.3-0.4,1.7-2.5,2.4-3.5c1.2-1.2,1.5-1.1,1.6-1c0.1,0.1,0.1,0.4-0.4,1
		s-1.3,1.7-1.5,2.1c-0.2,0.3-0.4,1.6,0.5,1.6c0.8,0,1.7-1.4,1.7-1.4s-0.1,0-0.2-0.1C136.5,188.4,136,189.1,135.6,189.3L135.6,189.3
		L135.6,189.3L135.6,189.3z M130.8,185.1c0.2-0.1,0.6-0.3,0.4,0.2c-0.2,0.4-0.8,1.3-2.2,1.5C129,186.8,129.5,185.8,130.8,185.1
		L130.8,185.1L130.8,185.1L130.8,185.1z M121.4,185.7c0.7-0.5,1.1-0.7,1.3-0.6s-0.5,1.4-2.3,1.7
		C120.4,186.8,120.7,186.2,121.4,185.7L121.4,185.7L121.4,185.7L121.4,185.7z M125.5,187.2c-0.6,0.9-1.6,2.3-2.2,2.1
		c0,0-0.3-0.2-0.2-0.7c0.2-0.5,1.2-2.5,2.5-3.6c0.3-0.2,0.7-0.4,0.6,0.2C126.2,185.9,126.1,186.3,125.5,187.2L125.5,187.2
		L125.5,187.2L125.5,187.2z"/>
</g>
<g>
	<path class="st0" d="M22.6,287.6c-1.1,0-2.5-0.5-2.6-0.9l-0.4-1.9c0-0.2,0-0.4,0-0.4c0-0.1,0.1-0.1,0.2-0.1c0.2,0,0.3,0.2,0.3,0.4
		v0.1c0.2,0.6,1,2.2,3.1,2.2c1.3,0,2.8-0.7,2.8-2.3c0-1.3-1.3-1.7-2.7-2.1c-1.6-0.5-3.4-1-3.4-3.1c0-2,1.7-2.9,3.4-2.9
		c1.4,0,2,0.3,2.3,0.5c0.1,0,0.2,0.1,0.2,0.1s0.1,0,0.1-0.1c0,0,0.1-0.1,0.2-0.1s0.2,0,0.2,0.3l0.2,2c0,0.1,0,0.2,0,0.2
		s-0.1,0.1-0.2,0.1c-0.2,0-0.3-0.3-0.4-0.5c-0.4-1.2-1.5-1.9-2.8-1.9c-1.2,0-2.4,0.6-2.4,1.9c0,1.2,1.2,1.6,2.6,2
		c1.7,0.5,3.5,1,3.5,3.3C27,285.9,25.8,287.6,22.6,287.6z"/>
	<path class="st0" d="M23.4,276.6c1.8,0,2.3,0.5,2.5,0.5c0.1,0,0.2-0.2,0.3-0.2s0.2,0,0.2,0.2l0.2,2c0,0.1,0,0.2-0.2,0.2
		s-0.3-0.3-0.3-0.5c-0.5-1.3-1.5-2-2.9-2c-1.2,0-2.5,0.6-2.5,2c0,2.8,6.1,1.2,6.1,5.3c0,1.3-0.9,3.2-4.3,3.2c-1.1,0-2.5-0.6-2.5-0.8
		l-0.4-1.9c-0.1-0.3,0-0.5,0.2-0.5s0.2,0.2,0.3,0.5c0.2,0.7,1.1,2.3,3.2,2.3c1.4,0,2.8-0.8,2.8-2.4c0-2.9-6.1-1.3-6.1-5.2
		C20,277.6,21.6,276.6,23.4,276.6 M23.4,276.5c-1.7,0-3.4,0.9-3.4,2.9c0,2.2,1.8,2.7,3.5,3.2c1.4,0.4,2.6,0.8,2.6,2
		c0,1.6-1.4,2.3-2.7,2.3c-2,0-2.9-1.6-3.1-2.2v-0.1c-0.1-0.2-0.1-0.4-0.4-0.4c-0.1,0-0.2,0-0.2,0.1c-0.1,0.1-0.1,0.3-0.1,0.5
		l0.4,1.9c0.1,0.4,1.5,0.9,2.6,0.9c3.2,0,4.4-1.8,4.4-3.3c0-2.4-1.9-2.9-3.6-3.4c-1.4-0.4-2.5-0.7-2.5-1.9c0-1.4,1.3-1.9,2.4-1.9
		c1.3,0,2.4,0.7,2.8,1.9c0.1,0.2,0.2,0.5,0.4,0.5c0.1,0,0.2,0,0.2-0.1c0.1-0.1,0.1-0.1,0.1-0.3l-0.2-2c0-0.3-0.2-0.3-0.3-0.3
		s-0.2,0.1-0.2,0.1L26,277c0,0-0.1,0-0.2-0.1C25.4,276.9,24.7,276.5,23.4,276.5L23.4,276.5z"/>
</g>
<g>
	<path class="st0" d="M30.4,287.5c-0.3,0-0.5,0-0.7,0s-0.4,0-0.6,0s-0.4,0-0.6,0s-0.4,0-0.6,0c-0.1,0-0.2-0.1-0.2-0.2
		c0-0.2,0.1-0.2,0.3-0.2c0.2-0.1,0.6-0.2,0.8-0.6l3.6-6.9c0.2-0.4,0.4-0.8,0.5-1c0.4-0.8,0.5-0.9,0.6-0.9c0.2,0,0.3,0.3,0.3,0.5
		l3.2,7c0.1,0.1,0.1,0.3,0.2,0.4c0.2,0.4,0.3,0.8,0.6,1.1c0.2,0.3,0.6,0.4,0.9,0.4c0.2,0,0.4,0.1,0.4,0.3c0,0.2-0.2,0.2-0.3,0.2
		c-0.3,0-0.6,0-0.9,0s-0.6,0-0.9,0c-0.2,0-0.4,0-0.6,0s-0.4,0-0.6,0c-0.1,0-0.4,0-0.4-0.2s0.2-0.2,0.4-0.3c0.2-0.1,0.5-0.1,0.5-0.4
		c0-0.2-0.2-0.6-0.3-1l-0.6-1.4c-0.2-0.3-0.2-0.5-0.6-0.5h-3.3c-0.3,0-0.5,0-0.7,0.3l-1,1.9c0,0.1-0.1,0.3-0.1,0.5
		c0,0.5,0.4,0.6,0.7,0.7c0.2,0,0.4,0.1,0.4,0.2C30.7,287.5,30.5,287.5,30.4,287.5L30.4,287.5z M33.1,279.5L33.1,279.5l-1.8,3.4
		c0,0.1,0,0.1,0,0.1s0,0,0.2,0h3c0.2,0,0.2,0,0.2,0s0-0.1,0-0.2L33.1,279.5C33.2,279.5,33.1,279.5,33.1,279.5z"/>
	<path class="st0" d="M33.5,277.6c0.2,0,0.3,0.4,0.3,0.5l3.1,7c0.2,0.5,0.4,1.1,0.8,1.5c0.5,0.6,1.3,0.3,1.3,0.7
		c0,0.1-0.1,0.1-0.2,0.1c-0.6,0-1.2-0.1-1.8-0.1c-0.4,0-0.8,0.1-1.2,0.1c-0.1,0-0.3,0-0.3-0.1c0-0.3,0.9-0.2,0.9-0.7
		c0-0.3-0.3-0.9-0.5-1.3l-0.5-1.1c-0.2-0.3-0.2-0.5-0.7-0.5h-3.3c-0.3,0-0.6,0-0.7,0.3l-1,1.9c0,0.1-0.1,0.3-0.1,0.5
		c0,0.9,1.1,0.5,1.1,0.9c0,0.2-0.1,0.2-0.3,0.2h-0.1c-0.4,0-0.8-0.1-1.3-0.1c-0.4,0-0.8,0.1-1.2,0.1c-0.1,0-0.1-0.1-0.1-0.1
		c0-0.3,0.7-0.1,1.1-0.8l3.6-6.9C33.3,277.8,33.3,277.6,33.5,277.6 M31.5,283.1h3c0.3,0,0.3-0.1,0.2-0.3l-1.5-3.3
		c0-0.1-0.1-0.1-0.1-0.1s-0.1,0-0.1,0.1l-1.7,3.3C31.2,283,31.3,283.1,31.5,283.1 M33.5,277.5c-0.2,0-0.3,0.1-0.7,1
		c-0.1,0.3-0.3,0.6-0.5,1l-3.6,6.9c-0.2,0.4-0.5,0.5-0.8,0.6c-0.2,0-0.3,0.1-0.3,0.3c0,0.1,0.1,0.2,0.2,0.2c0.2,0,0.4,0,0.6,0
		s0.4,0,0.6,0s0.4,0,0.6,0s0.4,0,0.6,0h0.1h0.1c0.1,0,0.4,0,0.4-0.3c0-0.2-0.2-0.3-0.4-0.3c-0.3-0.1-0.6-0.1-0.6-0.6
		c0-0.2,0.1-0.3,0.1-0.4l1-1.9c0.1-0.2,0.3-0.2,0.6-0.2h3.3c0.4,0,0.4,0.1,0.6,0.4l0.5,1.1c0,0.1,0.1,0.2,0.1,0.3
		c0.1,0.3,0.3,0.8,0.3,1s-0.2,0.3-0.5,0.4c-0.2,0.1-0.4,0.1-0.4,0.4c0,0.2,0.3,0.2,0.4,0.2c0.2,0,0.4,0,0.6,0s0.4,0,0.6,0
		c0.3,0,0.6,0,0.9,0s0.6,0,0.9,0c0.1,0,0.3,0,0.3-0.2s-0.2-0.3-0.5-0.3s-0.6-0.1-0.9-0.4c-0.2-0.3-0.4-0.7-0.6-1.1
		c-0.1-0.1-0.1-0.3-0.2-0.4l-3.1-7c0,0,0,0,0-0.1C33.8,277.8,33.7,277.5,33.5,277.5L33.5,277.5z M31.4,283
		C31.4,283,31.4,282.9,31.4,283l1.7-3.4c0,0,0,0,0-0.1l0,0l1.5,3.3c0,0.1,0,0.1,0,0.1l0,0c0,0,0,0-0.2,0L31.4,283L31.4,283L31.4,283
		z"/>
</g>
<g>
	<path class="st0" d="M42,287.5c-0.3,0-0.5,0-0.7,0s-0.4,0-0.6,0s-0.4,0-0.6,0s-0.4,0-0.6,0c-0.1,0-0.2-0.1-0.2-0.2
		c0-0.2,0.1-0.2,0.3-0.2c0.2-0.1,0.6-0.2,0.8-0.6l3.6-6.9c0.2-0.4,0.4-0.8,0.5-1c0.4-0.8,0.5-0.9,0.6-0.9c0.2,0,0.3,0.3,0.3,0.5
		l3.2,7c0.1,0.1,0.1,0.3,0.2,0.4c0.2,0.4,0.3,0.8,0.6,1.1c0.2,0.3,0.6,0.4,0.9,0.4c0.2,0,0.4,0.1,0.4,0.3c0,0.2-0.2,0.2-0.3,0.2
		c-0.3,0-0.6,0-0.9,0s-0.6,0-0.9,0c-0.2,0-0.4,0-0.6,0s-0.4,0-0.6,0c-0.1,0-0.4,0-0.4-0.2s0.2-0.2,0.4-0.3s0.5-0.1,0.5-0.4
		c0-0.2-0.2-0.6-0.3-1l-0.6-1.4c-0.2-0.3-0.2-0.5-0.6-0.5h-3.3c-0.3,0-0.5,0-0.7,0.3l-1,1.9c0,0.1-0.1,0.3-0.1,0.5
		c0,0.5,0.4,0.6,0.7,0.7c0.2,0,0.4,0.1,0.4,0.2C42.4,287.5,42.2,287.5,42,287.5L42,287.5z M44.8,279.5L44.8,279.5l-1.8,3.4
		c0,0.1,0,0.1,0,0.1s0,0,0.2,0h3c0.2,0,0.2,0,0.2,0s0-0.1,0-0.2L44.8,279.5C44.9,279.5,44.8,279.5,44.8,279.5z"/>
	<path class="st0" d="M45.2,277.6c0.2,0,0.3,0.4,0.3,0.5l3.1,7c0.2,0.5,0.4,1.1,0.8,1.5c0.5,0.6,1.3,0.3,1.3,0.7
		c0,0.1-0.1,0.1-0.2,0.1c-0.6,0-1.2-0.1-1.8-0.1c-0.4,0-0.8,0.1-1.2,0.1c-0.1,0-0.3,0-0.3-0.1c0-0.3,0.9-0.2,0.9-0.7
		c0-0.3-0.3-0.9-0.5-1.3l-0.5-1.1c-0.2-0.3-0.2-0.5-0.7-0.5h-3.3c-0.3,0-0.6,0-0.7,0.3l-1,1.9c0,0.1-0.1,0.3-0.1,0.5
		c0,0.9,1.1,0.5,1.1,0.9c0,0.2-0.1,0.2-0.3,0.2H42c-0.4,0-0.8-0.1-1.3-0.1c-0.4,0-0.8,0.1-1.2,0.1c-0.1,0-0.1-0.1-0.1-0.1
		c0-0.3,0.7-0.1,1.1-0.8l3.6-6.9C45,277.8,45,277.6,45.2,277.6 M43.2,283.1h3c0.3,0,0.3-0.1,0.2-0.3l-1.5-3.3c0-0.1-0.1-0.1-0.1-0.1
		s-0.1,0-0.1,0.1l-1.7,3.3C42.9,283,43,283.1,43.2,283.1 M45.2,277.5c-0.2,0-0.3,0.1-0.7,1c-0.1,0.3-0.3,0.6-0.5,1l-3.6,6.9
		c-0.2,0.4-0.5,0.5-0.8,0.6c-0.2,0-0.3,0.1-0.3,0.3c0,0.1,0.1,0.2,0.2,0.2c0.2,0,0.4,0,0.6,0s0.4,0,0.6,0s0.4,0,0.6,0s0.4,0,0.6,0
		H42h0.1c0.1,0,0.4,0,0.4-0.3c0-0.2-0.2-0.3-0.4-0.3c-0.3-0.1-0.6-0.1-0.6-0.6c0-0.2,0.1-0.3,0.1-0.4l1-1.9c0.1-0.2,0.3-0.2,0.6-0.2
		h3.3c0.3,0,0.4,0.1,0.6,0.4l0.5,1.1c0,0.1,0.1,0.2,0.1,0.3c0.1,0.3,0.3,0.8,0.3,1s-0.2,0.3-0.5,0.4c-0.2,0.1-0.4,0.1-0.4,0.4
		c0,0.2,0.3,0.2,0.4,0.2c0.2,0,0.4,0,0.6,0s0.4,0,0.6,0c0.3,0,0.6,0,0.9,0s0.6,0,0.9,0c0.1,0,0.3,0,0.3-0.2s-0.2-0.3-0.5-0.3
		s-0.6-0.1-0.9-0.4c-0.2-0.3-0.4-0.7-0.6-1.1c-0.1-0.1-0.1-0.3-0.2-0.4l-3.1-7c0,0,0,0,0-0.1C45.5,277.8,45.4,277.5,45.2,277.5
		L45.2,277.5z M43.1,283C43.1,283,43.1,282.9,43.1,283l1.7-3.4c0,0,0,0,0-0.1l0,0l1.5,3.3c0,0.1,0,0.1,0,0.1l0,0c0,0,0,0-0.2,0
		L43.1,283L43.1,283L43.1,283z"/>
</g>
<g>
	<path class="st0" d="M55.9,287.5c-0.2,0-0.4,0-0.6,0s-0.4,0-0.7,0c-1.4,0-1.8,0-2,0.1l0,0c-0.2,0-0.3-0.1-0.3-0.2
		c0-0.2,0.2-0.2,0.4-0.3c0.3-0.1,0.8-0.2,0.8-0.7v-7c0-0.4,0-0.6-0.1-0.6H51c-0.9,0-0.9,0.2-1.1,0.8v0.1c-0.1,0.2-0.1,0.3-0.3,0.3
		c-0.1,0-0.2-0.1-0.2-0.2l0.2-1.3c0-0.2,0-0.6,0.3-0.6c0.5,0,1,0,1.6,0c0.7,0,1.6,0,2.7,0c2,0,3.3,0,4,0c0.2,0,0.4,0,0.4,0
		c0.4,0,0.5,0.1,0.5,0.4l0.1,1.1c0,0.1,0,0.2,0,0.3c0,0-0.1,0.1-0.2,0.1c-0.3,0-0.3-0.2-0.3-0.4c0-0.3-0.1-0.7-1-0.7h-2.3
		c-0.2,0-0.3,0-0.4,0c0,0,0,0.2,0,0.4v7.1c0,0.7,0.4,0.8,0.8,0.8c0.2,0,0.4,0.1,0.4,0.3c0,0,0,0.1,0,0.2
		C56,287.5,56,287.5,55.9,287.5z"/>
	<path class="st0" d="M58.5,277.8c0.3,0,0.4,0.1,0.4,0.4l0.1,1.1c0,0.1,0,0.3-0.2,0.3c-0.6,0,0.3-1-1.3-1h-2.2c-0.1,0-0.2,0-0.2,0
		c-0.4,0-0.4,0-0.4,0.7v6.9c0,1.1,1.2,0.7,1.2,1.1c0,0,0,0.2-0.1,0.2c-0.4,0-0.8-0.1-1.2-0.1c-1.7,0-2,0.1-2.1,0.1s-0.2,0-0.2-0.2
		c0-0.3,1.2-0.2,1.2-1v-7c0-0.1,0.1-0.6-0.2-0.6h-2.4c-0.9,0-1,0.2-1.2,0.9c0,0.1-0.1,0.3-0.3,0.3c-0.1,0-0.2-0.1-0.2-0.2l0.2-1.3
		c0-0.2,0-0.5,0.3-0.5c1.2,0,2.3,0.1,4.3,0.1C56.8,277.9,58.2,277.8,58.5,277.8 M58.5,277.7c-0.1,0-0.2,0-0.4,0c-0.6,0-1.9,0-4,0
		c-1.1,0-1.9,0-2.7,0c-0.6,0-1.1,0-1.6,0c-0.3,0-0.4,0.4-0.4,0.6v0.1l-0.2,1.3c0,0.1,0.1,0.3,0.3,0.3c0.2,0,0.3-0.2,0.3-0.3
		c0,0,0,0,0-0.1v-0.1c0.2-0.7,0.3-0.8,1.1-0.8h2.4c0,0,0.1,0,0.1,0.5v0.1v7c0,0.4-0.4,0.5-0.7,0.7c-0.2,0.1-0.5,0.1-0.5,0.3
		s0.1,0.3,0.3,0.3c0,0,0,0,0.1,0c0.2,0,0.6-0.1,2-0.1c0.2,0,0.4,0,0.7,0c0.2,0,0.4,0,0.6,0c0.1,0,0.1,0,0.2-0.1s0.1-0.2,0.1-0.2
		c0-0.2-0.2-0.3-0.5-0.3c-0.4-0.1-0.7-0.1-0.7-0.8v-6.9V279c0-0.2,0-0.3,0-0.3h0.2h0.1h0.1h2.2c0.9,0,0.9,0.3,0.9,0.6
		c0,0.2,0,0.4,0.3,0.4c0.1,0,0.2,0,0.2-0.1c0.1-0.1,0.1-0.2,0.1-0.3l-0.1-1.1C59,277.9,58.9,277.7,58.5,277.7L58.5,277.7z"/>
</g>
<g>
	<path class="st0" d="M64.9,287.6c-3.1,0-5.3-2-5.3-4.8c0-2.9,2.3-5.1,5.5-5.1c2,0,3,0.6,3.6,0.8c0.2,0.1,0.4,0.2,0.5,0.2
		c0,0,0.1,0,0.1-0.1c0.1,0,0.1-0.1,0.2-0.1c0.2,0,0.2,0.2,0.3,1v0.2c0,0.2,0,0.4,0,0.5c0,0.3,0,0.5,0,0.6l-0.1,0.1
		c-0.2,0-0.3-0.2-0.3-0.4v-0.1c-1.1-1.6-2.2-2.3-3.9-2.3c-2.7,0-4.3,1.5-4.3,4.2c0,2.3,1.5,4.7,4.3,4.7c2.4,0,3.8-1.4,4-1.9
		c0-0.1,0.1-0.2,0.3-0.2c0.1,0,0.1,0,0.1,0.1l0,0v0.1l-0.3,1.4C69.4,286.6,68.2,287.6,64.9,287.6z"/>
	<path class="st0" d="M65.1,277.7c2.8,0,3.6,1,4,1c0.1,0,0.2-0.1,0.4-0.1c0.2,0,0.2,0.2,0.2,1.1c0,0.7,0.2,1.2-0.1,1.2
		c-0.2,0-0.3-0.4-0.3-0.4c-0.9-1.5-2-2.3-3.9-2.3c-2.9,0-4.3,1.8-4.3,4.3c0,2.4,1.5,4.7,4.4,4.7c2.4,0,3.8-1.4,4.1-2
		c0-0.1,0.1-0.2,0.2-0.2s0.2,0.1,0.1,0.1l-0.3,1.4c0,0.1-1.1,1.1-4.5,1.1c-3.1,0-5.3-1.9-5.3-4.7C59.6,280,61.9,277.7,65.1,277.7
		 M65.1,277.6c-3.1,0-5.5,2.2-5.5,5.2c0,2.8,2.2,4.8,5.4,4.8c3.3,0,4.5-1,4.6-1.1l0.3-1.4c0-0.1,0-0.1,0-0.2s-0.1-0.1-0.2-0.1
		s-0.3,0.1-0.3,0.2c-0.2,0.6-1.6,1.9-4,1.9c-2.8,0-4.3-2.3-4.3-4.6c0-2.7,1.5-4.2,4.2-4.2c1.7,0,2.8,0.7,3.9,2.3v0.1
		c0.1,0.2,0.2,0.4,0.4,0.4c0.1,0,0.1,0,0.2-0.1s0.1-0.3,0.1-0.7c0-0.1,0-0.3,0-0.5v-0.2c0-0.8-0.1-1-0.3-1c-0.1,0-0.2,0-0.3,0.1
		h-0.1c-0.1,0-0.2-0.1-0.4-0.2C68.1,278.2,67.1,277.6,65.1,277.6L65.1,277.6z"/>
</g>
<g>
	<path class="st0" d="M78,287.5c-0.1,0-0.1,0-0.2,0s-0.1-0.1-0.1-0.2c0-0.2,0.2-0.2,0.4-0.3c0.3-0.1,0.7-0.2,0.7-0.7V283v-0.1
		c0-0.1,0-0.1,0-0.1h-5.6c-0.1,0-0.1,0-0.1,0.2v3.4c0,0.5,0.5,0.6,0.9,0.7c0.3,0.1,0.5,0.1,0.5,0.3c0,0.1-0.1,0.2-0.3,0.2
		c-0.1,0-0.2,0-0.4,0c-0.4,0-1.1,0-1.6,0c-0.9,0-1.1,0-1.2,0.1l0,0c-0.2,0-0.3-0.1-0.3-0.2c0-0.2,0.2-0.2,0.4-0.3
		c0.3-0.1,0.8-0.2,0.8-1v-6.9c0-0.6-0.5-0.7-0.9-0.8c-0.2,0-0.4-0.1-0.4-0.2s0.1-0.2,0.3-0.2c0.3,0,0.6,0,0.8,0c0.3,0,0.5,0,0.8,0
		c0.2,0,0.5,0,0.7,0s0.5,0,0.7,0s0.3,0.1,0.3,0.2s-0.2,0.2-0.3,0.2c-0.3,0.1-0.8,0.2-0.8,0.8v2.9c0,0.2,0,0.2,0.2,0.2h5.5
		c0.1,0,0.1-0.2,0.1-0.3v-2.8c0-0.6-0.4-0.7-0.7-0.8c-0.2-0.1-0.4-0.1-0.4-0.3c0-0.1,0.1-0.2,0.3-0.2c0.3,0,0.7,0,1,0
		c0.2,0,0.5,0,0.6,0c0.3,0,0.5,0,0.7,0c0.1,0,0.2,0,0.4,0c0.3,0,0.5,0.1,0.5,0.3c0,0.1-0.1,0.2-0.3,0.2c-0.3,0.1-0.7,0.2-0.7,0.7
		v7.2c0,0.6,0.5,0.7,0.9,0.8c0.3,0.1,0.5,0.1,0.5,0.3c0,0.1-0.1,0.2-0.2,0.2c-0.2,0-0.4,0-0.6,0s-0.5,0-0.8,0c-0.6,0-1,0-1.3,0
		c-0.2,0-0.3,0-0.4,0L78,287.5L78,287.5z"/>
	<path class="st0" d="M80.6,277.8c0.4,0,0.4,0.1,0.4,0.2c0,0.2-1,0-1,0.9v7.2c0,1,1.4,0.7,1.4,1.1c0,0-0.1,0.2-0.2,0.2
		c-0.4,0-0.9-0.1-1.4-0.1c-1,0-1.4,0.1-1.7,0.1H78c-0.1,0-0.2,0-0.2-0.2c0-0.3,1-0.1,1-1v-3.3c0-0.2,0.1-0.3-0.1-0.3h-5.5
		c-0.2,0-0.2,0.1-0.2,0.2v3.4c0,0.9,1.4,0.6,1.4,1c0,0.1-0.1,0.1-0.2,0.1c-0.2,0-1.3-0.1-2.1-0.1c-1.1,0-1.2,0.1-1.3,0.1
		s-0.2-0.1-0.2-0.2c0-0.4,1.2,0.1,1.2-1.3v-6.9c0-1-1.3-0.7-1.3-1c0-0.1,0.1-0.1,0.2-0.1c0.6,0,1.1,0.1,1.7,0.1
		c0.5,0,0.9-0.1,1.4-0.1c0.3,0,0.3,0.1,0.3,0.1c0,0.3-1.1,0-1.1,1v2.9c0,0.2,0,0.2,0.2,0.2h5.5c0.1,0,0.1-0.3,0.1-0.4v-2.8
		c0-0.9-1.1-0.7-1.1-1c0-0.1,0-0.1,0.3-0.1c0.5,0,1.3,0.1,1.6,0.1C80.1,277.9,80.3,277.8,80.6,277.8 M80.6,277.7c-0.1,0-0.2,0-0.4,0
		s-0.4,0-0.7,0c-0.1,0-0.3,0-0.6,0c-0.3,0-0.7,0-1,0c-0.2,0-0.4,0-0.4,0.2s0.2,0.2,0.4,0.3c0.3,0.1,0.7,0.2,0.7,0.7v2.8l0,0
		c0,0.2,0,0.3,0,0.3h-5.5c-0.1,0-0.1,0-0.1,0v-0.1V279c0-0.6,0.4-0.7,0.7-0.8c0.2,0,0.4-0.1,0.4-0.3c0-0.1-0.1-0.2-0.4-0.2
		c-0.2,0-0.5,0-0.7,0s-0.5,0-0.7,0c-0.3,0-0.6,0-0.8,0c-0.3,0-0.6,0-0.8,0c-0.3,0-0.3,0.2-0.3,0.2c0,0.2,0.2,0.2,0.5,0.3
		c0.4,0.1,0.8,0.2,0.9,0.7v6.9c0,0.8-0.4,0.9-0.8,1c-0.2,0-0.4,0.1-0.4,0.3c0,0.3,0.2,0.3,0.3,0.3c0,0,0,0,0.1,0s0.4-0.1,1.2-0.1
		c0.5,0,1.2,0,1.6,0c0.2,0,0.4,0,0.4,0c0.2,0,0.3-0.1,0.3-0.2c0-0.2-0.3-0.3-0.6-0.4c-0.5-0.1-0.8-0.2-0.8-0.7v-3.4v-0.1l0,0
		c0,0,0,0,0.1,0h5.5l0,0v0.1v0.1v3.3c0,0.5-0.3,0.6-0.6,0.7c-0.2,0.1-0.4,0.1-0.4,0.3c0,0.1,0.1,0.3,0.3,0.3c0,0,0,0,0.1,0h0.1
		c0.1,0,0.2,0,0.4,0c0.3,0,0.7,0,1.3,0c0.3,0,0.5,0,0.8,0c0.2,0,0.4,0,0.6,0s0.3-0.2,0.3-0.3c0-0.2-0.2-0.3-0.5-0.3
		c-0.5-0.1-0.9-0.3-0.9-0.8v-7.2c0-0.5,0.4-0.6,0.7-0.7c0.2,0,0.3-0.1,0.3-0.2C81.1,277.8,81,277.7,80.6,277.7L80.6,277.7z"/>
</g>
<g>
	<path class="st0" d="M85.9,287.5c-0.1,0-0.3,0-0.6,0c-0.3,0-0.7,0-1.1,0c-0.6,0-1,0-1.2,0c-0.1,0-0.2,0-0.3,0
		c-0.3,0-0.4-0.1-0.4-0.3c0-0.2,0.2-0.2,0.4-0.3c0.3-0.1,0.8-0.2,0.8-1V279c0-0.6-0.5-0.7-0.8-0.8c-0.2,0-0.4-0.1-0.4-0.2
		s0.1-0.2,0.2-0.2c0.3,0,0.6,0,0.8,0c0.3,0,0.5,0,0.8,0c0.2,0,0.5,0,0.7,0s0.5,0,0.7,0s0.3,0,0.3,0.2s-0.2,0.2-0.4,0.2
		c-0.3,0.1-0.7,0.2-0.7,0.8v7.3c0,0.5,0.4,0.6,0.8,0.7c0.3,0.1,0.5,0.1,0.5,0.3C86.2,287.4,86.1,287.5,85.9,287.5z"/>
	<path class="st0" d="M85.6,277.8c0.2,0,0.3,0,0.3,0.1c0,0.3-1.1,0-1.1,1v7.3c0,0.9,1.3,0.6,1.3,1c0,0.1,0,0.1-0.3,0.1
		s-1-0.1-1.6-0.1c-0.9,0-1.2,0.1-1.4,0.1c-0.3,0-0.3-0.1-0.3-0.2c0-0.4,1.2,0.1,1.2-1.3v-6.9c0-1-1.2-0.7-1.2-1c0-0.1,0-0.1,0.2-0.1
		c0.6,0,1.1,0.1,1.7,0.1C84.7,277.9,85.2,277.8,85.6,277.8 M85.6,277.7c-0.2,0-0.5,0-0.7,0s-0.5,0-0.7,0c-0.3,0-0.6,0-0.8,0
		c-0.3,0-0.6,0-0.8,0c-0.2,0-0.3,0.1-0.3,0.2c0,0.2,0.2,0.2,0.4,0.3c0.3,0.1,0.8,0.2,0.8,0.7v6.9c0,0.8-0.4,0.9-0.8,1
		c-0.2,0-0.4,0.1-0.4,0.3c0,0.3,0.2,0.3,0.4,0.3c0.1,0,0.2,0,0.3,0c0.2,0,0.6,0,1.2,0c0.4,0,0.7,0,1.1,0c0.2,0,0.4,0,0.6,0
		s0.4,0,0.4-0.2s-0.3-0.3-0.5-0.4c-0.5-0.1-0.8-0.2-0.8-0.7v-7.3c0-0.6,0.4-0.7,0.7-0.7c0.2,0,0.4-0.1,0.4-0.3
		C86,277.7,85.8,277.7,85.6,277.7L85.6,277.7z"/>
</g>
<g>
	<path class="st0" d="M102.2,287.6c-1,0-1.7-0.6-2.4-1.2c-0.1-0.1-0.3-0.2-0.4-0.3c-1.1,1.1-2.2,1.5-3.7,1.5c-2.1,0-4.2-1.3-4.2-3.9
		c0-1.7,0.9-2.9,2.4-3.2c-0.3-0.3-0.7-0.9-0.7-1.7c0-1.4,1.3-2.1,2.5-2.1c0.8,0,1.3,0.3,1.5,0.4h0.1c0.1-0.1,0.2-0.1,0.3-0.1
		s0.1,0,0.1,0.1c0.1,0.1,0.1,0.2,0.1,0.4v1.5c0,0.1-0.1,0.2-0.2,0.2c-0.1,0-0.2-0.1-0.2-0.2c-0.4-0.8-1.1-1.6-2-1.6
		c-0.7,0-1.2,0.5-1.2,1.2c0,0.9,1.7,2.9,5.5,6.4c0.3-0.4,0.4-0.9,0.4-1.6c0-1.1-0.6-1.2-1-1.3c-0.2-0.1-0.4-0.1-0.4-0.3
		c0-0.2,0.2-0.2,0.3-0.2h0.1c0.3,0,0.7,0,0.9,0s0.3,0,0.4,0s0.2,0,0.3,0c0.2,0,0.4,0,0.7,0c0.1,0,0.3,0,0.3,0.2
		c0,0.1-0.1,0.2-0.2,0.2c-0.2,0.1-0.4,0.1-0.4,0.5c-0.1,0.9-0.2,1.9-0.7,2.8c0.1,0,0.3,0.2,0.5,0.4c0.6,0.6,1.6,1.4,2.1,1.4
		c0.2,0,0.3,0,0.4-0.1c0.1,0,0.1,0,0.2,0s0.2,0.1,0.2,0.2C103.5,287.4,102.6,287.6,102.2,287.6z M94,281c-1,0-1.6,1.2-1.6,2
		c0,1.9,1.8,3.6,3.8,3.6c1,0,2-0.3,2.7-1c-1.8-1.4-2.9-2.7-3.7-3.6C94.6,281.4,94.2,281,94,281z"/>
	<path class="st0" d="M95.7,276.8c1,0,1.5,0.4,1.6,0.4s0.1-0.1,0.3-0.1c0.2,0,0.2,0.3,0.2,0.4v1.4c0,0.1-0.1,0.1-0.2,0.1
		c-0.1,0-0.2-0.2-0.2-0.3c-0.4-0.8-1.1-1.6-2.1-1.6c-0.7,0-1.2,0.5-1.2,1.2c0,1,2.2,3.4,5.5,6.4c0.4-0.4,0.4-1,0.4-1.6
		c0-1.8-1.4-1.2-1.4-1.6c0-0.1,0.1-0.1,0.2-0.1h0.1c0.6,0,1.1,0.1,1.3,0.1c0.2,0,0.4-0.1,1-0.1c0.1,0,0.2,0,0.2,0.2
		s-0.6,0.1-0.6,0.7c-0.1,0.9-0.2,1.9-0.7,2.8c0.6,0.5,2,1.9,2.7,1.9c0.3,0,0.5-0.1,0.6-0.1s0.1,0.1,0.1,0.1c0,0.3-0.8,0.5-1.2,0.5
		c-1.1,0-2-0.9-2.8-1.5c-1.1,1-2.2,1.5-3.7,1.5c-2.2,0-4.1-1.5-4.1-3.8c0-1.6,0.8-2.9,2.4-3.2c-0.4-0.5-0.7-1.1-0.7-1.7
		C93.3,277.5,94.5,276.8,95.7,276.8 M96.2,286.7c1,0,2-0.3,2.7-1c-3.2-2.8-4.4-4.8-4.9-4.8c-0.9,0-1.6,1.2-1.6,2.1
		C92.4,285,94.3,286.7,96.2,286.7 M95.7,276.7c-1.2,0-2.5,0.7-2.5,2.1c0,0.7,0.3,1.2,0.6,1.7c-1.5,0.4-2.3,1.6-2.3,3.3
		c0,1.9,1.5,3.9,4.2,3.9c1.4,0,2.6-0.5,3.7-1.5c0.1,0.1,0.2,0.2,0.3,0.3c0.7,0.6,1.5,1.2,2.5,1.2c0.5,0,1.3-0.2,1.3-0.6
		c0-0.1-0.1-0.2-0.2-0.2s-0.1,0-0.2,0c-0.1,0-0.2,0-0.4,0c-0.5,0-1.4-0.9-2.1-1.4c-0.2-0.2-0.3-0.3-0.5-0.4c0.5-0.9,0.6-1.9,0.7-2.7
		c0-0.3,0.2-0.4,0.4-0.5c0.1,0,0.3-0.1,0.3-0.3c0-0.3-0.2-0.3-0.3-0.3c-0.3,0-0.5,0-0.7,0c-0.1,0-0.2,0-0.2,0c-0.1,0-0.2,0-0.4,0
		c-0.3,0-0.6,0-0.9,0l0,0h-0.1c-0.3,0-0.3,0.1-0.3,0.2c0,0.2,0.2,0.3,0.5,0.3c0.4,0.1,1,0.2,1,1.3c0,0.6-0.1,1.1-0.3,1.5
		c-3.6-3.4-5.4-5.4-5.4-6.3c0-0.6,0.5-1.1,1.1-1.1c0.9,0,1.6,0.8,2,1.5c0,0,0,0,0,0.1s0.1,0.3,0.3,0.3c0.1,0,0.3-0.1,0.3-0.2v-1.4
		l0,0c0-0.1,0-0.3-0.1-0.4c0,0-0.1-0.1-0.2-0.1c-0.1,0-0.2,0.1-0.2,0.1l0,0c0,0,0,0-0.1,0C97,276.9,96.5,276.7,95.7,276.7
		L95.7,276.7z M96.2,286.6c-2,0-3.8-1.7-3.8-3.6c0-0.8,0.6-2,1.5-2c0.2,0,0.6,0.5,1.2,1.1c0.7,0.8,1.9,2.1,3.6,3.6
		C98.1,286.2,97.1,286.6,96.2,286.6L96.2,286.6z"/>
</g>
<g>
	<path class="st0" d="M111,287.6c-1.1,0-2.5-0.6-2.6-0.9l-0.4-1.9c0-0.2,0-0.4,0-0.4s0.1-0.1,0.2-0.1c0.2,0,0.3,0.2,0.3,0.4v0.1
		c0.2,0.6,1,2.2,3.1,2.2c1.3,0,2.8-0.7,2.8-2.3c0-1.3-1.3-1.7-2.7-2.1c-1.6-0.5-3.4-1-3.4-3.1c0-2,1.7-2.9,3.4-2.9
		c1.4,0,2,0.3,2.3,0.5c0.1,0,0.2,0.1,0.2,0.1s0.1,0,0.1-0.1c0,0,0.1-0.1,0.2-0.1s0.2,0,0.2,0.3l0.2,2c0,0.1,0,0.2,0,0.2
		s-0.1,0.1-0.2,0.1c-0.2,0-0.3-0.3-0.4-0.5c-0.4-1.2-1.5-1.9-2.8-1.9c-1.2,0-2.4,0.6-2.4,1.9c0,1.2,1.2,1.6,2.6,2
		c1.7,0.5,3.5,1,3.5,3.3C115.4,285.9,114.2,287.6,111,287.6z"/>
	<path class="st0" d="M111.8,276.6c1.8,0,2.3,0.5,2.5,0.5c0.1,0,0.2-0.2,0.3-0.2c0.1,0,0.2,0,0.2,0.2l0.2,2c0,0.1,0,0.2-0.2,0.2
		s-0.3-0.3-0.3-0.5c-0.5-1.3-1.5-2-2.9-2c-1.2,0-2.5,0.6-2.5,2c0,2.8,6.1,1.2,6.1,5.3c0,1.3-0.9,3.2-4.3,3.2c-1.1,0-2.5-0.6-2.5-0.8
		l-0.4-1.9c-0.1-0.3,0-0.5,0.2-0.5c0.2,0,0.2,0.2,0.3,0.5c0.2,0.7,1.1,2.3,3.2,2.3c1.4,0,2.8-0.8,2.8-2.4c0-2.9-6.1-1.3-6.1-5.2
		C108.4,277.6,110,276.6,111.8,276.6 M111.8,276.5c-1.7,0-3.4,0.9-3.4,2.9c0,2.2,1.8,2.7,3.5,3.2c1.4,0.4,2.6,0.8,2.6,2
		c0,1.6-1.4,2.3-2.7,2.3c-2,0-2.9-1.6-3.1-2.2v-0.1c-0.1-0.2-0.1-0.4-0.4-0.4c-0.1,0-0.2,0-0.2,0.1c-0.1,0.1-0.1,0.3-0.1,0.5
		l0.4,1.9c0.1,0.4,1.5,0.9,2.6,0.9c3.2,0,4.4-1.8,4.4-3.3c0-2.4-1.9-2.9-3.6-3.4c-1.4-0.4-2.5-0.7-2.5-1.9c0-1.4,1.3-1.9,2.4-1.9
		c1.3,0,2.4,0.7,2.8,1.9c0.1,0.2,0.2,0.5,0.4,0.5c0.1,0,0.2,0,0.2-0.1c0.1-0.1,0.1-0.1,0.1-0.3l-0.2-2c0-0.3-0.2-0.3-0.3-0.3
		s-0.2,0.1-0.2,0.1l-0.1,0.1c0,0-0.1,0-0.2-0.1C113.8,276.9,113.1,276.5,111.8,276.5L111.8,276.5z"/>
</g>
<g>
	<path class="st0" d="M118.8,287.5c-0.3,0-0.5,0-0.7,0c-0.2,0-0.4,0-0.6,0s-0.4,0-0.6,0s-0.4,0-0.6,0c-0.1,0-0.2-0.1-0.2-0.2
		c0-0.2,0.1-0.2,0.3-0.2c0.2-0.1,0.6-0.2,0.8-0.6l3.6-6.9c0.2-0.4,0.4-0.8,0.5-1c0.4-0.8,0.5-0.9,0.6-0.9c0.2,0,0.3,0.3,0.3,0.5
		l3.2,7c0.1,0.1,0.1,0.3,0.2,0.4c0.2,0.4,0.3,0.8,0.6,1.1c0.2,0.3,0.6,0.4,0.9,0.4c0.2,0,0.4,0.1,0.4,0.3c0,0.2-0.2,0.2-0.3,0.2
		c-0.3,0-0.6,0-0.9,0c-0.3,0-0.6,0-0.9,0c-0.2,0-0.4,0-0.6,0c-0.2,0-0.4,0-0.6,0c-0.1,0-0.4,0-0.4-0.2s0.2-0.2,0.4-0.3
		s0.5-0.1,0.5-0.4c0-0.2-0.2-0.6-0.3-1l-0.6-1.4c-0.2-0.3-0.2-0.5-0.6-0.5h-3.3c-0.3,0-0.5,0-0.7,0.3l-1,1.9c0,0.1-0.1,0.3-0.1,0.5
		c0,0.5,0.4,0.6,0.7,0.7c0.2,0,0.4,0.1,0.4,0.2S118.9,287.5,118.8,287.5L118.8,287.5z M121.5,279.5L121.5,279.5l-1.8,3.4
		c0,0.1,0,0.1,0,0.1s0,0,0.2,0h3c0.2,0,0.2,0,0.2,0s0-0.1,0-0.2L121.5,279.5C121.6,279.5,121.5,279.5,121.5,279.5z"/>
	<path class="st0" d="M121.9,277.6c0.2,0,0.3,0.4,0.3,0.5l3.1,7c0.2,0.5,0.4,1.1,0.8,1.5c0.5,0.6,1.3,0.3,1.3,0.7
		c0,0.1-0.1,0.1-0.2,0.1c-0.6,0-1.2-0.1-1.8-0.1c-0.4,0-0.8,0.1-1.2,0.1c-0.1,0-0.3,0-0.3-0.1c0-0.3,0.9-0.2,0.9-0.7
		c0-0.3-0.3-0.9-0.5-1.3l-0.5-1.1c-0.2-0.3-0.2-0.5-0.7-0.5h-3.3c-0.3,0-0.6,0-0.7,0.3l-1,1.9c0,0.1-0.1,0.3-0.1,0.5
		c0,0.9,1.1,0.5,1.1,0.9c0,0.2-0.1,0.2-0.3,0.2h-0.1c-0.4,0-0.8-0.1-1.3-0.1c-0.4,0-0.8,0.1-1.2,0.1c-0.1,0-0.1-0.1-0.1-0.1
		c0-0.3,0.7-0.1,1.1-0.8l3.6-6.9C121.7,277.8,121.7,277.6,121.9,277.6 M119.9,283.1h3c0.3,0,0.3-0.1,0.2-0.3l-1.5-3.3
		c0-0.1-0.1-0.1-0.1-0.1s-0.1,0-0.1,0.1l-1.7,3.3C119.6,283,119.7,283.1,119.9,283.1 M121.9,277.5c-0.2,0-0.3,0.1-0.7,1
		c-0.1,0.3-0.3,0.6-0.5,1l-3.6,6.9c-0.2,0.4-0.5,0.5-0.8,0.6c-0.2,0-0.3,0.1-0.3,0.3c0,0.1,0.1,0.2,0.2,0.2c0.2,0,0.4,0,0.6,0
		s0.4,0,0.6,0s0.4,0,0.6,0s0.4,0,0.6,0h0.1h0.1c0.1,0,0.4,0,0.4-0.3c0-0.2-0.2-0.3-0.4-0.3c-0.3-0.1-0.6-0.1-0.6-0.6
		c0-0.2,0.1-0.3,0.1-0.4l1-1.9c0.1-0.2,0.3-0.2,0.6-0.2h3.3c0.4,0,0.4,0.1,0.6,0.4l0.5,1.1c0,0.1,0.1,0.2,0.1,0.3
		c0.1,0.3,0.3,0.8,0.3,1s-0.2,0.3-0.5,0.4c-0.2,0.1-0.4,0.1-0.4,0.4c0,0.2,0.3,0.2,0.4,0.2c0.2,0,0.4,0,0.6,0c0.2,0,0.4,0,0.6,0
		c0.3,0,0.6,0,0.9,0c0.3,0,0.6,0,0.9,0c0.1,0,0.3,0,0.3-0.2s-0.2-0.3-0.5-0.3c-0.3,0-0.6-0.1-0.9-0.4c-0.2-0.3-0.4-0.7-0.6-1.1
		c-0.1-0.1-0.1-0.3-0.2-0.4l-3.1-7c0,0,0,0,0-0.1C122.2,277.8,122.1,277.5,121.9,277.5L121.9,277.5z M119.8,283
		C119.8,283,119.8,282.9,119.8,283l1.7-3.4c0,0,0,0,0-0.1l0,0l1.5,3.3c0,0.1,0,0.1,0,0.1l0,0c0,0,0,0-0.2,0L119.8,283L119.8,283
		L119.8,283z"/>
</g>
<g>
	<path class="st0" d="M130.5,287.5c-0.3,0-0.5,0-0.7,0c-0.2,0-0.4,0-0.6,0s-0.4,0-0.6,0c-0.2,0-0.4,0-0.6,0c-0.1,0-0.2-0.1-0.2-0.2
		c0-0.2,0.1-0.2,0.3-0.2c0.2-0.1,0.6-0.2,0.8-0.6l3.6-6.9c0.2-0.4,0.4-0.8,0.5-1c0.4-0.8,0.5-0.9,0.6-0.9c0.2,0,0.3,0.3,0.3,0.5
		l3.2,7c0.1,0.1,0.1,0.3,0.2,0.4c0.2,0.4,0.3,0.8,0.6,1.1c0.2,0.3,0.6,0.4,0.9,0.4c0.2,0,0.4,0.1,0.4,0.3c0,0.2-0.2,0.2-0.3,0.2
		c-0.3,0-0.6,0-0.9,0c-0.3,0-0.6,0-0.9,0c-0.2,0-0.4,0-0.6,0c-0.2,0-0.4,0-0.6,0c-0.1,0-0.4,0-0.4-0.2s0.2-0.2,0.4-0.3
		s0.5-0.1,0.5-0.4c0-0.2-0.2-0.6-0.3-1l-0.6-1.4c-0.2-0.3-0.2-0.5-0.6-0.5h-3.3c-0.3,0-0.5,0-0.7,0.3l-1,1.9c0,0.1-0.1,0.3-0.1,0.5
		c0,0.5,0.4,0.6,0.7,0.7c0.2,0,0.4,0.1,0.4,0.2C130.8,287.5,130.6,287.5,130.5,287.5L130.5,287.5z M133.2,279.5L133.2,279.5
		l-1.8,3.4c0,0.1,0,0.1,0,0.1s0,0,0.2,0h3c0.2,0,0.2,0,0.2,0s0-0.1,0-0.2L133.2,279.5C133.3,279.5,133.2,279.5,133.2,279.5z"/>
	<path class="st0" d="M133.6,277.6c0.2,0,0.3,0.4,0.3,0.5l3.1,7c0.2,0.5,0.4,1.1,0.8,1.5c0.5,0.6,1.3,0.3,1.3,0.7
		c0,0.1-0.1,0.1-0.2,0.1c-0.6,0-1.2-0.1-1.8-0.1c-0.4,0-0.8,0.1-1.2,0.1c-0.1,0-0.3,0-0.3-0.1c0-0.3,0.9-0.2,0.9-0.7
		c0-0.3-0.3-0.9-0.5-1.3l-0.5-1.1c-0.2-0.3-0.2-0.5-0.7-0.5h-3.3c-0.3,0-0.6,0-0.7,0.3l-1,1.9c0,0.1-0.1,0.3-0.1,0.5
		c0,0.9,1.1,0.5,1.1,0.9c0,0.2-0.1,0.2-0.3,0.2h-0.1c-0.4,0-0.8-0.1-1.3-0.1c-0.4,0-0.8,0.1-1.2,0.1c-0.1,0-0.1-0.1-0.1-0.1
		c0-0.3,0.7-0.1,1.1-0.8l3.6-6.9C133.4,277.8,133.4,277.6,133.6,277.6 M131.6,283.1h3c0.3,0,0.3-0.1,0.2-0.3l-1.5-3.3
		c0-0.1-0.1-0.1-0.1-0.1s-0.1,0-0.1,0.1l-1.7,3.3C131.3,283,131.4,283.1,131.6,283.1 M133.6,277.5c-0.2,0-0.3,0.1-0.7,1
		c-0.1,0.3-0.3,0.6-0.5,1l-3.6,6.9c-0.2,0.4-0.5,0.5-0.8,0.6c-0.2,0-0.3,0.1-0.3,0.3c0,0.1,0.1,0.2,0.2,0.2c0.2,0,0.4,0,0.6,0
		s0.4,0,0.6,0c0.2,0,0.4,0,0.6,0s0.4,0,0.6,0h0.1h0.1c0.1,0,0.4,0,0.4-0.3c0-0.2-0.2-0.3-0.4-0.3c-0.3-0.1-0.6-0.1-0.6-0.6
		c0-0.2,0.1-0.3,0.1-0.4l1-1.9c0.1-0.2,0.3-0.2,0.6-0.2h3.3c0.4,0,0.4,0.1,0.6,0.4l0.5,1.1c0,0.1,0.1,0.2,0.1,0.3
		c0.1,0.3,0.3,0.8,0.3,1s-0.2,0.3-0.5,0.4c-0.2,0.1-0.4,0.1-0.4,0.4c0,0.2,0.3,0.2,0.4,0.2c0.2,0,0.4,0,0.6,0s0.4,0,0.6,0
		c0.3,0,0.6,0,0.9,0s0.6,0,0.9,0c0.1,0,0.3,0,0.3-0.2s-0.2-0.3-0.5-0.3c-0.3,0-0.6-0.1-0.9-0.4c-0.2-0.3-0.4-0.7-0.6-1.1
		c-0.1-0.1-0.1-0.3-0.2-0.4l-3.1-7c0,0,0,0,0-0.1C133.9,277.8,133.8,277.5,133.6,277.5L133.6,277.5z M131.5,283
		C131.5,283,131.5,282.9,131.5,283l1.7-3.4c0,0,0,0,0-0.1l0,0l1.5,3.3c0,0.1,0,0.1,0,0.1l0,0c0,0,0,0-0.2,0L131.5,283L131.5,283
		L131.5,283z"/>
</g>
<g>
	<path class="st0" d="M144.3,287.5c-0.2,0-0.4,0-0.6,0s-0.4,0-0.7,0c-1.4,0-1.8,0-2,0.1l0,0c-0.2,0-0.3-0.1-0.3-0.2
		c0-0.2,0.2-0.2,0.4-0.3c0.3-0.1,0.8-0.2,0.8-0.7v-7c0-0.4,0-0.6-0.1-0.6h-2.4c-0.9,0-0.9,0.2-1.1,0.8v0.1c-0.1,0.2-0.1,0.3-0.3,0.3
		c-0.1,0-0.2-0.1-0.2-0.2l0.2-1.3c0-0.2,0-0.6,0.3-0.6c0.5,0,1,0,1.6,0c0.7,0,1.6,0,2.7,0c2,0,3.3,0,4,0c0.2,0,0.4,0,0.4,0
		c0.4,0,0.5,0.1,0.5,0.4l0.1,1.1c0,0.1,0,0.2,0,0.3c0,0-0.1,0.1-0.2,0.1c-0.3,0-0.3-0.2-0.3-0.4c0-0.3-0.1-0.7-1-0.7h-2.3
		c-0.2,0-0.3,0-0.4,0c0,0,0,0.2,0,0.4v7.1c0,0.7,0.4,0.8,0.8,0.8c0.2,0,0.4,0.1,0.4,0.3c0,0,0,0.1,0,0.2
		C144.4,287.5,144.4,287.5,144.3,287.5z"/>
	<path class="st0" d="M146.9,277.8c0.3,0,0.4,0.1,0.4,0.4l0.1,1.1c0,0.1,0,0.3-0.2,0.3c-0.6,0,0.3-1-1.3-1h-2.2c-0.1,0-0.2,0-0.2,0
		c-0.4,0-0.4,0-0.4,0.7v6.9c0,1.1,1.2,0.7,1.2,1.1c0,0,0,0.2-0.1,0.2c-0.4,0-0.8-0.1-1.2-0.1c-1.7,0-2,0.1-2.1,0.1
		c-0.1,0-0.2,0-0.2-0.2c0-0.3,1.2-0.2,1.2-1v-7c0-0.1,0.1-0.6-0.2-0.6h-2.4c-0.9,0-1,0.2-1.2,0.9c0,0.1-0.1,0.3-0.3,0.3
		c-0.1,0-0.2-0.1-0.2-0.2l0.2-1.3c0-0.2,0-0.5,0.3-0.5c1.2,0,2.3,0.1,4.3,0.1C145.2,277.9,146.6,277.8,146.9,277.8 M146.9,277.7
		c-0.1,0-0.2,0-0.4,0c-0.6,0-1.9,0-4,0c-1.1,0-1.9,0-2.7,0c-0.6,0-1.1,0-1.6,0c-0.3,0-0.4,0.4-0.4,0.6v0.1l-0.2,1.3
		c0,0.1,0.1,0.3,0.3,0.3s0.3-0.2,0.3-0.3c0,0,0,0,0-0.1v-0.1c0.2-0.7,0.3-0.8,1.1-0.8h2.4c0,0,0.1,0,0.1,0.5c0,0,0,0,0,0.1v7
		c0,0.4-0.4,0.5-0.7,0.7c-0.2,0.1-0.5,0.1-0.5,0.3s0.1,0.3,0.3,0.3c0,0,0,0,0.1,0c0.2,0,0.6-0.1,2-0.1c0.2,0,0.4,0,0.7,0
		c0.2,0,0.4,0,0.6,0c0.1,0,0.1,0,0.2-0.1c0.1-0.1,0.1-0.2,0.1-0.2c0-0.2-0.2-0.3-0.5-0.3c-0.4-0.1-0.7-0.1-0.7-0.8v-6.9V279
		c0-0.2,0-0.3,0-0.3h0.2h0.1h0.1h2.2c0.9,0,0.9,0.3,0.9,0.6c0,0.2,0,0.4,0.3,0.4c0.1,0,0.2,0,0.2-0.1c0.1-0.1,0.1-0.2,0.1-0.3
		l-0.1-1.1C147.4,277.9,147.3,277.7,146.9,277.7L146.9,277.7z"/>
</g>
<g>
	<path class="st0" d="M153.3,287.6c-3.1,0-5.3-2-5.3-4.8c0-2.9,2.3-5.1,5.5-5.1c2,0,3,0.6,3.6,0.8c0.2,0.1,0.4,0.2,0.5,0.2
		c0,0,0.1,0,0.1-0.1c0.1,0,0.1-0.1,0.2-0.1c0.2,0,0.2,0.2,0.3,1v0.2c0,0.2,0,0.4,0,0.5c0,0.3,0,0.5,0,0.6l-0.1,0.1
		c-0.2,0-0.3-0.2-0.3-0.4v-0.1c-1.1-1.6-2.2-2.3-3.9-2.3c-2.7,0-4.3,1.5-4.3,4.2c0,2.3,1.5,4.7,4.3,4.7c2.4,0,3.8-1.4,4-1.9
		c0-0.1,0.1-0.2,0.3-0.2c0.1,0,0.1,0,0.1,0.1l0,0v0.1l-0.3,1.4C157.8,286.6,156.7,287.6,153.3,287.6z"/>
	<path class="st0" d="M153.5,277.7c2.8,0,3.6,1,4,1c0.1,0,0.2-0.1,0.4-0.1s0.2,0.2,0.2,1.1c0,0.7,0.2,1.2-0.1,1.2
		c-0.2,0-0.3-0.4-0.3-0.4c-0.9-1.5-2-2.3-3.9-2.3c-2.9,0-4.3,1.8-4.3,4.3c0,2.4,1.5,4.7,4.4,4.7c2.4,0,3.8-1.4,4.1-2
		c0-0.1,0.1-0.2,0.2-0.2s0.2,0.1,0.1,0.1l-0.3,1.4c0,0.1-1.1,1.1-4.5,1.1c-3.1,0-5.3-1.9-5.3-4.7C148,280,150.3,277.7,153.5,277.7
		 M153.5,277.6c-3.1,0-5.5,2.2-5.5,5.2c0,2.8,2.2,4.8,5.4,4.8c3.3,0,4.5-1,4.6-1.1l0.3-1.4c0-0.1,0-0.1,0-0.2s-0.1-0.1-0.2-0.1
		c-0.1,0-0.3,0.1-0.3,0.2c-0.2,0.6-1.6,1.9-4,1.9c-2.8,0-4.3-2.3-4.3-4.6c0-2.7,1.5-4.2,4.2-4.2c1.7,0,2.8,0.7,3.9,2.3v0.1
		c0.1,0.2,0.2,0.4,0.4,0.4c0.1,0,0.1,0,0.2-0.1s0.1-0.3,0.1-0.7c0-0.1,0-0.3,0-0.5v-0.2c0-0.8-0.1-1-0.3-1c-0.1,0-0.2,0-0.3,0.1
		h-0.1c-0.1,0-0.2-0.1-0.4-0.2C156.5,278.2,155.5,277.6,153.5,277.6L153.5,277.6z"/>
</g>
<g>
	<path class="st0" d="M166.4,287.5c-0.1,0-0.1,0-0.2,0s-0.1-0.1-0.1-0.2c0-0.2,0.2-0.2,0.4-0.3c0.3-0.1,0.7-0.2,0.7-0.7V283v-0.1
		c0-0.1,0-0.1,0-0.1h-5.6c-0.1,0-0.1,0-0.1,0.2v3.4c0,0.5,0.5,0.6,0.9,0.7c0.3,0.1,0.5,0.1,0.5,0.3c0,0.1-0.1,0.2-0.3,0.2
		c-0.1,0-0.2,0-0.4,0c-0.4,0-1.1,0-1.6,0c-0.9,0-1.1,0-1.2,0.1l0,0c-0.2,0-0.3-0.1-0.3-0.2c0-0.2,0.2-0.2,0.4-0.3
		c0.3-0.1,0.8-0.2,0.8-1v-6.9c0-0.6-0.5-0.7-0.9-0.8c-0.2,0-0.4-0.1-0.4-0.2s0.1-0.2,0.3-0.2c0.3,0,0.6,0,0.8,0c0.3,0,0.5,0,0.8,0
		c0.2,0,0.5,0,0.7,0c0.2,0,0.5,0,0.7,0c0.2,0,0.3,0.1,0.3,0.2s-0.2,0.2-0.3,0.2c-0.3,0.1-0.8,0.2-0.8,0.8v2.9c0,0.2,0,0.2,0.2,0.2
		h5.5c0.1,0,0.1-0.2,0.1-0.3v-2.8c0-0.6-0.4-0.7-0.7-0.8c-0.2-0.1-0.4-0.1-0.4-0.3c0-0.1,0.1-0.2,0.3-0.2c0.3,0,0.7,0,1,0
		c0.2,0,0.5,0,0.6,0c0.3,0,0.5,0,0.7,0c0.1,0,0.2,0,0.4,0c0.3,0,0.5,0.1,0.5,0.3c0,0.1-0.1,0.2-0.3,0.2c-0.3,0.1-0.7,0.2-0.7,0.7
		v7.2c0,0.6,0.5,0.7,0.9,0.8c0.3,0.1,0.5,0.1,0.5,0.3c0,0.1-0.1,0.2-0.2,0.2c-0.2,0-0.4,0-0.6,0c-0.2,0-0.5,0-0.8,0
		c-0.6,0-1,0-1.3,0c-0.2,0-0.3,0-0.4,0L166.4,287.5L166.4,287.5z"/>
	<path class="st0" d="M169,277.8c0.4,0,0.4,0.1,0.4,0.2c0,0.2-1,0-1,0.9v7.2c0,1,1.4,0.7,1.4,1.1c0,0-0.1,0.2-0.2,0.2
		c-0.4,0-0.9-0.1-1.4-0.1c-1,0-1.4,0.1-1.7,0.1h-0.1c-0.1,0-0.2,0-0.2-0.2c0-0.3,1.1-0.1,1.1-1v-3.3c0-0.2,0.1-0.3-0.1-0.3h-5.5
		c-0.2,0-0.2,0.1-0.2,0.2v3.4c0,0.9,1.4,0.6,1.4,1c0,0.1-0.1,0.1-0.2,0.1c-0.2,0-1.3-0.1-2.1-0.1c-1.1,0-1.2,0.1-1.3,0.1
		c-0.1,0-0.2-0.1-0.2-0.2c0-0.4,1.2,0.1,1.2-1.3v-6.9c0-1-1.3-0.7-1.3-1c0-0.1,0.1-0.1,0.2-0.1c0.6,0,1.1,0.1,1.7,0.1
		c0.5,0,0.9-0.1,1.4-0.1c0.3,0,0.3,0.1,0.3,0.1c0,0.3-1.1,0-1.1,1v2.9c0,0.2,0,0.2,0.2,0.2h5.5c0.2,0,0.1-0.3,0.1-0.4v-2.8
		c0-0.9-1.1-0.7-1.1-1c0-0.1,0-0.1,0.3-0.1c0.5,0,1.3,0.1,1.6,0.1C168.5,277.9,168.7,277.8,169,277.8 M169,277.7c-0.1,0-0.2,0-0.4,0
		c-0.2,0-0.4,0-0.7,0c-0.1,0-0.3,0-0.6,0c-0.3,0-0.7,0-1,0c-0.1,0-0.4,0-0.4,0.2s0.2,0.2,0.4,0.3c0.3,0.1,0.7,0.2,0.7,0.7v2.8l0,0
		c0,0.2,0,0.3,0,0.3h-5.5c-0.1,0-0.1,0-0.1,0v-0.1V279c0-0.6,0.4-0.7,0.7-0.8c0.2,0,0.4-0.1,0.4-0.3c0-0.1-0.1-0.2-0.4-0.2
		c-0.2,0-0.5,0-0.7,0s-0.5,0-0.7,0c-0.3,0-0.6,0-0.8,0c-0.3,0-0.6,0-0.8,0c-0.3,0-0.3,0.2-0.3,0.2c0,0.2,0.2,0.2,0.5,0.3
		c0.4,0.1,0.8,0.2,0.9,0.7v6.9c0,0.8-0.4,0.9-0.8,1c-0.2,0-0.4,0.1-0.4,0.3c0,0.3,0.2,0.3,0.3,0.3c0,0,0,0,0.1,0
		c0.1,0,0.4-0.1,1.2-0.1c0.5,0,1.2,0,1.6,0c0.2,0,0.4,0,0.5,0c0.2,0,0.3-0.1,0.3-0.2c0-0.2-0.3-0.3-0.6-0.4
		c-0.5-0.1-0.8-0.2-0.8-0.7v-3.4v-0.1l0,0c0,0,0,0,0.1,0h5.5l0,0v0.1v0.1v3.3c0,0.5-0.3,0.6-0.6,0.7c-0.2,0.1-0.4,0.1-0.4,0.3
		c0,0.1,0.1,0.3,0.3,0.3c0,0,0,0,0.1,0h0.1c0.1,0,0.2,0,0.4,0c0.3,0,0.7,0,1.3,0c0.3,0,0.5,0,0.8,0c0.2,0,0.4,0,0.6,0
		c0.2,0,0.3-0.2,0.3-0.3c0-0.2-0.2-0.3-0.5-0.3c-0.5-0.1-0.9-0.3-0.9-0.8v-7.2c0-0.5,0.4-0.6,0.7-0.7c0.2,0,0.3-0.1,0.3-0.2
		C169.6,277.8,169.4,277.7,169,277.7L169,277.7z"/>
</g>
<g>
	<path class="st0" d="M174.3,287.5c-0.1,0-0.3,0-0.6,0s-0.7,0-1.1,0c-0.6,0-1,0-1.2,0c-0.1,0-0.2,0-0.3,0c-0.3,0-0.4-0.1-0.4-0.3
		c0-0.2,0.2-0.2,0.4-0.3c0.3-0.1,0.8-0.2,0.8-1V279c0-0.6-0.5-0.7-0.8-0.8c-0.2,0-0.4-0.1-0.4-0.2s0.1-0.2,0.2-0.2
		c0.3,0,0.6,0,0.8,0c0.3,0,0.5,0,0.8,0c0.2,0,0.5,0,0.7,0s0.5,0,0.7,0s0.3,0,0.3,0.2s-0.2,0.2-0.4,0.2c-0.3,0.1-0.7,0.2-0.7,0.8v7.3
		c0,0.5,0.4,0.6,0.8,0.7c0.3,0.1,0.5,0.1,0.5,0.3C174.6,287.4,174.5,287.5,174.3,287.5z"/>
	<path class="st0" d="M174,277.8c0.2,0,0.3,0,0.3,0.1c0,0.3-1.1,0-1.1,1v7.3c0,0.9,1.3,0.6,1.3,1c0,0.1,0,0.1-0.3,0.1
		s-1-0.1-1.6-0.1c-0.9,0-1.2,0.1-1.4,0.1c-0.3,0-0.3-0.1-0.3-0.2c0-0.4,1.2,0.1,1.2-1.3v-6.9c0-1-1.2-0.7-1.2-1c0-0.1,0-0.1,0.2-0.1
		c0.6,0,1.1,0.1,1.7,0.1C173.1,277.9,173.6,277.8,174,277.8 M174,277.7c-0.2,0-0.5,0-0.7,0c-0.2,0-0.5,0-0.7,0c-0.3,0-0.6,0-0.8,0
		c-0.3,0-0.6,0-0.8,0s-0.3,0.1-0.3,0.2c0,0.2,0.2,0.2,0.4,0.3c0.3,0.1,0.8,0.2,0.8,0.7v6.9c0,0.8-0.4,0.9-0.8,1
		c-0.2,0-0.4,0.1-0.4,0.3c0,0.3,0.2,0.3,0.4,0.3c0.1,0,0.2,0,0.3,0c0.2,0,0.6,0,1.2,0c0.4,0,0.7,0,1.1,0c0.2,0,0.4,0,0.6,0
		c0.2,0,0.4,0,0.4-0.2s-0.3-0.3-0.5-0.4c-0.5-0.1-0.8-0.2-0.8-0.7v-7.3c0-0.6,0.4-0.7,0.7-0.7c0.2,0,0.4-0.1,0.4-0.3
		C174.4,277.7,174.2,277.7,174,277.7L174,277.7z"/>
</g>
<path class="st0" d="M409.4,168.5c-7.6,0-13.8,6.2-13.8,13.8s6.2,13.8,13.8,13.8s13.8-6.2,13.8-13.8S417.1,168.5,409.4,168.5z
	 M415.7,188.2c-0.2,0.4-0.7,0.5-1.1,0.3c-0.1,0-0.2-0.1-0.2-0.1c-1.5-0.9-3-1.4-4.7-1.7c-1-0.2-2.1-0.2-3.1-0.2
	c-1.3,0.1-2.7,0.2-4,0.5c-0.1,0-0.3,0.1-0.4,0.1c-0.4,0-0.7-0.3-0.8-0.7c-0.1-0.4,0.1-0.8,0.5-1c0.1,0,0.2-0.1,0.2-0.1
	c1.1-0.2,2.2-0.4,3.2-0.5c0.8,0.2,1.4,0.2,2,0.2c1.8,0,3.6,0.3,5.3,0.8c0.9,0.3,1.9,0.7,2.7,1.2c0.1,0,0.1,0.1,0.2,0.1
	C415.8,187.4,415.9,187.8,415.7,188.2z M417.3,184.6c-0.3,0.5-0.9,0.7-1.5,0.4c-0.3-0.2-0.6-0.3-0.9-0.5c-1.4-0.7-2.9-1.2-4.4-1.5
	c-1-0.3-2.2-0.4-3.5-0.4c-1.6,0-3.2,0.2-4.8,0.7c-0.3,0.1-0.5,0.1-0.8,0c-0.4-0.2-0.7-0.6-0.7-1c0-0.5,0.3-0.8,0.7-1
	c0.4-0.1,0.9-0.3,1.3-0.4c1.1-0.2,2.2-0.4,3.4-0.4c2.5-0.1,4.9,0.2,7.2,1c1.2,0.4,2.3,0.9,3.4,1.5c0.1,0,0.1,0.1,0.2,0.1
	C417.5,183.4,417.5,184.1,417.3,184.6z M417.6,180.6c-0.6-0.3-1.2-0.6-1.8-0.9c-1.3-0.5-2.6-0.8-3.9-1.1c-0.9-0.2-1.9-0.3-2.8-0.3
	c-1-0.1-2-0.1-2.9,0c-1.1,0.1-2.2,0.2-3.3,0.4c-0.4,0.1-0.8,0.2-1.2,0.3c-0.2,0.1-0.5,0.1-0.7,0c-0.5-0.2-0.9-0.6-0.9-1.2
	c0-0.5,0.3-1.1,0.9-1.2c0.4-0.1,0.8-0.2,1.2-0.3c1-0.2,2-0.4,3-0.5c1.1-0.1,2.1-0.1,3.2-0.1c2.6,0.1,5.2,0.5,7.7,1.3
	c1,0.4,2,0.8,2.9,1.3c0.3,0.2,0.6,0.5,0.6,0.8c-0.1,0.3-0.1,0.4-0.1,0.4C419.5,180.5,418.5,181.1,417.6,180.6z"/>
<g>
	<path class="st0" d="M429.3,187.9l1.7-2.1c1.2,1,2.4,1.6,3.9,1.6c1.2,0,1.9-0.5,1.9-1.3l0,0c0-0.7-0.5-1.1-2.7-1.7
		c-2.7-0.7-4.4-1.4-4.4-4.1l0,0c0-2.4,1.9-4.1,4.6-4.1c1.9,0,3.6,0.6,4.9,1.7l-1.5,2.2c-1.2-0.8-2.3-1.3-3.4-1.3s-1.7,0.5-1.7,1.2
		l0,0c0,0.9,0.6,1.2,2.9,1.8c2.7,0.7,4.2,1.7,4.2,4l0,0c0,2.7-2,4.2-4.9,4.2C432.9,190,430.9,189.3,429.3,187.9z"/>
	<path class="st0" d="M464.1,186.9v-5h-1.3v-2.3h1.3v-2.7h2.6v2.7h2.6v2.3h-2.6v4.6c0,0.8,0.5,1,1.2,1c0.5,0,1-0.2,1.4-0.4v2.2
		c-0.6,0.4-1.3,0.6-2.3,0.6C465.3,190,464.1,189.3,464.1,186.9z"/>
	<rect x="470.4" y="179.7" class="st0" width="2.6" height="10.2"/>
	<path class="st0" d="M477.9,179.7v-0.5c0-0.8,0.6-1.1,1.3-1.1c0.5,0,0.9,0.1,1.3,0.2V176c-0.5-0.2-1.2-0.3-2.1-0.3
		c-1,0-1.7,0.3-2.3,0.8s-0.9,1.4-0.9,2.5v0.6h-1.3v2.3h1.2v7.9h2.7v-7.9h2.1l3.2,7.8c-0.3,0.6-0.7,0.9-1.2,0.9c-0.4,0-1-0.2-1.3-0.4
		l-0.9,2c0.7,0.4,1.7,0.7,2.8,0.7c1.8,0,2.7-1.6,3-2.4l4.2-10.8H487l-2.4,6.9l-2.7-6.9h-1.4C480.5,179.7,477.9,179.7,477.9,179.7z"
		/>
	<circle class="st0" cx="471.7" cy="176.8" r="1.6"/>
	<g>
		<path class="st0" d="M489.9,181.2L489.9,181.2c0-0.9,0.7-1.6,1.6-1.6s1.6,0.7,1.6,1.6l0,0c0,0.9-0.7,1.6-1.6,1.6
			S489.9,182.1,489.9,181.2z M492.9,181.2L492.9,181.2c0-0.8-0.6-1.4-1.4-1.4s-1.4,0.6-1.4,1.4l0,0c0,0.8,0.6,1.4,1.4,1.4
			S492.9,182,492.9,181.2z M490.9,180.3h0.8c0.2,0,0.4,0.1,0.5,0.2s0.1,0.2,0.1,0.4l0,0c0,0.3-0.2,0.4-0.4,0.5l0.4,0.6h-0.4
			l-0.4-0.6h-0.3v0.6h-0.4v-1.7H490.9z M491.6,181.1c0.2,0,0.3-0.1,0.3-0.2l0,0c0-0.2-0.1-0.2-0.3-0.2h-0.4v0.5L491.6,181.1
			L491.6,181.1z"/>
	</g>
	<path class="st0" d="M457.3,179.4c-3.1,0-5.4,2.4-5.4,5.3l0,0c0,2.9,2.3,5.3,5.4,5.3s5.4-2.4,5.4-5.3l0,0
		C462.7,181.8,460.4,179.4,457.3,179.4z M457.3,187.8c-1.6,0-2.8-1.4-2.8-3c0-1.7,1.3-3,2.8-3c1.6,0,2.8,1.4,2.8,3
		S458.9,187.8,457.3,187.8z"/>
	<path class="st0" d="M446.6,179.4c-1.7,0-2.7,0.6-3.4,1.5v-1.4h-2.6v13.3h2.6v-4.3c0.7,0.8,1.6,1.5,3.1,1.5c2.4,0,4.8-1.9,4.8-5.3
		l0,0C451.2,181.3,448.9,179.4,446.6,179.4z M445.9,187.7c-1.5,0-2.7-1.3-2.7-3s1.2-3,2.7-3s2.7,1.3,2.7,3
		C448.6,186.4,447.4,187.7,445.9,187.7z"/>
</g>
<g>
	<path class="st0" d="M579.2,289.5v-5.7h-4.6v5.7h-3.2v-14.2h3.2v5.7h4.6v-5.7h3.2v14.2H579.2z"/>
	<path class="st0" d="M590.3,289.5l-0.2-0.7c-1.2,0.7-2.3,0.9-3,0.9c-1.9,0-2.7-1.4-2.7-3.2c0-2.1,1-2.9,3.1-2.9h2.2v-0.8
		c0-1.1-0.2-1.4-1.8-1.4c-0.9,0-1.8,0.1-2.8,0.3l-0.4-2.3c1-0.3,2.5-0.5,3.7-0.5c3.6,0,4.4,1.1,4.4,4v6.6H590.3z M589.8,285.7h-1.5
		c-0.7,0-0.9,0.2-0.9,0.7s0.2,0.8,0.8,0.8s1.1-0.1,1.6-0.4V285.7L589.8,285.7z"/>
	<path class="st0" d="M597.4,285.5c0,1.1,0.4,1.6,1.7,1.6c0.8,0,1.4-0.1,2.1-0.3l0.4,2.6c-1,0.2-1.8,0.3-2.5,0.3
		c-3.4,0-4.8-1.3-4.8-4.2v-2.4c0-3,1.4-4.2,4.8-4.2c0.7,0,1.5,0.1,2.5,0.3l-0.4,2.6c-0.6-0.1-1.5-0.3-2.1-0.3
		c-1.2,0-1.7,0.5-1.7,1.6V285.5z"/>
	<path class="st0" d="M603.2,289.5v-14.7l3.1-0.4v15.1H603.2z M609.4,279.1h3.3l-2.7,5.2l2.9,5.2h-3.3l-2.8-5.2L609.4,279.1z"/>
	<path class="st0" d="M617.2,281.6l-0.2,7.9h-3.1l0.6-14.2h3.2l3.4,9.1l3.4-9.1h3.2l0.6,14.2h-3.1l-0.2-7.9l-2.5,6.1h-2.9
		L617.2,281.6z"/>
	<path class="st0" d="M635.9,289.5l-0.2-0.7c-1.2,0.7-2.3,0.9-3,0.9c-1.9,0-2.7-1.4-2.7-3.2c0-2.1,1-2.9,3.1-2.9h2.2v-0.8
		c0-1.1-0.2-1.4-1.8-1.4c-0.9,0-1.8,0.1-2.8,0.3l-0.4-2.3c1-0.3,2.5-0.5,3.7-0.5c3.6,0,4.4,1.1,4.4,4v6.6H635.9z M635.4,285.7h-1.5
		c-0.7,0-0.9,0.2-0.9,0.7s0.2,0.8,0.8,0.8s1.1-0.1,1.6-0.4V285.7L635.4,285.7z"/>
	<path class="st0" d="M643.8,289.7c-1.1,0-2.8-0.3-3.8-0.6l0.5-2.3c0.9,0.3,2,0.5,3.1,0.5c0.9,0,1.1-0.3,1.1-0.9
		c0-0.7,0-0.7-1.7-1.2c-2.5-0.6-2.8-1.3-2.8-3.2c0-2.2,0.9-3.1,4-3.1c0.8,0,2.2,0.1,3.2,0.3l-0.3,2.4c-0.9-0.2-2.1-0.3-2.9-0.3
		c-0.9,0-1.1,0.2-1.1,0.7c0,0.6,0.1,0.7,1.3,1c3,0.7,3.2,1.3,3.2,3.4C647.7,288.5,646.8,289.7,643.8,289.7z"/>
	<path class="st0" d="M652.9,289.7c-2,0-3.1-0.7-3.1-2.7v-5.5h-1.4V279h1.4v-2.5l3.1-0.4v2.9h2.4l-0.2,2.5h-2.2v5
		c0,0.4,0.3,0.6,0.6,0.6s0.8,0,1.3-0.2l0.4,2.3C654.5,289.6,653.6,289.7,652.9,289.7z"/>
	<path class="st0" d="M659.3,285.4v0.3c0,1.2,0.5,1.5,1.9,1.5c1,0,2.2-0.2,3.2-0.4l0.4,2.3c-0.9,0.3-2.5,0.7-3.9,0.7
		c-3.4,0-4.7-1.7-4.7-4.2v-2.4c0-2.2,1-4.2,4.5-4.2s4.2,2.1,4.2,4.3v2.2L659.3,285.4L659.3,285.4z M662,282.6c0-0.7-0.2-1.3-1.3-1.3
		s-1.4,0.6-1.4,1.3v0.4h2.7L662,282.6L662,282.6z"/>
	<path class="st0" d="M669.8,283.1v6.3h-3.1V279h2.6l0.2,1c0.6-0.4,2-1,2.8-1.2l0.3,2.9C671.6,282.1,670.4,282.7,669.8,283.1z"/>
	<path class="st0" d="M676.9,289.7c-1.1,0-2.8-0.3-3.8-0.6l0.5-2.3c0.9,0.3,2,0.5,3.1,0.5c0.9,0,1.1-0.3,1.1-0.9
		c0-0.7,0-0.7-1.7-1.2c-2.5-0.6-2.8-1.3-2.8-3.2c0-2.2,0.9-3.1,4-3.1c0.8,0,2.2,0.1,3.2,0.3l-0.3,2.4c-0.9-0.2-2.1-0.3-2.9-0.3
		c-0.9,0-1.1,0.2-1.1,0.7c0,0.6,0.1,0.7,1.3,1c3,0.7,3.2,1.3,3.2,3.4S679.8,289.7,676.9,289.7z"/>
</g>
<g>
	<path class="st0" d="M71.4,360.5c-2.3,9.5-4.7,19-7,28.5c-10.4,0-20.8,0-31.2,0c0.1-0.1,0.1-0.2,0.2-0.3c7.5-9.4,15-18.7,22.5-28.1
		c0.1-0.1,0.3-0.2,0.4-0.2c5,0,9.9,0,14.9,0C71.2,360.4,71.3,360.4,71.4,360.5z M59.6,377.4c0.2,0,0.3,0,0.4,0c1.8,0,3.6,0,5.4,0
		c0.3,0,0.3-0.1,0.3-0.3c0-1.5,0-3.1,0-4.6c0-0.1,0-0.2,0-0.3c-2.1,0-4.1,0-6.1,0c0-2.1,0-4.1,0-6.1c-1.8,0-3.6,0-5.4,0
		c0,2,0,4.1,0,6.1c-2,0-4.1,0-6.1,0c0,1.8,0,3.5,0,5.3c2,0,4,0,6.1,0c0,0.2,0,0.3,0,0.4c0,1.8,0,3.6,0,5.4c0,0.3,0.1,0.4,0.4,0.4
		c1.6,0,3.1,0,4.7,0c0.1,0,0.2,0,0.3,0C59.6,381.5,59.6,379.4,59.6,377.4z"/>
	<path class="st0" d="M116.6,365.6c-0.2,0.8-0.4,1.6-0.7,2.4c-1.4,5.2-2.9,10.3-4.3,15.5c-0.1,0.3-0.2,0.4-0.5,0.4
		c-1.4,0-2.8,0-4.2,0c-0.2,0-0.3-0.1-0.4-0.3c-1.1-4-2.3-7.9-3.4-11.9c0-0.1-0.1-0.2-0.1-0.4c-0.3,0.8-0.5,1.6-0.7,2.4
		c-0.9,3.3-1.9,6.5-2.8,9.8c-0.1,0.2-0.2,0.3-0.4,0.3c-1.4,0-2.9,0-4.3,0c-0.2,0-0.3-0.1-0.3-0.3c-1.7-6-3.3-11.9-5-17.9v-0.1
		c0.1,0,0.2,0,0.3,0c1.4,0,2.7,0,4.1,0c0.2,0,0.3,0.1,0.4,0.3c0.9,3.8,1.9,7.6,2.9,11.5c0,0.1,0.1,0.2,0.2,0.3
		c0-0.1,0.1-0.2,0.1-0.3c1.1-3.8,2.2-7.6,3.3-11.4c0.1-0.3,0.2-0.4,0.5-0.4c1.3,0,2.6,0,3.9,0c0.2,0,0.3,0.1,0.4,0.3
		c1.1,3.8,2.2,7.6,3.4,11.5c0,0.1,0.1,0.2,0.2,0.3c0.1-0.5,0.3-1.1,0.4-1.6c0.8-3.4,1.7-6.8,2.5-10.1c0.1-0.2,0.1-0.3,0.4-0.3
		C113.8,365.6,115.2,365.6,116.6,365.6C116.4,365.5,116.4,365.5,116.6,365.6z"/>
	<path class="st0" d="M141.6,378.6c1.5,0,3,0,4.5,0c0,0.2,0.1,0.3,0.1,0.5c0.3,1.2,1,1.8,2.2,1.9c0.7,0.1,1.3,0.1,2-0.2
		c0.9-0.4,1.3-1.3,1.1-2.2c-0.1-0.5-0.4-0.9-0.8-1.1c-1-0.6-2-0.9-3.1-1.3c-1-0.3-2.1-0.6-3.1-1.2c-3.2-1.8-3.2-5.9-1.3-8
		c0.9-1,2.1-1.5,3.4-1.8c2.1-0.4,4.2-0.4,6.2,0.5c1.9,0.8,2.9,2.2,3.1,4.2c0,0.1,0,0.2,0,0.2v0.1c-0.1,0-0.1,0-0.2,0
		c-1.3,0-2.6,0-4,0c-0.2,0-0.3,0-0.3-0.2c-0.4-1.4-1.4-2.1-2.9-1.8c-0.3,0-0.5,0.1-0.8,0.2c-1.2,0.4-1.6,1.9-0.6,2.7
		c0.4,0.3,0.8,0.6,1.3,0.8c1.1,0.4,2.3,0.7,3.4,1.1c0.8,0.3,1.6,0.7,2.3,1.1c1.7,1.1,2.3,2.8,2.2,4.8c-0.2,2.4-1.6,4-3.9,4.8
		c-2.6,0.9-5.1,0.8-7.6-0.3C142.7,382.7,141.5,381,141.6,378.6z"/>
	<path class="st0" d="M125.3,378.6c1.5,0,3,0,4.5,0c0,0.1,0.1,0.3,0.1,0.4c0.3,1.1,1,1.8,2.1,2c0.6,0.1,1.2,0.1,1.8-0.1
		c1-0.3,1.6-1.4,1.4-2.3c-0.1-0.4-0.3-0.7-0.6-0.9c-0.6-0.5-1.4-0.8-2.1-1c-1-0.3-2-0.6-3-1s-2-0.9-2.7-1.8c-1.7-2-1.7-6.2,1.9-7.9
		c1.4-0.7,2.9-0.9,4.4-0.8c1.4,0,2.8,0.3,4.1,1c1.7,0.9,2.4,2.4,2.5,4.3c-1.5,0-3,0-4.5,0c0-0.1-0.1-0.2-0.1-0.4
		c-0.2-0.9-0.7-1.5-1.6-1.6c-0.8-0.1-1.6-0.1-2.4,0.3c-1,0.6-1.1,1.8-0.3,2.6c0.4,0.4,0.9,0.6,1.5,0.8c1.3,0.5,2.6,0.9,3.9,1.3
		c0.6,0.2,1.1,0.5,1.6,0.8c1.8,1.2,2.4,2.9,2.2,4.9c-0.2,2.4-1.6,3.9-3.8,4.7c-2.7,0.9-5.4,0.8-7.9-0.4c-1.9-0.9-2.9-2.5-2.9-4.6
		C125.3,378.8,125.3,378.7,125.3,378.6C125.3,378.7,125.3,378.7,125.3,378.6z"/>
	<path class="st0" d="M74.6,378.6c1.5,0,3,0,4.5,0c0,0.2,0.1,0.4,0.1,0.5c0.3,1.1,1.1,1.8,2.2,1.9c0.5,0,1,0,1.5-0.1
		c1.1-0.2,1.8-1.2,1.6-2.3c-0.1-0.6-0.5-1.1-1-1.3c-0.6-0.3-1.3-0.6-1.9-0.8c-1-0.4-2-0.6-3-1c-0.6-0.2-1.2-0.6-1.7-0.9
		c-2.4-1.8-2.6-5.8-0.3-7.8c1-0.9,2.2-1.3,3.4-1.6c1.9-0.3,3.9-0.3,5.7,0.5c2.1,0.8,3.2,2.4,3.3,4.6c-0.1,0-0.1,0-0.2,0
		c-1.3,0-2.7,0-4,0c-0.2,0-0.3,0-0.3-0.2c-0.3-1.2-0.7-1.7-2-1.9c-0.6-0.1-1.2-0.1-1.7,0.2c-0.6,0.3-1.1,0.7-1.1,1.4s0.3,1.3,1,1.6
		c0.4,0.2,0.8,0.4,1.1,0.5c1.2,0.4,2.4,0.8,3.6,1.3c0.5,0.2,1,0.5,1.5,0.8c1.4,0.8,2.2,2.1,2.3,3.7c0.2,2.1-0.4,3.8-2.1,5.1
		c-0.9,0.7-2,1.1-3.1,1.3c-2,0.3-4,0.2-5.9-0.5c-2.2-0.8-3.5-2.6-3.4-4.9C74.5,378.7,74.5,378.7,74.6,378.6z"/>
	<path class="st0" d="M123.1,383.8c-1.6,0-3.1,0-4.7,0c0-6.1,0-12.2,0-18.3c1.5,0,3.1,0,4.7,0C123.1,371.6,123.1,377.7,123.1,383.8z
		"/>
</g>
<path class="st0" d="M241.4,363v14.3l-8.2-14.3h-3.1v8.6l-1.7,1.5l1.7,1.4v8.4h2.9v-14.8l8.3,14.8h2.9v-8.4l1.7-1.4l-1.6-1.6V363
	H241.4z M252.8,378.2v-10.5l2.1-1.8h4.6l2.1,1.8v10.5l-2.1,1.8h-4.6L252.8,378.2z M253.6,363l-3.7,3.3v5.2l-1.7,1.5l1.7,1.4v5.1
	l3.7,3.3h7.1l3.7-3.3v-5.1l1.7-1.4l-1.7-1.5v-5.2l-3.7-3.3C260.7,363,253.6,363,253.6,363z M285,363l-6.1,11.2l-6.1-11.2h-3.2v8.6
	l-1.7,1.5l1.7,1.4v8.4h2.9v-14.8l4.8,9.1h3l5-9.1v14.8h2.9v-8.4l1.7-1.4l-1.7-1.5V363H285z M300,366.9l3,8.2h-6L300,366.9z
	 M298.5,363l-3.3,8.8l-2.4,1.2l1.4,1.5l-3.2,8.4h3l1.9-5h8.1l1.9,5h3l-7.5-19.9H298.5z M314.8,365.9h6.2l2.1,1.8v10.5L321,380h-6.2
	V365.9z M311.9,363v8.6l-1.7,1.4l1.7,1.5v8.4h10.4l3.7-3.3v-13.3l-3.7-3.3L311.9,363L311.9,363z M334.1,363l-3.8,3.3v4.6l3.7,3.3
	h5.1l2.1,1.8v2.2l-2.1,1.8h-4.3l-2.1-1.8V376h-2.9v3.6l3.7,3.3h6.8l3.7-3.3v-5l-3.7-3.3h-5.2l-1.9-1.7v-2.1l1.9-1.7h4.1l1.9,1.7v2.1
	h2.9v-3.3l-3.7-3.3C340.3,363,334.1,363,334.1,363z"/>
<g>
	<path class="st0" d="M262.1,393.5v-1h2.7v1H262.1z"/>
	<path class="st0" d="M272.1,390v1h-2.5v1.1h2.3v1h-2.3v2.1h-1.2v-5.3h3.7V390z"/>
	<path class="st0" d="M277.1,390v1.1h-2.6v1h2.4v1h-2.4v1.1h2.7v1h-3.9v-5.3h3.8V390z"/>
	<path class="st0" d="M279.7,391c-0.1,0.1-0.2,0.2-0.2,0.4c0,0.2,0.1,0.3,0.2,0.4s0.5,0.2,1,0.3s0.9,0.3,1.2,0.6
		c0.3,0.2,0.4,0.6,0.4,1.1s-0.2,0.9-0.5,1.2c-0.4,0.3-0.8,0.4-1.4,0.4c-0.8,0-1.6-0.3-2.3-0.9l0.7-0.9c0.6,0.5,1.1,0.7,1.6,0.7
		c0.2,0,0.4,0,0.5-0.1c0.1-0.1,0.2-0.2,0.2-0.4s-0.1-0.3-0.2-0.4c-0.1-0.1-0.4-0.2-0.8-0.3c-0.6-0.1-1.1-0.3-1.4-0.6
		c-0.3-0.2-0.4-0.6-0.4-1.1s0.2-0.9,0.5-1.2c0.4-0.3,0.8-0.4,1.4-0.4c0.4,0,0.7,0.1,1.1,0.2c0.4,0.1,0.7,0.3,0.9,0.5l-0.6,0.9
		c-0.5-0.3-0.9-0.5-1.4-0.5C280,390.9,279.8,390.9,279.7,391z"/>
	<path class="st0" d="M285.7,391v4.3h-1.2V391H283v-1h4.2v1H285.7z"/>
	<path class="st0" d="M288.3,390h1.2v5.3h-1.2V390z"/>
	<path class="st0" d="M293,393.3l1.3-3.4h1.3l-2.1,5.3h-1l-2.1-5.3h1.3L293,393.3z"/>
	<path class="st0" d="M299.9,395.3l-0.5-1.1h-2.2l-0.5,1.1h-1.3l2.3-5.3h1.1l2.3,5.3H299.9z M298.3,391.6l-0.7,1.5h1.3L298.3,391.6z
		"/>
	<path class="st0" d="M302,395.3V390h1.2v4.2h2.3v1.1H302z"/>
	<path class="st0" d="M308.6,393.5v-1h2.7v1H308.6z"/>
</g>
<path class="st0" d="M482.6,360.1c-1.7-1.7-3.9-2.6-6.2-2.6c-4.8,0-8.8,3.9-8.8,8.7c0,0.1,0,6.2,0,6.2c0,0.5-0.4,0.9-0.9,0.9
	c-0.3,0-0.5-0.1-0.7-0.3c-0.1-0.1-0.3-0.3-0.3-0.7v-5.9c0-2.3-0.9-4.6-2.6-6.2c-1.7-1.7-3.9-2.6-6.2-2.6c-4.8,0-8.8,3.9-8.8,8.8
	v10.9c0,0.5-0.4,0.9-0.9,0.9c-0.3,0-0.5-0.1-0.7-0.3c-0.1-0.1-0.3-0.3-0.3-0.7v-10.8c0-2.3-0.9-4.6-2.6-6.2
	c-1.7-1.7-3.9-2.6-6.2-2.6c-4.8,0-8.8,3.9-8.8,8.7c0,0.1,0,6.2,0,6.2c0,0.5-0.4,0.9-0.9,0.9c-0.3,0-0.5-0.1-0.7-0.3
	c-0.1-0.1-0.3-0.3-0.3-0.7v-6c0-2.3-0.9-4.6-2.6-6.2c-1.7-1.7-3.9-2.6-6.2-2.6c-4.8,0-8.8,3.9-8.8,8.8v7.2v3.9h7.9v-3.9v-7.2
	c0-0.3,0.1-0.5,0.3-0.7c0.1-0.1,0.3-0.3,0.7-0.3c0.3,0,0.5,0.1,0.7,0.3c0.1,0.1,0.3,0.3,0.3,0.7v6.2c0,2.3,0.9,4.6,2.6,6.2
	c1.7,1.7,3.9,2.6,6.2,2.6s4.6-0.9,6.2-2.6c1.7-1.7,2.6-3.9,2.6-6.2v-6.2c0-0.5,0.4-0.9,1-0.9c0.3,0,0.5,0.1,0.7,0.3
	c0.1,0.1,0.3,0.3,0.3,0.7v10.9c0,2.4,0.9,4.6,2.6,6.2c1.7,1.7,3.9,2.6,6.2,2.6s4.6-0.9,6.2-2.6c1.7-1.7,2.6-3.9,2.6-6.2v-11
	c0-0.3,0.1-0.5,0.3-0.7c0.1-0.1,0.3-0.3,0.7-0.3c0.3,0,0.5,0.1,0.7,0.3c0.1,0.1,0.3,0.3,0.3,0.7v6.2c0,2.3,0.9,4.6,2.6,6.2
	c1.7,1.7,3.9,2.6,6.2,2.6s4.6-0.9,6.2-2.6c1.7-1.7,2.6-3.9,2.6-6.2v-6.2c0-0.5,0.4-0.9,1-0.9c0.3,0,0.5,0.1,0.7,0.3
	c0.1,0.1,0.3,0.3,0.3,0.7v2.1v1v3.9v4.1c0,2.2,1.8,3.9,3.9,3.9s3.9-1.8,3.9-3.9v-4.1v-4.1v-1v-2C485.1,364,484.2,361.8,482.6,360.1z
	"/>
<g>
	<path class="st0" d="M424,389.9v6.4h-1.5l0.1-4.5v-0.6l-0.1,0.2c-0.1,0.4-0.1,0.4-0.2,0.7l-1.2,4.3h-1.4l-1.2-4.1l-0.3-1.1
		c0,0.5,0,0.6,0.1,1.2l0.1,4h-1.5V390h2.3l1,3.6l0.2,1c0.1-0.4,0.1-0.5,0.2-0.8l1-3.8h2.4V389.9z"/>
	<path class="st0" d="M427.9,394c0,0.5,0,0.9-0.5,1.2c-0.1,0.1-0.3,0.2-0.5,0.2c-0.3,0-0.5-0.3-0.5-0.5c0-0.4,0.4-0.5,0.6-0.6
		L427.9,394z M426.6,392.9c0-0.2,0.1-0.5,0.7-0.5c0.5,0,0.5,0.4,0.5,0.6v0.3c-0.6,0.1-1.5,0.3-1.9,0.4c-0.4,0.2-1,0.6-1,1.3
		s0.5,1.4,1.5,1.4c0.7,0,1.1-0.3,1.4-0.6v0.4h1.4c0.1-0.1,0.1-0.1,0.1-0.6v-2.7c0-1.2-1.4-1.3-2-1.3c-0.5,0-1.1,0.1-1.5,0.4
		c-0.4,0.3-0.5,0.7-0.5,1h1.3V392.9z"/>
	<path class="st0" d="M430.8,394.7c0.4,0.4,0.8,0.6,1.4,0.6c0.3,0,0.8-0.1,0.8-0.5c0-0.2-0.1-0.2-0.2-0.3c-0.2-0.1-0.5-0.1-0.8-0.2
		c-0.2,0-0.4-0.1-0.6-0.1c-0.3-0.1-0.6-0.2-0.8-0.4s-0.4-0.5-0.4-0.9c0-0.8,0.7-1.6,2-1.6c1.1,0,1.8,0.5,2.1,0.7l-0.9,0.8
		c-0.4-0.3-0.9-0.5-1.2-0.5c-0.5,0-0.7,0.2-0.7,0.4c0,0.3,0.3,0.3,0.7,0.4c0.9,0.2,2,0.4,2,1.5s-1.1,1.6-2.2,1.6
		c-1.3,0-2-0.6-2.3-0.9L430.8,394.7z"/>
	<path class="st0" d="M435.5,394.7c0.4,0.4,0.8,0.6,1.4,0.6c0.3,0,0.8-0.1,0.8-0.5c0-0.2-0.1-0.2-0.2-0.3c-0.2-0.1-0.5-0.1-0.8-0.2
		c-0.2,0-0.4-0.1-0.6-0.1c-0.3-0.1-0.6-0.2-0.8-0.4s-0.4-0.5-0.4-0.9c0-0.8,0.7-1.6,2-1.6c1.1,0,1.8,0.5,2.1,0.7l-0.9,0.8
		c-0.4-0.3-0.9-0.5-1.2-0.5c-0.5,0-0.7,0.2-0.7,0.4c0,0.3,0.3,0.3,0.7,0.4c0.9,0.2,2,0.4,2,1.5s-1.1,1.6-2.2,1.6
		c-1.3,0-2-0.6-2.3-0.9L435.5,394.7z"/>
	<path class="st0" d="M439.9,391h1.4v-1.1h-1.4V391z M439.9,396.3h1.4v-4.7h-1.4V396.3z"/>
	<path class="st0" d="M441.9,391.6h1.5c0.6,2.1,0.7,2.5,0.8,3.4c0.2-1,0.2-1.2,0.5-2.3l0.3-1.2h1.4l-1.5,4.7h-1.5L441.9,391.6z"/>
	<path class="st0" d="M451.4,395.1c-0.2,0.2-0.3,0.5-0.6,0.7c-0.4,0.4-1,0.7-1.8,0.7c-1.4,0-2.4-0.9-2.4-2.4c0-1.1,0.6-2.6,2.4-2.6
		c0.3,0,1.1,0,1.7,0.7c0.6,0.7,0.7,1.6,0.7,2.1H448c0,0.6,0.3,1.2,1.1,1.2s1-0.5,1.2-0.8L451.4,395.1z M450.1,393.4
		c0-0.2-0.1-0.5-0.3-0.7c-0.2-0.2-0.4-0.3-0.7-0.3s-0.6,0.2-0.7,0.3c-0.2,0.2-0.2,0.4-0.3,0.6L450.1,393.4L450.1,393.4z"/>
	<path class="st0" d="M459.3,389.9v6.4h-1.5l0.1-4.5v-0.6l-0.1,0.2c-0.1,0.4-0.1,0.4-0.2,0.7l-1.2,4.3H455l-1.2-4.1l-0.3-1.1
		c0,0.5,0,0.6,0.1,1.2l0.1,4h-1.4V390h2.3l1,3.6l0.2,1c0.1-0.4,0.1-0.5,0.2-0.8l1-3.8h2.3V389.9z"/>
	<path class="st0" d="M463.4,391.6h1.4v4.7h-1.4v-0.5c-0.1,0.2-0.2,0.2-0.5,0.4c-0.3,0.1-0.6,0.2-0.9,0.2s-0.9,0-1.2-0.5
		c-0.2-0.3-0.3-0.6-0.3-1.4v-3h1.4v2.9c0,0.2,0,0.4,0.1,0.6c0.1,0.1,0.3,0.2,0.5,0.2c0.1,0,0.3,0,0.5-0.1c0.3-0.2,0.3-0.4,0.3-0.7
		v-2.8L463.4,391.6L463.4,391.6z"/>
	<path class="st0" d="M466.2,394.7c0.4,0.4,0.8,0.6,1.4,0.6c0.3,0,0.8-0.1,0.8-0.5c0-0.2-0.1-0.2-0.2-0.3c-0.2-0.1-0.5-0.1-0.8-0.2
		c-0.2,0-0.4-0.1-0.6-0.1c-0.3-0.1-0.6-0.2-0.8-0.4s-0.4-0.5-0.4-0.9c0-0.8,0.7-1.6,2-1.6c1.1,0,1.8,0.5,2.1,0.7l-0.9,0.8
		c-0.4-0.3-0.9-0.5-1.2-0.5c-0.5,0-0.7,0.2-0.7,0.4c0,0.3,0.3,0.3,0.7,0.4c0.9,0.2,2,0.4,2,1.5s-1.1,1.6-2.2,1.6
		c-1.3,0-2-0.6-2.3-0.9L466.2,394.7z"/>
	<path class="st0" d="M470.7,389.9h1.4v1.1h-1.4V389.9z M470.7,391.6h1.4v4.7h-1.4V391.6z"/>
	<path class="st0" d="M477.4,395.2c-0.2,0.3-0.4,0.6-0.7,0.8c-0.4,0.2-0.8,0.4-1.3,0.4c-0.9,0-2.3-0.5-2.3-2.5
		c0-1.4,0.8-2.5,2.4-2.5c0.5,0,1.4,0.1,2,1.1l-1,0.6c-0.1-0.2-0.2-0.3-0.4-0.5c-0.1-0.1-0.3-0.2-0.5-0.2c-0.7,0-1,0.9-1,1.4
		c0,0.6,0.3,1.4,1,1.4c0.1,0,0.4,0,0.7-0.3c0.1-0.1,0.2-0.2,0.2-0.4L477.4,395.2z"/>
</g>
<g>
	<g>
		<path class="st0" d="M650.1,371.3c-0.7-0.3-1.8-0.5-2.7-0.5c-1,0-1.9,0.3-1.9,1.2c0,2.2,5.8,0.9,5.8,5.5c0,3.1-2.5,4.3-5.4,4.3
			c-1.3,0-2.6-0.2-3.8-0.6l0.2-2.7c0,0,1.9,0.6,3.5,0.6c1.1,0,2-0.3,2-1.3c0-2.4-5.8-0.9-5.8-5.5c0-2.9,2.4-4,5.1-4
			c1.6,0,2.9,0.3,3.6,0.6L650.1,371.3z M639.5,371.3c-0.7-0.3-1.8-0.5-2.7-0.5c-1,0-1.9,0.3-1.9,1.2c0,2.2,5.8,0.9,5.8,5.5
			c0,3.1-2.6,4.3-5.4,4.3c-1.3,0-2.6-0.2-3.9-0.6l0.2-2.7c0,0,1.9,0.6,3.5,0.6c1.1,0,2-0.3,2-1.3c0-2.4-5.8-0.9-5.8-5.5
			c0-2.9,2.4-4,5.1-4c1.6,0,2.9,0.3,3.7,0.6L639.5,371.3z M692.8,368.2c2.5,0,4,1.4,4,4.3v8.9h-3.3v-8.2c0-1.3-0.4-2.2-1.8-2.2
			c-1.4,0-2.7,1.2-2.7,3.5v7h-3.3v-8.2c0-1.2-0.4-2.2-1.8-2.2c-1.5,0-2.6,1.4-2.6,3.6v6.8h-3.4v-13c2.2-0.3,3.1,0.6,3.1,2.1
			c0.8-1.4,2.2-2.4,4-2.4c2.3,0,3.3,1.3,3.6,2.5C689.2,369.4,690.6,368.2,692.8,368.2L692.8,368.2z M624.6,368.5
			c-0.7,3.8-2.6,9.9-3.8,13h-3.5l-2.5-8.6l0,0l-2.5,8.6h-3.5c-1.1-3-3.2-9.3-3.8-13h3.3l2.2,8.9l0,0l2.6-8.9h3.3l2.6,8.8l0,0
			l2.2-8.8C621.2,368.5,624.6,368.5,624.6,368.5z M603,371.3c-0.7-0.3-1.8-0.5-2.7-0.5c-1,0-1.8,0.3-1.8,1.2c0,2.2,5.7,0.9,5.7,5.5
			c0,3.1-2.5,4.3-5.4,4.3c-1.3,0-2.6-0.2-3.8-0.6l0.2-2.7c0,0,1.9,0.6,3.5,0.6c1.1,0,2-0.3,2-1.3c0-2.4-5.8-0.9-5.8-5.5
			c0-2.9,2.4-4,5.1-4c1.6,0,2.9,0.3,3.6,0.6L603,371.3z M669.6,381.7c-3.7,0-6.3-2-6.3-6.5c0-4,2.7-7,6.7-7c3.7,0,6,2.1,6,6.5
			C676,378.9,673.4,381.7,669.6,381.7L669.6,381.7z M669.7,371.1c-1.5,0-2.9,1.1-2.9,4c0,2.5,0.9,3.8,2.9,3.8c1.7,0,2.9-1.3,2.9-4
			C672.6,372.4,671.7,371.1,669.7,371.1L669.7,371.1z M626.1,381.5h3.3v-13c-1.6-0.2-3.3,0.3-3.3,2.7V381.5z M627.9,366.9
			c1.2,0,2.1-0.9,2.1-2.1c0-1.1-1-2-2.1-2s-2.1,0.9-2.1,2C625.9,366,626.9,366.9,627.9,366.9L627.9,366.9z M659,381.7
			c-3.8,0-6.4-1.9-6.4-6.5c0-3.9,2.1-6.9,6.9-6.9c1,0,2.3,0.2,3.2,0.5l-0.7,2.7c-0.8-0.3-1.5-0.5-2.4-0.5c-2.4,0-3.4,1.6-3.4,4
			c0,2.3,0.9,3.8,3.3,3.8c1.1,0,1.9-0.3,2.6-0.6l0.4,2.7C661.8,381.4,660.4,381.7,659,381.7z"/>
		<g>
			<path class="st0" d="M585.8,375.3c-0.2-0.2-0.3-0.4-0.5-0.6h-2.7c0-0.1,0-0.1,0.1-0.2h-10.1v0.2v0.6v0.2h9.7c0,0,0,0,0-0.1
				s0-0.1,0.1-0.2h3.4V375.3z"/>
			<path class="st0" d="M587.3,377.4c-0.1-0.1-0.2-0.3-0.2-0.4s-0.1-0.1-0.1-0.2h-5.2c0-0.1,0.1-0.1,0.1-0.2h-9.2v1h8.8
				c0-0.1,0.1-0.1,0.1-0.2C581.6,377.4,587.3,377.4,587.3,377.4z"/>
			<path class="st0" d="M588.2,379.6c-0.1-0.2-0.1-0.4-0.2-0.6h-7.3c0-0.1,0.1-0.1,0.1-0.2h-8.2v0.2l0,0v0.3v0.5h7.7l0,0l0.1-0.2
				C580.4,379.6,588.2,379.6,588.2,379.6z"/>
			<path class="st0" d="M588.5,381.7c0-0.2,0-0.4,0-0.6h-9c0-0.1,0.1-0.1,0.1-0.2h-7.1v1h6.5l0,0l0.1-0.2
				C579.1,381.7,588.5,381.7,588.5,381.7z"/>
			<path class="st0" d="M572,355.6c-0.4,0-1,0.1-1.4,0.3c-0.2,0.1-0.4,0.2-0.6,0.3h2.6v-0.5C572.4,355.6,572.2,355.6,572,355.6z"/>
			<path class="st0" d="M568.7,357.7c0,0.2-0.1,0.4,0,0.6h3.8v-0.6H568.7z"/>
			<path class="st0" d="M580.5,392.3c0.4-0.2,0.8-0.4,1.2-0.6h-9.1v0.6H580.5z"/>
			<path class="st0" d="M572.5,393.8v0.6c1.1-0.1,2.3-0.3,3.5-0.6H572.5z"/>
			<path class="st0" d="M577.6,384l0.2-0.2h10.5c0-0.2,0.1-0.4,0.1-0.6h-10.3v-0.1l0.1-0.2h-5.8v0.2v0.3l0,0l0,0l0,0h-0.1
				c-0.1,0-0.2,0-0.2,0l0,0c-1.5-0.5-1.7-1.8-2-3.2c-0.1-0.7-0.3-1.5-0.6-2.1c-0.4-0.8-1.2-1.3-2-1.9c-1.2-0.8-2.4-1.6-2.4-3.1
				c0-1.6,1.1-2,2.3-2.5c0.7-0.3,1.5-0.6,2-1.2c0.4-0.5,0.6-1.1,0.8-1.6c0.4-1.1,0.8-2.1,2.3-2.3c0-0.1-0.1-0.4-0.1-0.4
				c0-0.1-0.1-0.2-0.1-0.2h1.5l0.1,0.1l0.4,0.4l0.6,0.5l0.2,0.1h-2.6v0.3v0.7h3.9l0.4,0.3l0.2,0.1l0.8,0.6h-5.2v0.5v0.3v0.2h6.5l0,0
				l0.2,0.1c0.1,0.1,0.6,0.5,1.2,1h-7.8v0.2l0,0v0.6v0.2h9.1l0.1,0.1c0.4,0.4,0.9,0.7,1.1,1h-10.3v0.2v0.3v0.5h10.4
				c0-0.1,0-0.1,0.1-0.2h0.8c-0.2-0.2-0.4-0.4-0.6-0.6c0.1-0.7,0.3-1.3,0.3-2c0.1-0.9,0.1-1.7,0-2.5c-0.1-1.3-0.4-2.5-0.9-3.5
				c-0.4-1-1.1-1.8-1.8-2.6l-0.2-0.2c-0.4-0.4-0.9-0.8-1.4-1.1c-0.5-0.3-1-0.6-1.5-0.8c-0.9-0.4-1.9-0.6-2.7-0.6
				c-1.2-0.1-1.8,0.2-2.4,0.5h-3.4c0-0.1-0.1-0.2-0.1-0.2c0-0.1-0.1-0.2-0.1-0.2l-1.2,0.9l-0.7,0.5c-0.8,0.6-1.7,1.2-2.5,1.9
				c-0.7,0.5-1.3,1-1.8,1.5c-0.7,0.6-1.2,1.1-1.6,1.7c-1.1,1.3-1.7,2.6-1.8,3.9c0,0.2,0,0.5,0,0.7c0,0.3,0.1,0.5,0.1,0.7
				c0.2,0.9,0.5,1.7,1.1,2.4c0.6,0.8,1.4,1.5,2.1,2.1l0.4,0.3l0.4,0.4c0.7,0.6,1.5,1.3,2.2,2c0.2,0.2,0.5,0.5,0.7,0.7
				c-0.2,0.2-0.4,0.4-0.5,0.6h1.1c0.4,0.5,0.8,1,1.2,1.5h-3l0,0c-0.1,0.2-0.1,0.4-0.2,0.6h3.5c0.1,0.2,0.3,0.5,0.4,0.7
				c0.1,0.3,0.2,0.5,0.3,0.8h-4.3c0,0.2,0.1,0.4,0.1,0.6h4.3c0.2,0.5,0.3,1,0.4,1.5h-4.1c0,0,0,0.1,0.1,0.1c0.1,0.2,0.2,0.3,0.3,0.5
				h3.9c0.1,0.4,0.2,0.9,0.3,1.3c0,0,0,0.1,0.1,0.2h-3c0,0,0,0,0.1,0.1c0.2,0.2,0.4,0.4,0.6,0.5h2.5c0.1,0.2,0.1,0.3,0.2,0.4
				c0.1,0.2,0.3,0.7,0.5,1.1h-0.7l0,0c0.3,0.1,0.6,0.3,0.9,0.4c0.2,0.3,0.3,0.6,0.5,0.7c0.1,0.1,0.2,0.1,0.4,0.2v-0.5l0,0l0.1-0.1
				c0.1-0.1,0.1-0.1,0.1-0.1h11.2c0.2-0.1,0.4-0.3,0.6-0.4c0.1-0.1,0.1-0.1,0.2-0.2h-11.4l0.2-0.2h-0.9v-1.1h1.8
				c0.1-0.1,0.1-0.1,0.2-0.2h11.7c0.2-0.2,0.3-0.4,0.5-0.6h-11.6c0.1-0.1,0.1-0.1,0.2-0.2h-2.6V386h3.5c0.1-0.1,0.1-0.1,0.2-0.2
				h11.4c0.1-0.2,0.2-0.4,0.3-0.6H577l0.2-0.2h-4.3v-1.1h4.7V384L577.6,384z M571.8,363.9c-0.1-0.2-0.2-0.4-0.4-0.6
				c-0.1-0.2-0.3-0.5-0.4-0.6l-0.1-0.1h1.6v1.3l0,0C572.5,363.9,571.8,363.9,571.8,363.9z M572.5,360.4v1.5h-2l-0.2-0.2l-0.1-0.1
				l-0.6-0.9c-0.1-0.1-0.1-0.2-0.2-0.3H572.5z"/>
		</g>
	</g>
</g>
</svg>
