<?xml version="1.0" encoding="UTF-8" standalone="no"?>
<svg width="57px" height="26px" viewBox="0 0 57 26" version="1.1" xmlns="http://www.w3.org/2000/svg" xmlns:xlink="http://www.w3.org/1999/xlink">
    <!-- Generator: Sketch 40.3 (33839) - http://www.bohemiancoding.com/sketch -->
    <title>Kids_logo_white</title>
    <desc>Created with Sketch.</desc>
    <defs></defs>
    <g id="Page-1" stroke="none" stroke-width="1" fill="none" fill-rule="evenodd">
        <g id="Desktop" transform="translate(-34.000000, -25.000000)" fill="#FFFFFF">
            <g id="Section-1">
                <g id="Kids_logo_white" transform="translate(34.000000, 25.000000)">
                    <path d="M28.0038673,4.95877778 C27.1292372,6.85461111 25.2419847,7.85488889 23.7886301,7.19304444 C22.3352755,6.53148889 21.8663342,4.45813333 22.7412551,2.56215556 C23.6157398,0.666755556 25.5032832,-0.333377778 26.9563469,0.328466667 C28.4095561,0.990022222 28.8786429,3.06337778 28.0038673,4.95877778" id="Fill-1"></path>
                    <polyline id="Fill-2" points="5.34564031 25.5155333 0.106147959 25.5155333 5.18409184 5.27467778 10.4235842 5.27467778 7.73905867 15.8769 13.3666454 11.1863556 19.8675536 11.1863556 12.4287628 17.0015444 16.5039719 25.5155333 10.9409464 25.5155333 8.19185969 19.5717889 6.47764286 20.9854667 5.34564031 25.5155333"></polyline>
                    <polyline id="Fill-3" points="26.0926224 11.1863556 22.5026403 25.5155333 17.2630026 25.5155333 20.8531301 11.1863556 26.0926224 11.1863556"></polyline>
                    <path d="M52.1861173,16.6798667 L49.2749005,16.0372333 C48.6606964,15.9086778 48.4020153,15.6517111 48.4020153,15.2019111 C48.4020153,14.4951444 49.113352,14.1094778 49.9542474,14.1094778 C51.4449719,14.1094778 52.3257092,14.7925556 52.5534184,15.7064556 L56.9614668,15.7064556 C56.514773,12.6039333 54.2231403,10.8324667 50.1159413,10.8324667 C46.7200791,10.8324667 43.6151786,12.5353222 43.6151786,15.9729556 C43.6151786,18.2862333 44.9734362,19.5713556 47.754949,20.1495667 L49.8571148,20.5673 C50.7628622,20.7601333 51.0539694,21.0493111 51.0539694,21.5954556 C51.0539694,22.3665 50.1482219,22.7199556 49.113352,22.7199556 C47.5227321,22.7199556 46.3097372,21.9431333 46.1006403,20.6360556 L41.7719847,20.6360556 C42.0002755,24.1349333 44.684074,25.9328333 48.9193776,25.9328333 C52.6710536,25.9328333 55.9052219,24.3264667 55.9052219,20.8242667 C55.9052219,18.8004556 54.7088036,17.2260111 52.1861173,16.6798667" id="Fill-4"></path>
                    <path d="M35.4633061,19.6279778 C34.588676,21.5238111 32.7014235,22.5239444 31.2477781,21.8621 C29.7945689,21.2005444 29.325773,19.1271889 30.2004031,17.2312111 C31.0750332,15.3358111 32.9625765,14.3356778 34.4159311,14.9975222 C35.8691403,15.6590778 36.3379362,17.7324333 35.4633061,19.6279778 M39.8227883,5.27626667 L37.7851837,13.4368 C37.2353954,11.7982222 35.5534592,10.8021333 33.2894541,10.8021333 C28.4057755,10.8021333 25.3010204,15.236 25.3010204,20.2158667 C25.3010204,23.5571556 27.047227,25.9026444 30.5403673,25.9026444 C32.6426786,25.9026444 34.2921888,24.8744889 35.3594847,23.1716333 L34.7448444,25.5172667 L39.9844821,25.5172667 L45.062426,5.27626667 L39.8227883,5.27626667" id="Fill-5"></path>
                </g>
            </g>
        </g>
    </g>
</svg>