<?xml version="1.0" encoding="UTF-8" standalone="no"?>
<svg width="57px" height="56px" viewBox="0 0 57 56" version="1.1" xmlns="http://www.w3.org/2000/svg" xmlns:xlink="http://www.w3.org/1999/xlink">
    <!-- Generator: Sketch 40.3 (33839) - http://www.bohemiancoding.com/sketch -->
    <title>pinterest-logo</title>
    <desc>Created with Sketch.</desc>
    <defs></defs>
    <g id="Page-1" stroke="none" stroke-width="1" fill="none" fill-rule="evenodd">
        <g id="Desktop" transform="translate(-627.000000, -2522.000000)" fill="#F2F2F2">
            <g id="Footer" transform="translate(68.000000, 2400.000000)">
                <g id="Social-Icons" transform="translate(559.000000, 122.000000)">
                    <path d="M42.6866843,3.75615554 C38.3330785,1.25186539 33.5780644,0 28.421642,0 C23.2652195,0 18.5102054,1.25186539 14.1565996,3.75615554 C9.80072282,6.25820822 6.35383438,9.65580894 3.81252773,13.9450421 C1.27065332,18.2365127 0,22.921219 0,28.0013984 C0,33.6627611 1.56589002,38.8039116 4.69937335,43.4231718 C7.83342444,48.0401946 11.9406211,51.4551357 17.0215311,53.6668764 C16.9244437,51.066375 17.083985,48.9161647 17.502994,47.2140082 L21.1667679,31.97347 C20.5501774,30.7825757 20.2418822,29.3013695 20.2418822,27.5270544 C20.2418822,25.46019 20.7721727,23.7362181 21.832186,22.3484263 C22.8944703,20.9634313 24.1895375,20.2703745 25.7179551,20.2703745 C26.9511361,20.2703745 27.9027067,20.67256 28.567557,21.4746936 C29.2352462,22.2762678 29.5656842,23.2859269 29.5656842,24.500874 C29.5656842,25.2526645 29.4237434,26.1722653 29.139862,27.2540829 C28.8559806,28.3353411 28.4880702,29.5855284 28.0310211,31.008001 C27.573972,32.4304736 27.2480761,33.5665498 27.0510624,34.416789 C26.704727,35.9002327 26.9886085,37.1694385 27.9004356,38.2272033 C28.8139661,39.284968 30.0227333,39.8135707 31.5284404,39.8135707 C34.1679701,39.8135707 36.3322822,38.3670452 38.0225122,35.4762319 C39.7121746,32.5809435 40.5575735,29.0697911 40.5575735,24.9377404 C40.5575735,21.7543776 39.5151609,19.1650635 37.4303356,17.1720356 C35.3455103,15.1795671 32.4402676,14.1833328 28.7140398,14.1833328 C24.5466603,14.1833328 21.17131,15.5006443 18.5942343,18.138064 C16.0148875,20.7754837 14.7266336,23.9303187 14.7266336,27.5992129 C14.7266336,29.7885789 15.3562826,31.6216276 16.6138774,33.1056306 C17.0328864,33.5906026 17.1680139,34.1147304 17.0215311,34.6740983 C16.9710002,34.8184152 16.873345,35.1836824 16.7245911,35.7671032 C16.5781083,36.3505239 16.478182,36.7258598 16.4299222,36.896467 C16.2323407,37.6745478 15.762233,37.9167541 15.0235735,37.6264421 C13.1227034,36.8483614 11.6788824,35.4980472 10.6943816,33.5794153 C9.70760971,31.6591052 9.21308824,29.434499 9.21308824,26.9067154 C9.21308824,25.2789548 9.47880127,23.6506348 10.0090918,22.0206367 C10.5388146,20.3928761 11.3666128,18.8199335 12.4885123,17.3012496 C13.6109795,15.7803282 14.9548742,14.4367265 16.5230353,13.2721225 C18.0883576,12.105281 19.9937698,11.1700179 22.2381364,10.4640956 C24.4847742,9.75873263 26.9023085,9.40689021 29.4924428,9.40689021 C32.9944042,9.40689021 36.1415138,10.1737836 38.9269585,11.7030955 C41.7175131,13.2346449 43.8443528,15.2164854 45.3125876,17.6463796 C46.7808224,20.0785113 47.5149398,22.6784533 47.5149398,25.4490026 C47.5149398,29.093844 46.8739355,32.3756555 45.5896559,35.2927592 C44.3076473,38.2098629 42.4936449,40.4999151 40.149352,42.164594 C37.8050591,43.8298323 35.1416834,44.6621717 32.1563862,44.6621717 C30.6523823,44.6621717 29.2443304,44.3170417 27.937908,43.6239849 C26.6292146,42.9314874 25.7287426,42.109776 25.2364922,41.1638848 C24.1253803,45.4643053 23.4599622,48.0290072 23.2385346,48.8551936 C22.768427,50.581403 21.8055011,52.5738715 20.3508926,54.8337179 C22.9898545,55.6112393 25.679915,56 28.4193709,56 C33.5735223,56 38.3308075,54.7481346 42.6844132,52.2444038 C47.038019,49.7423511 50.4866107,46.3447504 53.0262141,42.0555173 C55.5675207,37.7640466 56.8381741,33.0793403 56.8381741,27.9991609 C56.8381741,22.921219 55.5697918,18.2342753 53.0301884,13.9450421 C50.4888818,9.65580894 47.0419933,6.2604457 42.6866843,3.75615554 Z" id="pinterest-logo"></path>
                </g>
            </g>
        </g>
    </g>
</svg>