<?xml version="1.0" encoding="utf-8"?>
<!-- Generator: Adobe Illustrator 16.0.0, SVG Export Plug-In . SVG Version: 6.00 Build 0)  -->
<!DOCTYPE svg PUBLIC "-//W3C//DTD SVG 1.1//EN" "http://www.w3.org/Graphics/SVG/1.1/DTD/svg11.dtd">
<svg version="1.1" id="Layer_1" xmlns="http://www.w3.org/2000/svg" xmlns:xlink="http://www.w3.org/1999/xlink" x="0px" y="0px"
	 width="147.958px" height="16.552px" viewBox="0 0 147.958 16.552" enable-background="new 0 0 147.958 16.552"
	 xml:space="preserve">
<polygon fill="#292760" points="147.751,1.029 147.751,16.552 144.668,16.552 144.668,10.143 137.95,10.143 137.95,16.552 
	134.868,16.552 134.868,1.029 137.95,1.029 137.95,7.238 144.668,7.238 144.668,1.029 "/>
<polyline fill="#292760" points="5.977,3.503 0.325,3.503 0.325,0.62 13.938,0.62 13.938,3.503 9.059,3.503 "/>
<g>
	<defs>
		<rect id="SVGID_1_" x="-18.458" y="-12.958" width="180.833" height="45.833"/>
	</defs>
	<clipPath id="SVGID_2_">
		<use xlink:href="#SVGID_1_"  overflow="visible"/>
	</clipPath>
	<path clip-path="url(#SVGID_2_)" fill="#292760" d="M27.889,16.144l-3.083-5.3h-0.177h-2.351v5.3h-3.083V0.62h5.434
		c3.814,0,6.098,2.062,6.098,5.189c0,2.129-1.042,3.681-2.927,4.457l3.548,5.877H27.889z M22.278,8.093h2.75
		c1.707,0,2.506-1.109,2.506-2.284c0-1.22-0.821-2.306-2.506-2.306h-2.75V8.093z"/>
	<path clip-path="url(#SVGID_2_)" fill="#292760" d="M49.623,0.62l-5.988,8.405v7.118h-3.06V9.025L34.609,0.62h3.459l3.194,4.458
		c0.421,0.62,0.82,1.153,0.842,1.153h0.022c0.023,0,0.422-0.533,0.843-1.153l3.171-4.458H49.623z"/>
	<path clip-path="url(#SVGID_2_)" fill="#292760" d="M73.997,5.232c-0.82-1.153-2.373-1.885-3.903-1.885
		c-2.905,0-4.834,2.085-4.834,5.034c0,3.038,2.062,4.99,4.834,4.99c1.774,0,3.415-0.933,4.191-2.284l3.104,0.819
		c-1.286,2.75-4.036,4.546-7.296,4.546c-4.458,0-8.05-3.393-8.05-8.071c0-4.679,3.592-8.072,8.05-8.072
		c3.061,0,5.677,1.619,7.052,4.103L73.997,5.232z"/>
	<path clip-path="url(#SVGID_2_)" fill="#292760" d="M91.606,13.172h-6.72l-1.152,2.972h-3.327L86.793,0.62h2.905l6.387,15.523
		h-3.326L91.606,13.172z M90.542,10.444l-1.53-3.925c-0.333-0.865-0.731-2.151-0.754-2.151h-0.021c-0.023,0-0.422,1.286-0.754,2.151
		l-1.53,3.925H90.542z"/>
	<path clip-path="url(#SVGID_2_)" fill="#292760" d="M126.582,5.232c-0.821-1.153-2.373-1.885-3.903-1.885
		c-2.905,0-4.835,2.085-4.835,5.034c0,3.038,2.063,4.99,4.835,4.99c1.774,0,3.415-0.933,4.191-2.284l3.104,0.819
		c-1.286,2.75-4.036,4.546-7.296,4.546c-4.458,0-8.05-3.393-8.05-8.071c0-4.679,3.592-8.072,8.05-8.072
		c3.06,0,5.677,1.619,7.052,4.103L126.582,5.232z"/>
	<polyline clip-path="url(#SVGID_2_)" fill="#292760" points="9.06,5.547 9.06,16.144 5.978,16.144 5.978,5.547 	"/>
	<polyline clip-path="url(#SVGID_2_)" fill="#292760" points="102.689,3.503 97.038,3.503 97.038,0.62 110.65,0.62 110.65,3.503 
		105.771,3.503 	"/>
	<polyline clip-path="url(#SVGID_2_)" fill="#292760" points="105.772,5.547 105.772,16.144 102.69,16.144 102.69,5.547 	"/>
</g>
</svg>
